<?xml version="1.0" encoding="UTF-8"?>
<svg id="Layer_1" data-name="Layer 1" xmlns="http://www.w3.org/2000/svg" viewBox="0 0 512 512">
  <path d="M191.71,159.4c5.44.59,11.2,3.77,15.13,7.31,10.09,9.11,10.97,26.3,9.58,38.62-1.53,13.54-7.76,22.27-22.01,26.65l7.91,2.29c4.33,1.43,8.15,3.92,11.1,7.19.41-1.41.63-2.82.66-4.24.62-.61.83-1.34.63-2.18.6-.66.86-1.41.78-2.25.6-.37.88-.92.82-1.67.43-.33.64-.81.65-1.43.62-.34,1.04-.92,1.26-1.75,3.91-4.9,10.22-7,16.21-8.86-2.66-1.67-4.87-3.69-6.63-6.05l.13-.48c-.63-1.33-1.31-2.66-2.02-3.97-1.25-4.72-1.64-9.92-.31-14.69.34-3.92,3.3-7.52,6.84-9.81,2.73-1.77,5.89-2.89,9.16-3.41l.58-.31c.16-.12.32-.24.5-.33s.35-.18.53-.21c8.62-1.35,18.95-1,27.58.05,11.48,1.4,17.62,5.29,19.73,16.25.4,2.08,1.28,9.32.32,10.97-.06.11-.33.03-.5-.06-.02.14-.07.36-.18.37-1.25.05-9.67.29-10.07,0l-.23-.37c-.34.4-.57.26-.69-.18-.15,0-.39-.03-.4-.12-.05-.79-.15-5.27,0-5.71.06-.18.14-.27.4-.33l-.41-.07c-.59-2.45-1.45-4.83-2.56-7.16-3.58-5.35-16.1-5.03-22.16-4.79-10.3.4-16.65,1.63-16.67,12.54,0,4.9,1.86,8.02,5.89,11.13,8.81,6.78,17.94,13.26,27.16,19.59,5.97,4.06,12.41,9.11,17.25,13.36l.5-.88c.32-3.81.47-7.71.19-11.54.4-.9,1.6-.94,2.51-.96.95-.05,7.46-.02,7.96.18.16.07.27.15.32.32.11.24.21.48.29.73s.14.49.15.73c.18,6.47-.31,13.14-1.86,19.44l16.25,11.94c.89.71,1.72,1.47,2.49,2.29l.02-.25c2.9-.15,5.85-.19,8.85-.12l.23.37c.42-.48.65.11.71.54-.15,10.85-.02,21.69,13.5,25.08,13.21,3.31,28.92,3.11,42.44,1.98,8.2-.68,20.48-1.75,23.07-10.39l.66-.68c2-7.14,2.08-15.16.9-22.6-1.64-10.31-9.33-12.24-19.28-13.16-3.8-.35-7.68-.65-11.59-.88-9.28-.56-18.52-1-27.69-1.43-12.43-.79-27.07-2.1-37.01-9.78-1.74-1.35-3.98-3.12-4.6-5.1-.78-1.33-1.54-2.69-2.29-4.09-.64-.95-1.54-2.57-1.27-3.64l-.6-.37c-.06-.64-.2-1.16-.41-1.54-1.6-6.81-2.42-14.18-2.07-21.36.28-2.44.38-4.88.31-7.31.56-1.62.81-3.29.76-5.02.57-.96.79-2.03.67-3.2.83-1.45,1.32-3.03,1.48-4.74,2.2-5.03,4.7-9.06,9.26-12.59,4.69-3.63,10.53-6.07,16.4-7.24l.31-.28c-.04-.46,1.01-.47,1.38-.37,25.05-.14,51.29-.21,76.41.02l2.51.71c.19-.05.38-.1.57-.12,1.7-.17,6.87,2.14,8.6,3.03,15.24,7.85,18.16,25.15,16.93,39.94l-.14.37h-30.77l-.24-.37c-.6.23-.85-.32-.76-1.65.2-4.71-.03-11.27-3.38-15.06-5.44-6.17-18.93-6.5-26.97-6.58-9.9-.1-24.96-.02-33.64,4.58-7.39,3.92-7.82,14-7.31,21.06.56,7.74,2.12,12.62,10.92,14.55,6.93,1.52,14.01,2.32,21.16,2.66,12.33.56,24.68,1.12,36.97,2.32,9.02.88,20.39,3.33,27.4,8.9,3.29,2.6,6.35,6.31,7.06,10.33v52.27c-1.7,6.57-6.96,12.12-12.81,15.92.7.2,1.42.33,2.15.38,3.29-.39,6.57-.55,9.92-.08l.64.42c.17,12.83.17,26.47,0,39.36l-.19.37H76.25l-.25-.37v-192.78l.12-.2c37.98-.14,77.6-.15,115.59.01ZM189.44,274.87c.67-3.61.76-7.99.19-11.64-.03-.16-.14-.31-.29-.45,0-.06,0-.12,0-.18.11-2.46-.35-4.73-1.38-6.81-3.36-10.13-13.9-10.37-23.63-11.04l-55.88.02-.02,46.82c1.41.48,2.72.09,4.06.07,8.89-.09,17.85,0,26.7,0,12.35,0,25.94.98,37.89-1.83,7.47-1.72,12.15-7.87,12.37-14.95ZM295.35,264.17c-.35-.25-2.06-1.39-2.35-1.2-4.71,9.02-15.82,12.05-25.82,13.05-7.94.8-17.96.79-25.91,0-6.93-.69-13.6-2.23-19.29-6.07.33,14.17-1.2,30.96-14.85,39.63l-6.32,3.05c5.89.23,11.79-.04,17.71,0,27.18.15,54.37.2,81.5,0,2.83-.02,5.67.31,8.49.38,1.4.03,2.49-.47,3.87-.38.11-.44-.08-.3-.26-.41-.99-.63-2.14-1.06-3.13-1.68-4.58-2.87-8.6-7.93-10.75-12.62-1.37-2.98-1.98-6.14-2.82-9.15-.61-2.18-.62-5.56-.84-7.86-.09-.91-.51-1.97-.59-2.95-.25-3.04-.11-6.32-.2-9.37.06-.31.6-.89.93-.98,1.06-.29,3.35.09,4.61-.22-1.16-1.06-2.66-2.29-3.97-3.2ZM160.96,180.92l-52.51.02c-.48,3.5.02,7.05,0,10.58,0,.53-.21.98-.22,1.46-.05,9.53-.02,19.1.1,28.62.09.13.68.3.9.36,16.58.16,33.16.17,49.76.04l5.89-.38c9.33-.21,18.73-4.15,18.84-13.68.74-4.12.96-8.52-.12-12.64,0-.06,0-.12,0-.18l-.11-.69c.49-.93-1.28-5.81-1.66-6.07-.05-.04-.13-.05-.21-.05-3.43-6.7-13.79-6.7-20.66-7.37ZM244.68,225.95c-1.22-.46-5.33.75-6.72,1.2-7.31,2.4-10.91,6.17-11.82,13.47-.84,6.78-.87,18.44,5.75,22.79,7.53,4.96,24.19,4.38,33.12,3.6,8.92-.78,13.44-2.19,18.89-8.73.53-.63,1.67-1.62,1.59-2.4-.02-.22-1.18-1.13-1.5-1.37-4.5-3.52-9.39-6.84-14.02-10.23-8.4-6.14-16.89-12.18-25.29-18.33Z" style="fill: #474761;"/>
  <path d="M161.45,329.74c.11.09.21.18.25.28.34.95.33,7.42-.15,8.1-.07.1-.18.18-.29.26-.09,2.46-1.53,5.22-4.35,5.7-6.38,1.62-16.17,1-23.05,1.1-1.43.02-2.84.01-4.25-.18v-23.55c6.43.22,13.09-.29,19.49,0,2.51.11,6.51.49,8.66,1.7,2.76,1.54,3.33,3.78,3.69,6.59Z" style="fill: #fefefe;"/>
  <path d="M388.92,345c-.42-1.45,0-2.89.01-4.31.03-5.97-.49-12.01-.2-18.02.01-.21.02-1.04.03-1.09.21-.67,2.59-.13,3.2-.13.93,0,2.25-.49,3.19.01,7.72,6.65,15.12,13.59,22.64,20.42v-20.33s.28-.28.3-.28h3.56s.3.26.3.28v23.45c-2.02-.14-4.09.61-6.04-.18-6.38-5.73-12.76-11.42-19.19-17.11-1.08-.96-2.06-2.17-3.35-2.96l-.5,20.24h-3.96Z" style="fill: #fefefe;"/>
  <path d="M375.4,323.36c.3.27,1.13,1.3,1.29,1.65,1.3,2.75,1.14,9.59.96,12.73-.35,6.09-3.42,7.24-9.6,7.62-4.3.27-14.54.51-18.29-1.01-4.76-1.94-4.09-8.39-3.95-12.31.22-6.07.26-9.64,7.82-10.75,4.67-.69,18.28-1,21.77,2.07Z" style="fill: #fefefe;"/>
  <path d="M118.73,321.46v2.94h-19.68c-.07,0-1.25.2-1.34.22-.15.04-.54.35-.54.42v6.16h20.57v2.94h-20.27s-.3.26-.3.28v7.63h21.96v2.94h-26.11v-23.55h25.71Z" style="fill: #fdfdfd;"/>
  <path d="M287.25,345c-1.13-.03-3.35.51-4.35.09-.3-.13-.67-.74-.88-1.02-.72-.99-1.71-3.22-2.48-3.95-.27-.26-.52-.3-.89-.28h-19.75c-.37.09-2.71,4.92-3.3,5.26-.44.25-4.36.03-4.36-.19l14.93-23.45c.44-.36,4.9-.24,5.74,0l15.33,23.55Z" style="fill: #fefefe;"/>
  <path d="M239.58,329.18c-.45-1.88.3-3.6-1.98-4.51-2.93-1.17-12.99-1.13-15.87.14-2.27,1-2.34,2.52-2.52,4.64-.23,2.63-.42,7.2.25,9.69.34,1.27.91,2.18,2.26,2.68,2.73,1.02,10.54.93,13.58.57,2.36-.28,4.15-.74,4.45-3.22.05-.45-.15-2.46.32-2.46h3.76c.74,0-.03,3.7-.2,4.23-.57,1.82-1.92,2.97-3.8,3.64-3.56,1.26-13.22,1.1-17.14.57-5.5-.73-7.5-3.05-7.85-8.16-.22-3.25-.36-10.16,1.7-12.78,2.79-3.55,11.67-3.52,16.02-3.33,3.96.17,9.95.47,10.92,4.93.1.46.48,3.36-.05,3.36h-3.86Z" style="fill: #fefefe;"/>
  <path d="M203.58,321.27c.39,2.72.13,5.45.19,8.19.19,8.66,2.26,14.88-9.39,15.9-4.56.4-15.78.64-19.38-2.02-1.05-.77-2.27-2.92-2.27-4.14v-17.75h4.15c.34,3.98.2,8.04.21,12.06,0,1.82-.2,3.65,0,5.51.22,2.1,1.69,2.83,3.71,3.17,3.91.66,10.81.66,14.72,0,1.57-.27,2.86-.6,3.46-2.12.1-.25.45-1.61.45-1.78v-17.02h4.15Z" style="fill: #fefefe;"/>
  <path d="M303.27,324.49c-.04-.12-.3-.3-.47-.27l-12.06.15c-.51-.16-.51-2.92,0-3.08h29.41c.55.19.13.57.15.97.01.24.18.47.16.73-.09,1.23-.15,1.33-1.46,1.41-3.4.21-7.06-.18-10.49,0-.64.04-1.09,1.1-1.09,1.56v19.04c-1.43.29-2.73.18-4.15,0v-20.51Z" style="fill: #fefefe;"/>
  <path d="M334.03,321.27c.33.1.47,1.21.5,1.56.51,5.43.29,13.96,0,19.51-.04.85-.37,1.75-.21,2.66-.65.05-4.19.51-4.3-.08l.25-23.65c.76,0,3.28-.14,3.76,0Z" style="fill: #fbfbfb;"/>
  <path d="M329.19,159.77c.02.61-.35.44-.7.55-.68.22-1.51.26-2.12.42-6.29,1.66-13.21,5.29-17.36,9.98-.48.54-.55.48-.75.67-.12.12.02.52-.13.72-.13.17-.5.11-.64.23-.09.08-.6,1.15-.77,1.4-.76,1.09-1.37,2.02-1.95,3.15-.45.89-.61,1.75-.93,2.64-.09.25-.52.23-.57.42-.11.39.12.94-.03,1.4-.32.98-.51,1.87-.79,2.76-.09.27-.47.38-.55.78-.13.6.12,1.41,0,2.02-.09.45-.65.73-.77,1.49-.15.98.12,2.12-.04,3.09-.09.59-.51.94-.59,1.48-.2,1.35.1,3.18.02,4.61-.24,4.29-.22,7.28,0,11.57.13,2.5.21,4.85.63,7.32.11.62.64,1.24.73,1.71.11.57-.12,2.84.01,3.03l.39-.19c.45.6.12,1.51.19,1.9.03.16.43.18.61.49-.08.36-.28.3-.59-.18-1.99-5.74-3.33-16.26-2.98-22.36.08-1.31.51-2.76.6-4.04.1-1.37-.13-2.87,0-4.23.1-1.01.65-1.87.77-2.78.1-.81-.13-1.84.02-2.55.08-.4.46-.51.55-.78.2-.6-.08-1.46.08-2.13.11-.44.61-.75.71-1.18.68-2.91,1.07-4.55,2.71-7.05.47-.71.71-1.65,1.36-2.59,5.23-7.63,13.54-11.72,22.87-13.78Z" style="fill: #6c6d7e;"/>
  <path d="M183.6,195.27c.17.73.72,1.2.8,1.92.44,3.97-.19,8.79-.61,12.7-.11,1.07-1.64,4.62-2.29,5.4-.46.55-1.81,1.95-2.26,2.32-4.41,3.62-12.9,4.06-18.5,4.33-16.85.8-33.95-.21-50.85.2-.3.11-.53-.16-.67-.2h49.76c8.04-.7,19.64-.52,23.15-8.82.23-.56,1.1-2.1,1.23-2.53.2-.65-.03-1.78.04-2.53.1-.99.5-2.03.6-2.94.35-3.17-.21-6.74-.41-9.85Z" style="fill: #9c9ca7;"/>
  <path d="M242.15,180.37c-.15.3-.32.5-.7.55-5.11.6-10.22,3.38-13.34,7.27-.73.91-.53.94-.82,1.81-.1.3-.63.31-.73.61-.11.32.05.74-.06,1.06-.09.25-.52.23-.57.43-.11.41.04,1.19-.05,1.75-.12.78-.67,1.29-.75,1.88-.24,1.77-.24,7.63,0,9.4.08.57.62,1.11.75,1.88.09.52-.06,1.19.05,1.57.05.19.47.17.57.43.27.76.51,1.74.93,2.46.13.22.8.23.48,1.1-4.21-5.84-3.59-13.75-2.33-20.28.22-1.15,2.01-4.13,2.85-5.08,3.44-3.84,8.5-5.95,13.72-6.83Z" style="fill: #9d9da8;"/>
  <path d="M189.34,262.78c.07.23.56.35.59.5.08.38.17,1.51.2,1.99.12,1.81.25,7.26-.23,8.79-.08.26-.47.38-.55.77-.21.99.2,2.5,0,3.49-.13.61-1.02,2.32-1.33,2.99-2.27,4.92-5.32,7.18-10.93,8.5l4.72-1.95c2-1.43,3.77-2.78,5.05-4.87.9-1.47,1.07-2.63,1.54-4.09.08-.26.47-.38.55-.77,1.07-5.14.72-10.21.4-15.36Z" style="fill: #9695a1;"/>
  <path d="M119.32,345.19c.02.12-.26.37-.3.37h-25.91s-.31-.25-.3-.37h26.51Z" style="fill: #474555;"/>
  <path d="M299.12,232.43c-1.44-.8-3.31-.19-4.84-.18-1.42.02-3.6-.44-4.8-.05-1.85.6-.74,2.45-.65,3.81.09,1.43-.33,2.53-.4,3.85-.06,1.13.26,3.86-.1,4.69-.05.12-.54.64-.68.74-.02-.52.34-.86.4-1.37.29-2.48.25-6.29.2-8.84-.03-1.61-.94-2.99,1.66-3.22,1.46-.13,3.59,0,5.14,0,.7,0,3.7-.12,3.98.19.08.09.08.25.09.37Z" style="fill: #9fa0aa;"/>
  <path d="M161.45,329.74c.47-.11.45.23.5.54.17.98.27,7.28-.12,7.82-.2.27-.56.26-.57.29.62-2.66.55-5.92.2-8.65Z" style="fill: #888996;"/>
  <path d="M161.25,338.38c-.1.14.08,1.61-.04,2.08-1.05,1.61-1.39,2.91-3.52,3.54-.29.09-.59.03-.79.08,2.9-.91,3.76-3.15,4.35-5.7Z" style="fill: #9e9da8;"/>
  <path d="M181.63,188.28c.92-.18.48.52.74,1.06.59,1.19.35,1.1.68,2.12.08.24.43.38.51.63.22.65,0,2.19.04,3-.5-.74,0-1.85-.24-2.63-.34-1.07-1.19-3.1-1.74-4.18Z" style="fill: #9c9ca7;"/>
  <path d="M187.96,255.79c.94.06.5,1.21.68,1.86.1.38.56.31.66.84.24,1.21-.04,2.83.05,4.1-.38-1.08-.2-2.46-.41-3.58-.15-.82-.69-2.37-.98-3.23Z" style="fill: #9695a1;"/>
  <path d="M303.08,223.41c.27.5.09,1.11.19,1.53.05.2.48.18.57.43.11.32-.05.74.06,1.06.1.28.54.3.66.49.53.82.95,2.15,1.54,3.08.15.23.84.31.54,1.15-1.95-2.53-3.13-4.97-4.15-7.91l.59.18Z" style="fill: #8a8a97;"/>
  <path d="M133.96,342.06v-16.65c0-.08,1.2-.91,1.47-.84,5.09.3,10.61-.36,15.64,0,2.32.17,4.86.71,5.72,2.95s.82,10.07-.26,12.08c-.5.93-1.32,1.5-2.35,1.86-.45.16-2.15.59-2.53.59h-17.7Z" style="fill: #464662;"/>
  <path d="M351.21,341.08c-1.01-.94-1.19-2.99-1.21-4.26-.04-2.1-.14-6.54.15-8.47.1-.69.89-1.64,1.28-2.12.23-.28.62-.92.86-1.09.38-.26,2.76-.85,3.3-.92,3.39-.44,10.63-.29,13.9.33,1.28.24,2.18.21,3.02,1.42,1.48,2.12,1.31,11.98.15,14.31-.85,1.71-3.19,1.97-5,2.15-3.44.35-12.07.48-15.13-.64-.34-.12-1.08-.48-1.32-.7Z" style="fill: #464762;"/>
  <path d="M277.36,336.91h-16.42l8.01-12.69.49.28c2.7,4.1,5.34,8.25,7.91,12.41Z" style="fill: #464760;"/>
</svg>