<?xml version="1.0" encoding="UTF-8"?>
<svg id="Layer_1" data-name="Layer 1" xmlns="http://www.w3.org/2000/svg" viewBox="0 0 512 512">
  <path d="M436,415.36c-3.4,2.01-9.9.27-12.53,1.85-4.53,5.29-5.5,19.02-19.35,14.1-.91-.4-.58-3.04-3.12-2.2,1.38-5.18,9.22-13.09,15-12.5.63-.49.66-.91,0-1.25-2.41,2.18-7.64,4.42-8.75,0-2.49.34-3-.72-1.25-2.5-1.01-1.85-1.01-3.1,0-3.75.25-3.22-.6-3.98-3.75-5,1.36-11.7-3.01-11.02-5.86-19.79-5.12-3.89-3.84-10.4.86-5.21,1.05-1.51,3.52-1.01,5,0,7.8.42,15.72.42,23.75,0,2.66-2.5,7.31-5.62,10-2.5v38.75Z" style="fill: #fbfdfd;"/>
  <path d="M436,370.36v6.25c-1.01,1.34-13.32,3.93-10,1.25,2.24-1.38,5-8.08,10-7.5Z" style="fill: #292353;"/>
  <path d="M118.5,430.36c.41-1.08.82-1.08,1.25,0,3.86,2.38,4.2,2.34,7.5,0-.01,1.82-.22,3.45-1.25,5h-11.25c3.26-1.66,2.21-1.75,1.25-5-.15-2.38,1.46-1.95,2.5,0Z" style="fill: #f2f3f8;"/>
  <path d="M308.5,121.61c32.15,10.39,63.22-4.55,89.39-23.71,5.43,6.14,29.01,84.18,16.87,86.21,0,0-4.99,2.32-4.99,2.32l-33.17.09c-7.21-2.56-9.99,2.74-17.6,2.82.28,4.64.06,9.76-4.25,4.77-3.48,2.36-6.87-3.48-2.5-5-5.87-1.31-12.02-1.14-17.95-.41-.31.04-.63,4,.45,5.41.29-3.48,3.53-3.27,5.74-.94,2.87,1.92,3.83,39.15-4.49,28.44-4.1,15.71-15.63-26.75-14.55-29.94-10.52-.84-11.11-.15-12.58,10.55l-2.88,1.88c-3.79,6.9.45,18.71-7.5,17.5-1-1.11-2.42-1.38-4.28-.82-2.24-7.55-2.11-16.66-.81-24.47,1.33.07,2.95,1.67,3.85.29-2.4-.71-2.4-1.8,0-2.5-3.32-1.59-3.31-3.41,0-5-3.52-.93-2.86-1.83,0-3.75-6.68-.09-8.76-1.76-6.25-5-1.2-3.54.83-4.54,2.5-1.25,1.58-1.4,2.83-3.07,3.75-5-2.92-1.8-3.24-2.25,0-3.75l-2.76-1.23c-1.84-11.34-12.54-7.85-19.74-5.02-1.98,3.86-12.69.27-6.25-3.75-3.29-2.96-7.94-2.39-12.5-2.87.3-3.05-1.48-9.47-3.75-7.13-1.98,3.54-5.48,3.47-7.5,0-2.89,2.48-4.56,2.48-5,0-9.76-.44-19.34-.44-28.75,0l2.19,2.2c-1.45,4.48-1.82,5.84,1.56,9.05.73-.22,1.34-.34,1.55-.11,1.96,2.23-.9,3.16-.3-1.89.13-1.15.47-2.12,1.25-3-2.28-3.59,2.43-4.69,5.18-2.65,2.07,1.54,3.28,31.18-6.43,21.4-1.99,4.28.73,5.73,8.17,4.35l10.96.64c-1.73.04-1.44-.37.87-1.24-2.39-.71-2.39-1.79,0-2.5,4.56.3,3.31-.53-3.75-2.5-.91-3.18-1.42-17.51,3.74-10.25l2.51-1c.42-.77.83-.77,1.25,0,3.66-3.14,5.47-3.88,5.45-2.23.37,6.76-.45,13.06-2.44,18.9,2.09.62,2.27,1.65.71,3.21,1.74,1.62,2.87,2.78,1.27,5.12-5.69,1.01-11.81,1-17.5,0-2.02-2.74.48-4.41,7.5-5-3.02.55-5.76,1.39-8.21,2.5-4.15-5.94-10.51,2.6-11.17-2.5,1.95.13.84,6.54-.62,3.75-4.68-1.15-9.31,3.77-13.75,1.25-.78,2.81-1.95,3.45-2.51.57-4.36,1.26-11.39-5.42-3.74-3.07,1.26-3.22,1.43-4.78,0-1.25-4.09.77-8.25,1.61-12.5,2.5-.4.99-2.07,1.83-5,2.5,3.48,1.03,3.4,2.68,0,3.75.6,3.27.08,3.36-2.5,1.25-2.9,2.02-11.39-2.72-11.25-6.25-1.09-.35-1.08-.77,0-1.25,7.79-6.76-14.67-9.41-21.25,1.25-1.67,3.2-4.47,2.64-8.38-1.67-5.21-.86-10.26-1.84-15.16-2.93-.88-1.98-1.36-4.2-1.46-6.65q-2.09-3.13,0,0c2.03.34,1.32,2.61.44,4.41-8.04,1.22-12.31,8.38-15.44,15.59,5.32,5.26-3.19,1.57-2.5,6.25,2.58,1.98,2.55,7.74,0,10,1.21,3.82-4.71,8.96-2.5,3.75-2.22-.08-3.08-.86-3.23-2.93-.33-38.86,9.87-78.23,23.25-114.56,55.82,32.55,99.2,41.71,141.86-17.49,12.25,16.64,28.23,35.54,49.37,39.98Z" style="fill: #130f54;"/>
  <path d="M418.5,176.61c4.37,49.28,1.4,92.93-22.5,135-3.21,1.16-5.26,4.47-6.14,9.94-4.13,3.72-6.66,7.91-7.61,12.56-7.7,10.56-14.84,21.75-24.66,30.51-10.87-3.85-46.52-21.62-54.09-10.51,5.14,10.76,73.5,13.81,62.5,31.25.94,4.88-10.1,7.26-8.75,1.25-17.65-5.01-36.55-8.85-57.69-15.31-27.43-.94-61.11-6.94-87.31,2.81,0,0-3.76,3.23-3.76,3.23-13.58,4.46-30.21,8.4-44.28,11.36-4.62.97-15.19,2.45-15.71-3.35-11.02-13.11,52.54-24.61,61.25-27.5.35-1.56,1.6-3.23,3.75-5-1.7.3-2.11-.53-1.25-2.5-2.14,2.79-5.43.79-5-2.5-2.94-1.21-7.05-1.21-10,0l-.87,2.67c-13.53,3.12-26.61,8.51-39.32,14.01l-2.31-1.68c1.97-2.35.11-2.83-1.22-4.38-11.48-13.33-19.2-21.77-28.78-36.87-.42-4.23-2.55-7.87-6.25-10-12.99-23.58-23.91-53.96-23.75-81.25-.92-4.11-2.06-13.56,2.5-13.75.42.55.23.88,1.25,1.25.33-1.06.75-1.04,1.25,0,5.37,11.12,15.96,12.39,27.27,9.88,6.41,2.4,7.82,5.37,5.23,11.37l1.91,2.47-4.33,20.24c-.68,12.7-13.55,5.08-9.01,16.69,19.12,4.1,13.53-10.67,16.43-6.91,1.81-1.55,2.53-.83,1.25,1.25,3.74.91,1.85,3.03,0,5,6.54,1.13,13.48,1.16,20,0,2.55-4.03,5.31-3.42,8.3,1.82,15.77,5.62,19.64-6.83,22.95-1.82,1.09.35,1.08.77,0,1.25,3.85-.22,2.62,3.19.04,4.88l4.13.44c-5.75-8.16,9.37-3.77,12.05-8.88l2.54,2.32c6.52.05,34.64,2.97,10,6.25-.33.98-.75.96-1.25,0-1.61.95-3.58,1.13-5,0q-2.7-1.26,0,0c1.4.82-.14,1.9-.24,1.83-1.03-.78,4.67-3.35,6.49.67,1.32-3.67,10.34-1.73,5,2.5-1.62,1.36-2.03,2.2-1.25,2.5,3.44.53,3.03,1.14,0,2.5l-.69,2.93c-12.42,7.52-25.52,12.37-39.31,14.57,1.76,2.62.02,3.4-2.5,3.75l-.36,1.63c7.42,3.03,14.2,6.66,20.36,10.87,2.18-2.14,7.86,2.8,8.75,5,1.83.77,3.91,1.6,6.25,2.5,1.22-1.59,2.13-.74,2.5,1.25,1.29-1.28,3.22-.33,3.75,1.25,2.14-.42,5.17.07,5,2.5,2.75-1.54,6.95.87,6.22,4.14-10.2-.03-8.94.26,3.78.86.25-2.8,3.46-1.56,5,0,1.59-.71,4.37.59,5,2.5.31-1.09.73-1.06,1.25,0,1.98.9,4.05,2.23,6.25,3.75-.42-3.43,4.36-3.84,7.5-3.75,4.02-.52,4.58-7.75,8.75-3.75l.24-1.21c4.23-.76,9.09-2.07,12.26-5.04-2.94-4.49,18.06-9.03,21.61-10.94l2.14,2.19c2.28-2.5,3.11-2.08,2.5,1.25,2.56-1.61,4.23-1.61,5,0,.54-.83.71-1.64.06-2.54,8.57-4.55,18.06-9.13,27.44-11.21-.21-3.02,1.87-5.1,6.25-6.25-5.68-3.93-12.82-5.91-21.42-5.96-4.76-2.35-10.12-4.11-16.08-5.29-3.93,3.95-17.59-.44-20-5-1.51-2.84-20.88-1-12.5-5-5.4-4.5-.75-7.22,13.96-8.17l-.21-1.83c3.36-.37,6.7-.79,10-1.25-3.4-2.38-3.44-5.14,0-7.5.35-1.09.77-1.08,1.25,0,3.1-3.81,4.35-4.22,3.75-1.25,1.84-.1,1.77,1.87,0,2.5.39,2.13-1.08,2.15-2.5,1.25,1.62,2.19,1.62,3.44,0,3.75,2.01,2.79,14.13,3.69,15.34-.72,3.21,3.05,7.6,3.48,12.16,1.97-3.91-6.81,4.12-7.05,3.75,0,8.12,1,20.99,4.29,18.75-6.25,2.2-.83,5.46-1.27,3.75,1.25,1.27-.89,2.11.36,2.5,3.75,3.58,3.29,14.87,2.22,21.25,1.25-1.45-2.39-3.43-3.93-5.94-4.62-6.34-8.94,5.41-31.95,13.44-37.88l-3.76-1.13c-4.12,1.53-8.57-.31-3.74-2.62-2.89-2.24-4.98-4.74-6.25-7.5-2.44-.33-2.37-2.06,0-2.5-.96-3.52,7.09-5.67,10-5,1.08-5.31,5.08-1.38,2.5,2.5-10.88,7.72-1.53,10.04,7.5,8.75.23-1.11.66-1.07,1.25,0,2.29-.86,5.27-.83,7.5,0,.42-1.08.83-1.08,1.25,0,1.59-1.53,2.01-3.61,1.25-6.25-.35,1.05-.77,1.03-1.25,0-.52-.18-2.86-1.33-2.98-1.76-.32-1.11-.74-20.15-.51-21.19.48-2.13,1.54-2.79,3.49-3.3,4.72-2.6,6.9,5.92,2.5,7.5,4.6,2.52,6.68-.4,6.25-8.75.34-2.37,2.99-8.5,1.25-10l.02-1.67c3.38-1.1,1.78-3.7,3.73-5.83Z" style="fill: #130f54;"/>
  <path d="M359.75,362.86c1.41,1.69,5.1,3.34,5,1.25,1.87.38,3.77.43,5.56,1.33l1.31-2.58c2.1,1.65,3.44,3.45,3.13,6.25-1.57-.34-1.15.5,1.25,2.5,1.38-.86,3.75-.05,5,1.25,2.33.27,8.44.44,10.44,0,.94-.21.92-3.98,4.56-2.49-3.15,5.25.13,4.34,1.25,6.24,1.49,1.09,1.61,1.93,0,2.5-6.91.18.83,3.62,1.02,3.93.21.33-.88,4.54,1.48,7.32,1.66,1.76.96,2.4-1.25,1.25-1.21-.36-1.61-1.27-1.25-2.5-2.83-1.82-4.08-3.91-3.75-6.25-2.47-.08-5.23-.5-8.27-1.23-5.62,4.17-14.49,11.9-12.98-1.27-2.94-1.93-5.47-4.62-7.5-7.5-.3,1.07-.72,1.04-1.25,0-1.95-.34-3.2-1.17-3.75-2.5-1.9,3.03-3.92,2.34-3.75-1.25-2.05.84-4.53-1.11-6.25-2.5-1.82,3.11-4.92,2.43-5-1.25-2.23.38-4.62-1.04-6.25-2.5-1.77.58-4.77.11-6.25-1.25-3.82.38-7.79-.77-11.25-2.5-.34,3.19-2.81,2.9-3.75,0-3.03-1.11-5.95-1.94-8.75-2.5-1.63,1.9-4.75-.39-5-2.5-5.69-17.3,50.14,5.77,56.25,8.75Z" style="fill: #f8f9fb;"/>
  <path d="M207.25,347.86c4.36,1.15,8.72,4.84,1.25,6.25-.47,2-3.15,3.11-5,2.5-1.28.78-2.94,1.61-5,2.5-.31,1.11-.73,1.08-1.25,0-1.52.81-3.58.9-5,0-2.85,1.6-6.82,3.05-10,2.5-1.13,1.47-4.5,1.81-6.25,1.25-1.38,1.51-4.18,2.75-6.25,2.5-1.2,1.48-4.23,1.58-6.25,1.25-1.85,1.02-3.52,2.27-5,3.75-.92,3.69-3.39,3.96-3.75,0-1.19,1.77-4.14,3.77-6.25,3.75-1.87,2.24-3.54,4.74-5,7.5,1.08.31,1.05.73,0,1.25-1.06,1.41-1.28,2.24-1.72,4.98-2.42,0-4.13.9-4.53-2.48-2.77.3-8.81-2.71-8.61-5.74l-3.89.74c-.38,1.07-.8,1.06-1.25,0,1.7,8.39-6.69,2.97-3.75,2.5-4.13-4.7,13.55-11.52,17.5-11.25.45-.32,1.16-1.56,2.5-2.5,1.98-.03,4.95-.08,5-2.5.92-1.29,3.09-5.4,5-2.5,0,0,3.75,0,3.75,0,.53-.28.9-1.09,1.25-1.25,13.78-5.27,38.01-18.11,52.5-15Z" style="fill: #f6f7fa;"/>
  <path d="M113.5,379.11c3.1-2.6,7.03.06,6.25,3.75.15.35-.15.89,0,1.25,3.14,1.01,5.14,4.29,5.98,9.83,2.04,2.91,2.55,5.46,1.52,7.67,1.75-.26,4.4.47,3.75,2.5,8.25-3.41,4.37,8.67,0,11.25.36,1.56-.88,3.32-2.5,3.75.15,2.65-.25,5.66-2.5,7.5-.14.36.13.87,0,1.25.72,5.31-2.28,5.26-6.25,2.5-2.46.33-15.31-9.42-9.78-11.39-2.03-1.48-2.52-2.68-1.47-3.61.5-4.62-.42-8.54,2.5-12.5,3.53-.39,3.14-6.93,1.33-9.43,4.84-.86-.06-5.46-.09-9.29,1.49-.72,4.68,1.62,3.75-2.52-4.77,2.77-5.29-.88-6.24-1.25-.44-.98,2.47-1.37,3.75-1.25Z" style="fill: #f9fafc;"/>
  <path d="M396,311.61c-4.86,9.06-7.84,14.08-13.75,22.5-4.04-6.71,6.05-10.3,7.15-12.79.91-2.05-.12-4.54,1.01-7.18.94-2.2,4.34-7.64,5.59-2.54Z" style="fill: #1a174a;"/>
  <path d="M108.5,411.61c2.25,4.12-7.58,6.34-8.75,3.75-2.35.72-5.39.11-7.5-1.25-2.92.17-6.08-.52-7.5-2.5,3.72.11,9.74-1.35,13.17-1.07s6.07,3.9,10.58,1.07Z" style="fill: #f9fafc;"/>
  <path d="M424.75,176.61v19.38c0,.87-2.08,3.64-1.26,5.62h-1.24s0-24.99,0-24.99c0-.13,1.67.07,2.5,0Z" style="fill: #f9fdef;"/>
  <path d="M94.75,196.61c3.37,3.33-4.19,16.1,2.09,17.9.59.96.32,1.98.41,2.1-3.33,3.65-2.47,9.17-2.5,13.75-2.09-1.26-1.24-4.76-1.27-6.86-.1-8.69-.89-18.61,1.27-26.89Z" style="fill: #1e1851;"/>
  <path d="M87.25,376.61c1.09,1.63-.16,2.05-3.75,1.25-6.28-2.04-7.07.85-6.24-8.75,4.97,1.06,6.66,4.97,9.99,7.5Z" style="fill: #231b59;"/>
  <path d="M107.25,415.36c.34-1.11.76-1.09,1.25,0,.7.44,3.14,6.95,4.44,8.68,2.07,2.77,5.67,3.01,5.56,6.32-5.22.55-9.58-6.32-13.75-8.75-.02-3.05-.86-3.88-2.5-2.5-9.83-5.53.24-3.32,5-3.75Z" style="fill: #2b2652;"/>
  <path d="M426,377.86v1.25c-2.71.95-28.01,1.36-23.75-1.25,5.68.78,19.18,2.83,23.75,0Z" style="fill: #676775;"/>
  <path d="M118.5,311.61c4.21-1.34,8.71,6.93,6.25,10-2.24-3.53-4.13-6.15-6.25-10Z" style="fill: #1c194c;"/>
  <path d="M102.25,419.11c-.02-6.19,5.55-.56,7.45.04l-4.95,2.46c-1.32-.92-2-2.14-2.5-2.5Z" style="fill: #1a0e64;"/>
  <path d="M308.5,121.61l7.49-2.49-2.51,1.86,3.76,3.12c-4.39-.75-5.16-1.33-8.75-2.5Z" style="fill: #eceaf8;"/>
  <path d="M113.5,396.61l2.49.61c-2.5,2.3-1.76,7.02-4.98,8.13-.67-3.29,2.4-5.54,2.49-8.75Z" style="fill: #51515e;"/>
  <path d="M99.75,415.36l-1.25,1.25c-1.3-.66-5.13.27-6.25-2.5,3.02.26,5.74,1.05,7.5,1.25Z" style="fill: #737287;"/>
  <path d="M412.25,271.61c.16-2.02-2.27-4.45,2.5-7.5-.35,2.6-.31,5.64-2.5,7.5Z" style="fill: #201f4c;"/>
  <path d="M84.75,411.61c1.9.65,4.08,2.04,6.25,2.5-.24.27-12.27-.53-8.75-2.5.66.23,1.84-.23,2.5,0Z" style="fill: #5b5c67;"/>
  <path d="M97.25,379.11c3.36,2.58-8,.12-8.75,0-1.28-1.36-.59-1.8,1.25-1.25,3.26,1.18,4.22,1.07,7.5,1.25Z" style="fill: #6a697a;"/>
  <path d="M112.25,379.11l-2.5,1.25c-.97-.38-4.6.07-6.25,0-3.41-2.18,8.3-.84,8.75-1.25Z" style="fill: #585964;"/>
  <path d="M127.25,374.11c-.46,1.41-3.91,3.33-5,3.75-.4,1.06-.82,1.06-1.25,0-2.79-.64,3.45-3.07,6.25-3.75Z" style="fill: #555663;"/>
  <path d="M108.5,409.11l2.52.64-2.52,5.61c-.21-.13-.8.06-1.25,0,.38-2.31,1.67-3.98,1.25-6.25Z" style="fill: #71717f;"/>
  <path d="M121,376.61c.28,1.65-.56,4.41-2.5,2.5-1.45.25-3.39-.08-5,0,1.58-3.18,5.45-1.84,7.5-2.5Z" style="fill: #555852;"/>
  <path d="M144.75,366.61l1.24.64c.83,2.74-3.04,2.06-5.5,2.86l-.74-.99c1.39-.98,3.58-1.5,5-2.5Z" style="fill: #7a7b84;"/>
  <path d="M82.25,411.61v1.25c-1.18-.42-4.73-.74-5.01-1.89-.93-3.88,3.34.07,5.01.64Z" style="fill: #84848d;"/>
  <path d="M94.75,194.11c-.04-2.69-.88-7.13,1.25-8.75-.07,2.74.96,7.07-1.25,8.75Z" style="fill: #161059;"/>
  <path d="M402.25,377.86v1.25c-1.64-.1-3.36-.04-5,0-1.28-1.1.06-2.39,0-2.5,1.54,1.19,3.24,1.01,5,1.25Z" style="fill: #505062;"/>
  <path d="M89.75,377.86l-1.25,1.25c-2.39-.42-2.78-.53-5-1.25l2.91-.22.84-1.03c.55.42,1.8.99,2.5,1.25Z" style="fill: #363257;"/>
  <path d="M374.75,369.11c.83.34,1.1,1.18,1.25,1.25,1.09.35,1.08.77,0,1.25-1.84-.66-3.66-1.65-4.99-3.13.83-1.88,2.66.19,3.74.63Z" style="fill: #6b6c74;"/>
  <path d="M137.25,371.61c-4.07,2.84-4.69,1.2-5,1.25,1.39-1.77,3.04-2.9,5-1.25Z" style="fill: #82828f;"/>
  <path d="M364.75,364.11v2.5c-.47.56-3.09-2.13-3.75-2.5,1.59-1.46,2.51-.25,3.75,0Z" style="fill: #858691;"/>
  <path d="M153.5,364.11c-.69.37-3.25,3.08-3.74,2.5v-2.5c.93-.06,2.05-.81,3.13-.75l.61.75Z" style="fill: #797988;"/>
  <path d="M381,372.86c-1.42-.16-3.63-.76-5-1.25v-1.25c1.23.58,4.45-.55,5,2.5Z" style="fill: #4d4e56;"/>
  <path d="M103.5,379.11v1.25c-2.07-.09-4.18.13-6.25,0v-1.25c2.07.12,4.17-.05,6.25,0Z" style="fill: #3f3f4c;"/>
  <path d="M357.25,386.61c1.51,2.47,6.45-.24,8.75-1.25-.08-9.48,6.55-4.29,5,2.5,1.1.25,1.06.67,0,1.25-1.11.75-1.94,2.83-2.5,6.25,3.94,2.41.36,12.77-3.75,13.75-1.37,4.38-1.48,13.46-6.25,15-.45,2.96-5.49,2.11-7.5,0-.8-.11-1.78.16-2.5,0-1.3-1.42-3.88-2.65-6.25-2.5-1.78-1.32-3.44-2.57-5-3.75-1.94.73-4.68.02-6.25-1.25-2.62.3-5.42-.98-7.5-2.5-3.52.03-7.13-1.05-10-2.5-4.29.12-8.84-.76-11.25-2.5-1.31,1.59-3.98,1.98-5,0l-5.32,1.83c-20.54-2.68-41.28-3.31-61.9-1.13l-5.28-1.95c-5.65,1.67-11.65,2.7-17.5,2.5-2.43,1.71-6.95,3.12-10,2.5-1.08,1.21-3.49,1.84-5,1.25-1.39,1.32-4.49,2.01-6.25,1.25-.97,1.36-3.43,1.99-5,1.25-4.59,2.68-4.17,3.1,1.25,1.25.65-1.42,2.34-1.82,3.75-1.25,1.85-3.31,1.12,5.95,1.25,6.24-5.52-2.52-10.01,2.67-15.43,1.64-3.06,1.01-5.63,5.85-.43,4.38,4.73-1.33,7.22-5.58,13.36-2.26-2.19,8.75-16.3,2.25-22.08,7.24-1.02.13-9.88-4.49-10.58-5.31-1.31-1.53.61-3.46-.07-4.19-.97-1.05-4.6.87.24-2.75l1.25-1.25c-1.78-3.89-3.17-8.36-3.75-12.5-1.26,1.4-1.67.56-1.25-2.5-3.89.13-5.69-5.27-2.5-7.5-1.75-2.3-4.1-6.42-2.5-8.75-5.72-1.62,4.46-11.73,5-3.75,21.09,5.51,42.51-8.97,63.75-11.25,27.46-6.62,57.31-7.84,84.8-1.75l2.92-1.11c19.26,5.58,38.94,10.75,57.27,15.35Z" style="fill: #fafbfc;"/>
  <path d="M297.25,409.11c2.34.9,1.93,1.73-1.25,2.5-1.54.42-14.24,8.28-17.5,10l-5.55,1.49c-6.7,6.6-13.6,8.19-20.7,4.76-10.26-3.55-23.93-12.52-32.5-17.5.41-1.27,2.07-2.1,5-2.5,26.45-3.01,46.21-2.27,72.5,1.25Z" style="fill: #140f56;"/>
  <path d="M396,389.11c1.66,1.41,2.74,3.97,2.5,6.25,1.91,2.49,3.16,5.4,3.75,8.75,1.16.14,3.51-1.49,3.74-1.26,1.52,2.96.31,4.19,0,6.26-2.02.09.49,4.76,1.25,6.25,2.89,4.59-8.18,15.44-13.75,15-3.28,5.34-6.34-.75-5-5-1.38-1.02-1.95-3.36-1.25-5-1.72-1.74-2.97-2.58-3.75-2.5-2.38-2.49-4.28-1.02-2.5-5-.29-1.24-1.22-2.95-2.81-5.15,2.9-2.06,3.77-5.28,7.6-7.67,1.48-4.09,3.64-6.9,6.46-8.43.58-5.21,1.72-10.06,3.75-2.5Z" style="fill: #f9fafc;"/>
  <path d="M393.5,382.86c.04,8.43-3.56,21.79-13.75,23.75l-.32,1.71c-3.4-1.45-6.63-1.6-9.68-.46.96,1.42-1.89,2.76-3.75,2.5-1.99,1.61-2.25,1.01-1.25-1.25,1.77-2.81,2.84-14.53,5-15,1.68-1.94,2.65-3.89,3.13-6.4l1.87.15c4.94-6.9,11.9-13.32,18.75-5Z" style="fill: #161154;"/>
  <path d="M416,415.36c1.09.35,1.08.77,0,1.25-5.24,2.74-12.4,13.77-20,13.75l11.25-15c2.77-.29,6.12.42,8.75,0Z" style="fill: #231d4c;"/>
  <path d="M146,407.86c2.51.19,2.92,1.02,1.25,2.5-.99-.18-3.74-.4-3.76.62l3.75,1.86c-2.62,1.75-5.06-.08-6.76,0-.84.03-.19,5.37-5.73.02-1.52-2.28,1.9-6.24,5-6.25,1.02-3.65,6.39-2.4,6.25,1.25Z" style="fill: #f9fafc;"/>
  <path d="M378.5,410.36c-9.06-1.65,2.84,10.14-11.24,4.99l3.74-4.98c-1.22-.12-2.54.14-3.75-.01,1.13-4.25,12.32-4.9,11.25,0Z" style="fill: #f9fafc;"/>
  <path d="M278.5,421.61c-7.14,3.66-19.97,14.74-26.25,6.25,3.61-2.58,4.99,1.84,9.27,1.27,5.6-.74,8.37-10.56,16.98-7.52Z" style="fill: #1e1b4e;"/>
  <path d="M386,420.36c1.04,1,1.71,3.5,1.25,5,1.34,1.5,1.97,4.1,0,5-2.71-2.02-5.43-.08-2.48-6.86l-2.51.62c-.42-2.12.74-3.03,2.49-3.76.4-1.1.82-1.1,1.25,0Z" style="fill: #f9fafc;"/>
  <path d="M379.75,406.61c-.36,2.38,4.44,4.98,1.25,6.25-4.17-3.09-4.49-6.73-11.25-5,2.12-2.54,6.89-.81,10-1.25Z" style="fill: #48475b;"/>
  <path d="M224.75,407.86l-5,2.5c-3.75-1.02-8.62,1.54-12.5,1.25-3.53-2.18,15.53-3.13,17.5-3.75Z" style="fill: #4b4b5a;"/>
  <path d="M139.75,406.61c-3.41,1.52-3.72,4.46-5,6.25-.39.54-1.57,1.1-2.5,2.5-.37.79-.79.77-1.25,0,1.57-3,2.7-6.12,5-8.75.56-3.51,2.63-3.35,3.75,0Z" style="fill: #494a52;"/>
  <path d="M388.5,425.36c.64,2.07,1.7,3.82,1.26,6.25,1.55.46,2.85-1.09,3.74-1.25v2.5c-4.56,1.22-4.35-1.08-6.25-2.5.08-.97-.49-7.99,1.25-5Z" style="fill: #5c5d66;"/>
  <path d="M207.25,410.36v1.25c-2.39,3.05-6.24,2.65-10,2.5-3.36-1.43,8.65-3.22,10-3.75Z" style="fill: #5f606c;"/>
  <path d="M127.25,430.36c-3.14,6.19-6.28.46-7.5,0l4.98,1.26c-.6-1.78.97-2.9,1.27-3.76.69.64,1.26,1.55,1.25,2.5Z" style="fill: #686972;"/>
  <path d="M312.25,411.61c-2.97-.19-7.69-.07-11.25,0-2.66-1.28-1.13-1.93,1.25-2.5,2.95.45,7.05,1.59,10,2.5Z" style="fill: #676775;"/>
  <path d="M358.5,424.11c6.66-3.73-3.27,8.08-7.5,0,2.22.74,5.55,1.58,7.5,0Z" style="fill: #686874;"/>
  <path d="M322.25,414.11c-2.1-.35-7.57,1.57-8.75-2.5,2.78.21,6.57.62,8.75,2.5Z" style="fill: #5d5d67;"/>
  <path d="M206,412.86c-1.41,1.85-2.26,4.29-5,3.74l1.27-2.48h-2.51c1.39-.29,3.64-2.35,6.25-1.26Z" style="fill: #fafbfc;"/>
  <path d="M302.25,409.11l-1.25,2.5c-1.46.03-3.89-.31-5,0l1.25-2.5c1.58.21,3.45-.24,5,0Z" style="fill: #3f3f4f;"/>
  <path d="M366,410.36c-.2,1.87-2,3.65-2.5,5-2.88-1.27.71-4.72,1.25-6.25.14.61.65,1.16,1.25,1.25Z" style="fill: #827c97;"/>
  <path d="M331,416.61c1.09.35,1.08.77,0,1.25-2.74-.95-6.53-1.09-7.5-3.75,3,.57,5.19,1.88,7.5,2.5Z" style="fill: #5e5e68;"/>
  <path d="M387.25,420.36c-.35,1.09-.77,1.08-1.25,0-.39.1-.91-.14-1.25,0-.49-.7-.74-1.96-1.25-2.5.15-1.92-.81-4.2,1.24-3.74.12,2.34,1.74,4.19,2.51,6.24Z" style="fill: #70717a;"/>
  <path d="M337.25,417.86c2.64.88,5.9.84,5,3.75-2.52-.41-10.39-3.93-5-3.75Z" style="fill: #8e8e9d;"/>
  <path d="M359.75,425.36c.23-.77-.67-1.35-1.25-1.25l3.75-5c-.8,2.13.53,3.95-2.5,6.25Z" style="fill: #7e7f89;"/>
  <path d="M153.5,420.36c1.15,2.07,4.31,3.52,3.74,6.25l-4.99-5c.44-.33.78-.92,1.25-1.25Z" style="fill: #7a7a88;"/>
  <path d="M151,414.11c-.33-.57-2.31-3.63-2.5-3.75-1.93-1.18-.59-2.12,1.25-2.5.74,1.64,4.02,5,1.25,6.25Z" style="fill: #74718f;"/>
  <path d="M149.75,407.86l-1.25,2.5c-.23-.14-.8.08-1.25,0-.44-.56-.92-2.36-1.25-2.5.28-1.42,1.1-2.27,2.5-2.5.22.58.86,1.63,1.25,2.5Z" style="fill: #1d145c;"/>
  <path d="M343.5,421.61c1.86.21,5.9-1.78,5,2.5-1.98-.45-3.87-.51-5-2.5Z" style="fill: #868791;"/>
  <path d="M197.25,412.86v1.25c-1.68.37-3.33.84-5,1.25-2.85-1.32,3.98-2.06,5-2.5Z" style="fill: #5b5b64;"/>
  <path d="M192.25,414.11v1.25c-2.09.39-4.14,1.31-6.25,1.25-2.94-1.68,5.34-1.99,6.25-2.5Z" style="fill: #504e67;"/>
  <path d="M337.25,417.86l-1.25,1.25c-1.63-.48-3.41-.7-5-1.25v-1.25c1.93.52,4.14.55,6.25,1.25Z" style="fill: #5f5d73;"/>
  <path d="M126,426.61c.91-2.34,1.94-3.69,2.5-5,.23,2.19-.19,4.37-2.5,5Z" style="fill: #444452;"/>
  <path d="M132.25,415.36c-1.2,1.8-.57,4.55-3.75,3.75.8-1.76,1.95-2.69,2.5-3.75h1.25Z" style="fill: #575767;"/>
  <path d="M399.75,390.36c.23.27,4.48.38,3.78,5.01l2.46-1.27-3.74,8.76c-1.37-2.46-2.21-4.96-2.5-7.5-1.93-1.18-1.86-3.82,0-5Z" style="fill: #f9fafc;"/>
  <path d="M416,415.36c3.48-.56,7.6-2.18,11.25-2.49-1.65,3.88-8.38,2.44-11.25,3.74v-1.25Z" style="fill: #575669;"/>
  <path d="M402.25,402.86v1.25c-1.21-.14-2.95-6.85-3.75-8.75.59-3.13,4.6,5.91,3.75,7.5Z" style="fill: #777785;"/>
  <path d="M406,412.86c-1.59-2.47-3-4.58-3.75-7.49h2.49c.94,2.12,1.51,5.19,1.26,7.49Z" style="fill: #63636e;"/>
  <path d="M163.5,187.86c2,.32,10.22,4.82,11.25,6.25,8.76,3.28,7.45,23.05.83,29.26-1.8,1.69-11.64,7.18-13.33,4.49-1.83,1.13-4.75,1.13-8.75,0-5.75,4.38-16.84-4.87-15-12.5-1.08-.42-1.08-.83,0-1.25-3.16-10.12-1.5-17.62,5-22.5-1.46-2.52,3.29-4.18,5-2.5,2.89-4.04,10.52-4.04,15-1.25Z" style="fill: #f7f9fb;"/>
  <path d="M352.25,189.11c-.38,2.43,1.79,3.64,2.5,5l2.88.36c4.66,12.84,6.13,13.63,4.42,2.37-4.34.69-4.35-6.36-3-8.35.45-.67,14.37-1.07,15.71.63,1.46,1.58,1.16,5.63-1.25,5-3.09,8.71-2.83,20.8-.47,29.31l-2.03,3.19c-4.2,2.33-15.71,2.31-15-3.75l-2.6-.75c-4.1-10.98-5.74-12.18-4.89-3.58,11.28,9.11-3.69,14.5-12.51,8.07-3.51-.67-3.57-4.12,0-5,6.34,1.66,3.92-26.01,2.29-27.34-.82-.61-2.52-.02-3.54-.16-.87-1.06-1.15-4.86-.21-5.5,2.21-1.52,14.26-.05,17.71.5Z" style="fill: #f8fafb;"/>
  <path d="M274.75,189.11c1.12.32,1.1.74,0,1.25,1.85-.46,2.68,1.2,2.5,5,4.83,2.14,7.47,7.42,6.25,12.5,1.32-.37,2.17-1.19,2.5-2.5-2.39-1.14-2.39-2.6,0-3.75,1.05-9.91-11.02-8.35-5-12.5,2.44-1.08,12.84-2.11,15.46-1.67,1.43,1.31.67,4.76.79,6.67-2.13.86-3.6,2.13-4.41,3.8l.14,28.32c-.9,1.93-5.06,2.43-5.73.38-4.41,1.54-9.68.98-10-5-4.52.88-7.35-7.82-5-11.25-4.64-.97-5.9,8.93-2.5,11.25,7.3-2.21,3.57,9.03-2.5,5-1.22.27-10.06,1.85-10.46,1.48-1.37-1.59-2.52-6.48.46-6.48l1.83-2.41s.64-7.95,1.92-23.84c-11.26,3.18-8.17-11.98,13.75-6.25Z" style="fill: #f7f9fb;"/>
  <path d="M109.75,189.11c5.92-4.59,16.62-.09,23.75-1.25,1.83-1.72,2.54-.95,1.25,1.25,2.14-.08,1.11,3.44,0,5,2.45-.2,1.95,1.51,0,2.5,3.98-.6,2.67,6.57,0,7.5-5.61,7.32-9.51-.46-11.15-6.83-9.24-7.39-7.85,19.2-7.6,21.83,1.81-1.54,2.49-.84,1.25,1.25l5,2.5c-.67-2.12-.69-2.42,1.25-1.25,1.47-1.86,2.72-2.28,3.75-1.25,1.46-3.49,3.48-3.4,5,0,2.44,3.79-3.85,9.45-7.5,6.25-4.52,1-9.22.93-13.75,0-2.51,2.36-10.77-4.69-10-8.75-2.03-.33-1.88-3.22-1.25-5-.78-3.38-1.51-6.71,0-10-.74-1.44-.55-2.28,1.25-2.5.44-1.28.51-2.35,1.25-3.75-1.36-4.07,3.81-8.07,7.5-7.5Z" style="fill: #f9fafb;"/>
  <path d="M177.25,189.11c1.68-2.24,21.73-1.35,22.5-.34.64.84.69,9.35-3.14,8.27l2.87,10.61c.43-4.73,2.18-7.58,5.26-8.54-3.28-18.15,21.9-9.45,8.75-5,1.99,2.55.07,5.25-2.5,6.25,1.57,1.23.58,5.36-1.25,6.25,1.29,1.82.93,3.85-1.08,6.09.12,5.48-1.18,9.29-3.92,11.41.73.66,1.08,1.48,1.31,2.41.26,1.06-13.36,1.25-15.06.09l-3.44-2.41c-1.17-11.37-4.51-20.87-10.01-28.49-.39-1.96-.22-4.71-.31-6.6Z" style="fill: #f7fafb;"/>
  <path d="M306,204.11c.9-5.08,1.76-10.02,3.91-14.84l13.54-.11c2.32,6.25,3.83,34.42,12.54,32.45-.4.67.28,3.76,0,5-4.17,4-16.85,3.61-21.25,0-3.88-1.57-2.51-7.29,2.33-7.82-2.25-.53-3.86-1.67-4.83-3.43l-5-1.25c-1.83-3.58-4.17-6.15-1.25-10Z" style="fill: #f8fafc;"/>
  <path d="M239.75,150.36c1.12.23,1.07.66,0,1.25.85,3.59,2.4,11.58-2.5,8.75-.63-.51-1.05-1.34-1.25-2.5-2.16,3.24-3.3,2.56-3.75-1.25-.31,6.11-.73,11.94-1.25,17.5,2.2.47,3.87,1.31,5,2.5,0,.83,0,1.67,0,2.5-3.21,0-27.5,4.37-20-3.75.63-.3,2.52.3,3.77-.56,2.69-1.84.56-15.55,1.22-19.44-2.21-.67-2.57.48-3.74,1.24-.56,2.1-1.39,3.76-2.5,5-1.25-.37-3.51.28-5.01,0-1.18-3.82,1.1-8.44,1.26-11.26,9.58-.4,19.16-.4,28.75,0Z" style="fill: #f5f5f9;"/>
  <path d="M191,226.61l-4.96,2.94c-4.49-7.56-14.1,1.3-20.43,1.03-1.55,3.48-6.97-2.07-3.35-2.71,16.42-1.25,19.35-21.97,12.5-33.75,11.55-5.89,12.6,25.62,16.25,32.5Z" style="fill: #151152;"/>
  <path d="M297.25,170.36l-1.25,3.75c2.01,6.52-4.41,3.78-5,6.25-.43,3.42-6.93,3.68-7.5,0-2.04.77-5.23.83-6.25-1.25-2.29.94-2.22-.26-1.25-2.5-5.32-.2-6.29-12.19-1.25-12.5.98-2.92,1.93-3.99,5.9-4.71,10.22-1.87,15.04.64,16.6,10.96Z" style="fill: #f0f2f5;"/>
  <path d="M252.25,150.36c3.27-.16,4.52,3.17,3.75,10,2.43.36,2.3,1.35,0,2.5,2.15,1,2.52,3.69,1.08,8.09.67,3.07,1.09,6.16,1.29,9.27l-3.62.14c-.7,2.39-1.8,2.41-2.5,0-2.8,1.76-10.51,3.63-9.48-.73-3.2,1.32,1.33-10.15,3.23-4.27l-1.67-.58c1.04-5.78,2.02-12.33-.71-17.64l2.37-1.78c-3.21,5.59-7.97-4.98-1.25-5,2.49-.1,5.01.07,7.5,0Z" style="fill: #edefef;"/>
  <path d="M117.25,176.61c.78.12,1.69-.11,2.5-.01v5.02c14.34-1.18.15,3.92,16.83,2.41l.72,3.82c1.75-1.26,3.69.11,4.96,0,1.03-2.56,3.49-4.46,5-1.25,7.18-1.54-.8,4.17-3.75,5-.39.93-1.41,2.39-2.31,1.74-3.18,6.86-6.95,5.82-6.44.76,1.65-2.19.85-4.73-1.25-6.25,0,0-4.82.58-4.82.58-11.1-3.26-19.99-1.35-26.43,8.17l-1.87-5.01-1.86,3.75c-2.17-6.03-.65-12.66,4.36-5,3.32-1.47,3.78-8.1,4.58-8.58.86-.52,2.68.11,3.86-.2s.8-2.16,1.88-2.44c3.51-.92,3.79,1.83,4.07-2.52-.78-.12-1.69.11-2.5,0v-11.26c3.66,1.51,2.71,7.94,2.5,11.25Z" style="fill: #161059;"/>
  <path d="M414.75,184.11c.83.03,1.67-.06,2.5,0,.72,6.49-.4,3.96-2.5,5,.48,2.01-.26,4-1.25,5-.08,1.94.33,9.63,0,10.01-.23.26-5.94.64-6.25-1.26,2.64-2.68,3.41-6.43,2.32-11.26h-31.73s-1.84-2.49-1.84-2.49c-.54.56-.95.14-1.25-1.25-1.07.88-4.91.53-5-1.25-.69-3.79,1.91-2.4,4.33-2.5,12.89-.51,27.8-.54,40.67,0Z" style="fill: #170f5d;"/>
  <path d="M268.5,160.36c.11.23,1.16,4.41,1.25,5,1.82,1.26,2.57,3.8,2.26,7.62,2.2,3.14,2.27,5.18.24,6.13-1.8.58-13.89,1.38-14.42.88-.7-.66-1.49-7.14,1.12-6.67.64-4.6-.2-7.05-2.96-10.46.06-.8.05-1.7,0-2.5,3.24-3.15,9.32-3.57,12.5,0Z" style="fill: #f0f2f7;"/>
  <path d="M244.75,150.36c-6.67,3.75,1.25,4.56,1.25,5v20c0,.34-4.09-.97-2.49,5,3.09-1.72,5.77-.31,8.74,0,.76,1.94,4.5,2.86,6.75,3.35,2.76-1.95,9.62.37,9.65,4.24-5.45.01-10.49.64-15.11,1.89-2.01-1.45-4.94-2.11-8.78-1.97l-6.24-6.88c1.17-2.03,3.75,2.94,3.75-1.23,0-1.33-3.75-.38-5-.65l5-1.24c-2.99-5.86,2.37-5.71,2.59-7.1.4-2.58-1.3-8.33-.11-11.64l-1.24,5c-2.03.86-3.19-1.14-3.75-1.26-.42-.41,0-.82,1.25-1.25l-1.56-.52c2.42-2.51.42-7.42.31-10.73,1.66-.06,3.34.07,5,0Z" style="fill: #1a1555;"/>
  <path d="M142.25,187.86c-1.41-2.59,5.38-8.67,6.8-8.84,2.58-.3,12.74-.41,14.86.1.92.22.61,2.13,1.79,2.45,3.32.89,4.96-.94,5.29,5.04-7.73.38-15.15-1.71-22.8,1.19l-.95-1.19c-1.67.29-4.16,1.18-5,1.25Z" style="fill: #160f5c;"/>
  <path d="M182.25,186.61c1.85-2.04,8.21-2.1,10,0,3.96.32,5.17,1.36,8.75,1.25,1.09.35,1.08.77,0,1.25,4.18,2.73,5.6,4.5,3.75,10-1.86,3.01-3.51,16.39-6.24,16.24l-5.03-20.6,5.03-.64v-4.99s-21.26,0-21.26,0c-.17-.8-1.69-2.11-1.25-2.49,2.55,1.25,5.02.04,6.25-.01Z" style="fill: #191551;"/>
  <path d="M369.75,186.61c.97.07,4.35.85,5,1.25v1.25h-15.01c-.93,6.76,1.02,3.99,3.73,5.6s.64,14.4,1.26,18.15c-5.23-4.45-6.96-12.96-9.99-18.75,4.67.17,3.08-4.68,3.76-7.51,2.93,2.05,8.4-.11,11.24,0Z" style="fill: #241f54;"/>
  <path d="M304.75,209.11l1.13.29c-.18,6.09.28,7.66,1.37,4.71,2.45-2.47,4.12,1.04,5,1.25l-2.36,3.38c13.88,10.54-20.97,13.06-13.89,2.87.04-2.01,1.77-1.81,2.5,0,3.54-1.28,3.89-14.71,7.5-17.5-.3,1.68-1.17,4.11-1.25,5Z" style="fill: #f3f6f7;"/>
  <path d="M277.25,179.11c3.09,3.34,10.1.16,13.75,1.25.85.32,2.53,6.02,4.37,0,7.37,8.64-8.41,9.55-13.12,6.25-2.68,5.28-11.01-.05-10-5,.09-4.58,1.34-6.25,3.75-5,.35.85.85,1.66,1.25,2.5Z" style="fill: #19125e;"/>
  <path d="M207.25,187.86c2.75-1.31,5.76-1.48,8.75-1.25.23-1.11.66-1.07,1.25,0,1.59-2.05,7.83-1.45,8.75,1.25.23-1.12.66-1.07,1.25,0,8.31.16,19.8.01,27.36-1.04.58.52-.75,2.8,1.38,2.28-1.42-4.74,8.61,1.11,12.51-2.49.3-1.14.72-1.12,1.25,0,4.16-.05,5.83.78,5,2.5-6.48.39-12.73-1.15-18.75,1.25-.2,3.75-1.29,1.61-1.19,1.76,6.3,14.09-8.16,15.28-5.05-.58-10.9.43-21.76-.54-32.5-2.43-.35,1.09-.77,1.08-1.25,0-2.91,0-5.84,0-8.75,0-.21,4.46-7.07,2.88-6.25-1.25,2.14-.07,4.47.07,6.25,0Z" style="fill: #262254;"/>
  <path d="M297.25,194.11c.27,2.66-.55,8-2.5,2.5-3.39,2.05-.7,17.83-1.25,22.5,2.57-.55,2.57,1.95,0,7.5,3.36,4.88-11.2,5.67-8.75,1.25.13-.65.96-1.06,2.5-1.25,1.27-.21,4.6.35,5.01,0,1.13-.94-.88-24.81-.02-29.39.59-3.17,2.23-3.32,5.01-3.12Z" style="fill: #1d1950;"/>
  <path d="M274.75,164.11c-2.2,6.56-1.05,6.92,1.25,12.5l-3.75,5c.03,1.74-1.22,1.74-3.75,0-1.52,4.21-7.23,2.83-8.75,0l.05-1.52c4.33-.05,8.48-.38,12.45-.98.22-1.9-2.06-3.57-2.46-5.67-.5-2.59.35-5.61-.04-8.08,1.66-3.26,1.75-2.21,5-1.25Z" style="fill: #1f1c50;"/>
  <path d="M239.75,150.36c-9.5,1.7-19.27,1.01-28.75,0,0-.1-1.55-.31-1.25-1.23,6.07,1.24,27.26-2.5,30,1.23Z" style="fill: #191446;"/>
  <path d="M297.25,170.36c.15.83.32,6.47-1.25,3.75-4.62-4.02-4.66.87-6.56,1.66-4.15,1.72-7.25-1.18-7.18-5.41h14.99Z" style="fill: #27234f;"/>
  <path d="M216,175.36c-.1,4.09-.9,3.63,3.07,3.75,5.63.18,11.31-.13,16.93,0,0,.84.01,1.67,0,2.5-3.86-.41-7.96-1.11-11.84-1.35-4.32-.27-10.38,2.97-11.91-3.02.09-1.62,1.52.51,2.25.27.54-.18.98-1.9,1.51-2.15Z" style="fill: #1a1555;"/>
  <path d="M147.25,186.61c4.58-.79,7.64-3.45,11.67-2.48,1.21.29-.62,2.17,4.58,2.48v1.25c-4.44-.7-10.66,0-15,1.25l-1.25-2.5Z" style="fill: #201d4c;"/>
  <path d="M216,186.61c1.23-2.98-4.66-2.29-2.49-5,.48-.6,1.59,1.25,1.86,1.25h19.38c-.31,3.17-8.65.32-7.5,5-.42,0-.83,0-1.25,0-3.29-3.24-6.35-1.9-10-1.25Z" style="fill: #1a1555;"/>
  <path d="M297.25,189.11c-.23-.19-25.73,1.1-15-2.5,5.07.37,10.33,1.25,15-1.25.13,1.22-.07,2.51,0,3.75Z" style="fill: #262250;"/>
  <path d="M236,157.86c.34,1.98,1.17,3.65,2.5,5,.43,3.22-3.74,5.11-4.54,1.24h-1.71c-.95-2.24-.95-4.74,0-7.49,1,.81,3.31.95,3.75,1.25Z" style="fill: #1a1555;"/>
  <path d="M352.25,189.11c-5.18.25-10.49-.35-15.67,0-3.57.24-1.3,3.09-1.83,5.01-.55-.08-.97,0-1.15-.68-.03-1.24-.37-5.32-.1-5.57.71-.63,16.87-1.27,18.76,1.25Z" style="fill: #241f54;"/>
  <path d="M252.25,150.36c-1.03-.91-2.79-.96-2.49-2.49l7.51,1.27c-1.67,2.8.17,5.65-.01,8.72.98.82.56,1.65-1.25,2.5-3.1-3.49.81-6.88-3.75-10Z" style="fill: #1a1555;"/>
  <path d="M194.75,184.11c1.09.35,1.08.77,0,1.25-.87.3-2.24-.21-2.5,1.25-3.09-.25-6.85-.12-10,0v-2.5s12.5,0,12.5,0Z" style="fill: #170f63;"/>
  <path d="M268.5,160.36c-4.51-1.85-7.99-1.29-12.5,0-.51-.45,1.19-1.42,1.25-2.5,4.72-1.48,8.82-2.78,11.25,2.5Z" style="fill: #1f1c50;"/>
  <path d="M232.25,164.11c.09,3.38,1,6.61,0,10h-1.25c.67-5.55-1.54-12.85,1.25-17.5.05,2.49-.07,5.01,0,7.5Z" style="fill: #1d1945;"/>
  <path d="M194.75,184.11l-2.5-4.99c3.7-.48,4.97.55,5.04,4.34.06,3.26-.91,1.33-2.54,1.89v-1.25Z" style="fill: #191551;"/>
  <path d="M99.75,202.86c-.22-.03-.49-1.14-1.1-1.13l-1.39,2.37v-7.49s3.74,3.74,3.74,3.74c-.07.95.4,2.81-1.25,2.5Z" style="fill: #161059;"/>
  <path d="M293.5,219.11c3.15.16,5.77-1.25,5,2.5-.66.24-1.97-.26-2.5,0-.35,3.05-1.19,4.72-2.5,5v-7.5Z" style="fill: #141143;"/>
  <path d="M217.25,156.61v7.49s-1.23,0-1.23,0c.03-.83-.58-2.28-1.27-2.49-.33-2.94.35-3.6,2.5-5Z" style="fill: #191b3d;"/>
  <path d="M232.25,174.11l7.49,1.26v1.23c-2.7.26-7.04-.19-8.74-2.49h1.25Z" style="fill: #1a1555;"/>
  <path d="M101,217.86c-.35,1.09-.77,1.08-1.25,0-.39-.1-.89.13-1.25,0l.23-4.13,1.02-.87c.21.92,1.14,4.77,1.25,5Z" style="fill: #1e1851;"/>
  <path d="M297.25,196.61c-.05,2.84,1.23,5.86-2.49,4.99v-4.99c.48-.24,1.75.16,2.49,0Z" style="fill: #160969;"/>
  <path d="M297.25,174.11c-.26,5.09,1.82,5.32-3.75,5l2.5-5h1.25Z" style="fill: #19163e;"/>
  <path d="M214.75,186.61c-.61,0-4.72,1.14-7.5,1.25,1.75-1.77,5.39-2.52,7.5-1.25Z" style="fill: #191551;"/>
  <path d="M237.25,160.36c7.18.86,2.56,3.18-1.25,2.51v-5.01c1.36.94.99,2.21,1.25,2.5Z" style="fill: #231d67;"/>
  <path d="M243.5,170.34c-.13.15-3.61,1.41-3.74,1.26-1.85-2.21,1.79-2.56,3.12-3.74,1.07-.17.73,2.35.62,2.48Z" style="fill: #1a1555;"/>
  <path d="M297.25,156.62c-.78,1.65-.78,2.08,0,3.73h-2.49s0-3.73,0-3.73h2.49Z" style="fill: #1e116e;"/>
  <path d="M236,294.11c2.73-2.76,4.23-1.14,3.75,2.5,1.72-1.78,2.43-1,1.25,1.25,1.66-.15,3.74.69,6.25,2.5,2.08-.01,4.94.96,6.25,2.5,2.78-.45,6.2,1.01,8.75,2.5.34-1.08.76-1.06,1.25,0,2.15,1.29,4.24,2.54,6.25,3.75,1.51-.69,3.94-.17,5,1.25,1.83-.68,4.88.49,5,2.5,7.48,4.87,7.81,11.92-2.43,12.85-1.38,4.26-5.39,11.88-10.07,8.4-2.24,1.55-4.32,3.21-6.25,5-.29,3.64-1.31,3.97-3.75,1.25l-2.61,2.86c-2.02-1.89-4.76-2.48-7.39-2.86-.31,1.09-.73,1.06-1.25,0-2.34-2.39-5.26-4.05-8.75-5-2.07,2.66-2.98,2.02-2.5-1.25-1.76-.93-3.42-1.35-5-1.25-2.38,2.87-8.71-.02-8.75-3.75-1.47-2.28-5.14-3.85-7.5-3.75-3.11,2.33-5.57,1.27-6.25-2.5-2.06-1.39-4.14-2.64-6.25-3.75-4.24.56-4.88-4.59-8.75-5-1.71,1.55-4.52.18-6.25-1.25-1.06,3.01-4.08,1.78-3.75-1.25,3.65-2.92,18.61-7.23,24.6-9.77,4.99-2.12,10.52-6.11,15.4-7.73,2.24-2.71,11.54-2.78,13.75,0Z" style="fill: #fbfdfe;"/>
  <path d="M289.75,294.11c16.69,4.51,33.91,9.01,51.12,12.89,2.82,3.02,3.21,8.56-2.37,5.86-.88,2.46-5.11,3.83-6.25,1.25-6.29-.28-11.93-.67-17.5,2.5,3.18,1.92,1.06,5.53-2.5,5,.09,3.38-3.31,7.64-3.58,3.29l-5.17-4.54c-.3,1.08-.72,1.05-1.25,0-2.68-.47-4.35-1.3-5-2.5-2.65.54-5.57-.71-8.75-3.75-2.34,3-6.88,2.73-7.5-1.25-1.9-1.22-3.57-2.47-5-3.75-1.94.71-4.69.03-6.25-1.25-1.89.64-4.52-1.12-6.25-2.5-3.53-.26-6.8-2.66-10-3.75-2.25.26-4.8-.9-6.25-2.5-2.79.88-6.12-1.09-3.75-3.75-.41-10.61,14.68-8.1,21.93-5.3,8.4.21,16.52,1.37,24.32,4.05Z" style="fill: #fafcfd;"/>
  <path d="M303.5,235.36c1.04-4.29,18.04-3.13,20.45-1.06,1.72,4.72,3,9.56,3.85,14.54.82-.88,1.99-1.07,3.2-.98-.37-3.74-.98-11.36,2.5-12.5,5.71-1.06,11.79-1.08,17.5,0,4.65.9,3.12,5.99-2,5.59-1.04,2.99-1.63,6.54-1.75,10.66-3.64.5-3.65,4.25,0,5,.35,4.4.76,8.99,1.25,13.75,1.83-1.31,3.08-.9,3.75,1.25.84.6.87,6.47.64,6.74-.58.7-15.71.45-18.14-.49-3.24-4.62,2.64-11.08,3.75-6.25,1.08-7.12,1.33-17.77,0-22.5-.51,3.21-1.34,5.71-2.5,7.5.33,4.84.64,10.95-3.75,13.75l-2.79-.45c-1.74-6.78-3.05-4-2.22,1.2,5.87.88,3.79,9.04-1.81,7.41-.27,2.77-3.77.25-5.16-1.66-.69-.95-.33-9.65.72-9l-2.5-10c-2.17-.61-2.63,2.1-1.4,8.15-1.32,1.46-.86,3.32,1.4,5.6,7.45,8.39-11.25,8.66-15,5-.06-.99-.22-3.05,0-3.75,9.95,3.42,1.61-5.56,4.54-17.41,3.14-14.5-5.58-10.77-4.54-18.84-1.09-.35-1.08-.77,0-1.25Z" style="fill: #f9fafc;"/>
  <path d="M301,235.36c1.96.03.58,16.65.02,17.38-4.24,5.5-8.12-2.55-7.52-7.38-1.02-1.58-2.14-2.76-3.75-3.75-.54,3.25-6.03,4.52-7.5,1.25-1.73-.3.25,8.91,3.75,6.25-4.44-7.44,8.78-6.75,5.8,1.85-.87,9.62.11,13.17,2.95,10.65-1.92-2.86.56-4.41,3.66-4.03,4.86.59,6.42,9.21,2.59,12.78-.07,2.49.05,5.01,0,7.5-6.15.06-53.13,5.22-32.82-8.78l.59-16.13c3.58-1.65,1.91-9.15-1.52-11.34-3.8,1.1-5.12-3.65-1.25-5-1.69-2.24-1.02-2.9,1.25-1.25,9.6-4.03,24.16-2.55,33.75,0Z" style="fill: #f6f8fb;"/>
  <path d="M132.25,239.11c-3.05-7.77,12.24-7.97,15.68-4.84,1.26,1.14,6,21.99,6.37,25.2l-2.06,2.14,2.57,8.25c3.46-3.23,9.51,6.34,3.68,8-6.48,1.14-13.48,1.14-20,0-2.14-2.02.07-2.77,0-5,1.37-2.16,2.62-4.24,3.75-6.25-.7-.96-1.77-.79-3.04-.03-.94-3.33-5.67-1.36-6.96.03,1.31,1.11,2.14,2.77,2.5,5,.91.68.55,6.25-.01,6.89-.47.54-13.7.37-14.2-.13-1.45-1.48-.59-10.55,2.96-8.01,5.33-7.91,5.98-21.98,8.75-31.25Z" style="fill: #f7f9fa;"/>
  <path d="M351,235.36c6.42-.77,13.11-.97,19.6-.63,1.34.07,2.96,7.01.4,6.88.19,1.6-.23,3.27-1.25,5,1.67,1.03,3.33,1.45,5,1.25-2.37-1.69-2.78-4.65,0-6.25-2.98-.24-4.1-5.45-1.25-6.25,2.05-.7,6.66-3.58,8.37-.61,3.41-2.01,5.62-1.81,6.63.61.42,6.76-2.22,4.65-3.79,7.15-4.48,7.1-10.38,20.03-8.79,28.36.27,1.4,6.54-.43,5.08,7-2.85,1.01-19.36,1.11-20.29.14-.23-.24-.48-5.78.29-6.39.05-2.15.89-2.15,2.5,0-.43-9.83-3.5-19.32-9.41-27.26l.66-2.74-5.06,1.3c-.88,8.82-1.43,17.85.47,26.61l-1.65.84c-2.3-3.28-1.23-9.44-1.25-13.75-2.45-1.58-2.45-3.42,0-5,.05-4.15-.05-8.34.01-12.5l3.74,1.24v-4.99Z" style="fill: #f8f9fb;"/>
  <path d="M376,189.11h36.26c-.2,3.93.27,7.98,0,11.92-.24,3.57-3.09,1.3-5.01,1.83-.33-2.05.22-6.77-2.5-7.5l-3.26,2.17c-.07,7.81.26,15.38.98,22.72l-1.47,1.36c15.3,6.15-15.23,7.61-18.08,5.6-2.29-2.64,1.74-8.47,5.58-6.85-1.85-3.81-1.99-7.24-.42-10.27,1.08-4-4.05-17.7-3.37-8.93-2.1,2.69-5.7,5.73-7.46,1.7-3.09,1.33-3.4.07-1.25-2.5-1.97-3.74-1.06-7.34,0-11.25Z" style="fill: #f7f8fa;"/>
  <path d="M153.5,227.86c8.53,3.45,14.4.97,21.67.98,1.35-3.78,7.23-3.17,9.13.02,4.75-1.67,10.42-2.17,17.01-1.49,5.82-1.69,5.63,1.78.93,4.23,3.61.86,3.53,2.82,0,3.75,3.86.84,2.69,9.43-1.25,10-1.98.29-3.46-.18-3.76-2.15,1.05,4.72-.47,14.56-4.99,8.4-.19-4.92-.6-9.92-1.25-15-3.16-.84-4.1-.38-6.42,1.84-8.15-2.98-17.41-3.76-21.47,5.76l-3.36-.1c-2.39,5.87-2.82,14.43-1.31,25.69-3.09,1.78-5.15-.95-6.19-8.19-.98-3.74-5.34-25.26-6.36-26.14-.91-.79-9.35.34-11.62-.18-.36.07-1.86,3.27-2.02,3.82-.09-16.81-21.02-4.82-25.48-11.98-3.95-2.28-7.02-3.64-7.02-9.27h1.25c5.61,11.09,24.44,13.59,31.25,2.5-3.69-6.01,5.68-2.17,2.5-1.25,3.76.1-.91,7.08,1.21.75.14-.36.66-.58,1.29-.75-2.14-.92-1.29-4.27,1.25-3.75,3.76,8.61,6.93,9.63,15,12.5Z" style="fill: #151152;"/>
  <path d="M288.5,314.11c3.49,1.75,5.99,3.83,7.5,6.25,1.84-2.6,5.07.02,7.5,0,7.52,5.48,8.36,8.39,2.5,8.75-3.15-.09-19.24,7.07-23.75,8.75l-.08,1.32c-8.39,2.02-10.9,4.95-17.42,6.18-.04,1.73-2.25,2.09-3.75,1.25-7.38,6.41-9.67-5.51-3.75-6.25,4.27-.51,6.27-4.2,10-6.25,8.97-5.15,5.62-7.7,8.68-10.65.32-.31,6.32.03,7.57-3.73-3.38-.79-1.38-2.26-1.96-3.15-1.08-1.66-4.71-.11-1.79-3.72.34-1.08.76-1.06,1.25,0,1.76.54,4.99.57,7.5,1.25Z" style="fill: #f8f9fa;"/>
  <path d="M227.25,279.11c3.58-1,9.34-1.61,12.18.76,6.56.3,14.33-1.66,19.88-4.93,6.53,5.3,16.6,7.84,22.93,4.17,5-2.01,11.5.96,16.26,2.5l-.02,3.74c-5.63-1.85-13.36-1.66-19.41-1.26-4.19.19-.28,4.83-2.55,6.44-16.5.73-25.99-10.74-36.79,6.07-6.07-5.12-14.1-5.14-22.49-5.01v-2.49c2.69,1.21,4.69.12,6.24,0,2.13-2.12.46-3.79-5-5v-2.5s7.49,1.25,7.49,1.25l-1.24-3.75c.71-2.39,1.79-2.39,2.5,0Z" style="fill: #150e58;"/>
  <path d="M222.25,371.61c-1.72-5.69,9.7.24,15.3-4.62,1.72-.98,37.67-.98,39.39,0,.34.2.21,1.9,1.13,2.12,4,.96,10.55-.91,14.61,0,.95.22.88,3.95,4.57,2.49l-1.27-2.48c8.88-1.14,11.29,2.03,19.59,5.81,6.29,2.25,14.91,2.81,20.85,4.19.94.22.69,2.26,1.65,2.49,3.22.76,8.15-.52,11.67.02l-2.49,2.48c1.87.09,3.78-.09,5.67.01,2.41.13,5.02-1.32,4.33,2.5-17.34-1.21-34.94-8.95-52.22-12.16-28.68-5.83-54.44-3.42-82.78-2.84Z" style="fill: #18144b;"/>
  <path d="M186,312.86c4.95,2.77,10.79,3.88,15,7.5,4.61-.14,7.98,4.05,12.5,5,2.38.04,6.21,1.37,7.5,3.75,7.66,3.9,18.56,5.03,25,11.25,6.96-.05,11.6,2.65,7.5,7.5.26,1.94-.58,1.94-2.5,0-.56,2.51-2.71,2.14-3.75,0-.41-.06-.84.07-1.25,0-4.19-5.28-13.34-4.57-18.75-8.75-1.46-.07-3.7-.76-3.75-2.5-2.41-.78-4.91-2.03-7.5-3.75-1.46,1.3-2.33.69-2.5-1.25-2.19.86-4.79-1.97-6.25-3.75-3.57.73-5.65-.11-6.25-2.5-1.46,1.57-3.28.77-3.75-1.25-3-1.1-5.5-2.35-7.5-3.75-4.02,1.3-14.88-5.18-7.5-8.75,1.15.74,2.46.91,3.75,1.25Z" style="fill: #eeeff6;"/>
  <path d="M308.5,356.61c7.69,2.1,16.21,3.32,23.75,6.25,1.82-.52,4.81-.16,6.25,1.25,3.66.99,7.61,1.37,11.25,2.5,2.99,3.36,6.62,2.08,10,3.75,1.23,1.34,3.06,2.7,5,2.5,2.44,3.21,12.62,12.38,6.25,15,.6-4.74-6.13-9.61-2.49-2.51-.78.16-1.92-.21-2.51,0,4.25-16.78-69.64-20.72-62.5-31.25,2.15-.03,3.41,1.71,5,2.5Z" style="fill: #ededf7;"/>
  <path d="M208.5,356.61c1.79-1.66,2.51-.93,1.25,1.25-15.71,11.89-52.77,6.62-61.25,27.5-.97-.68-7.85-.88-5-2.5-.06-3.27,3.06-7.53,6.25-7.5.86-1.61,2.52-3.27,5-5,.2-.05,1.28.76,3.75,0,.59-1.76,3.18-2.85,5-2.5,1.23-1.34,4.48-1.83,6.25-1.25,1.38-1.43,4.22-2.87,6.25-2.5,1.97-1.36,5.29-1.98,7.5-1.25,4.31-3.09,9.85-2.77,15-3.75,1.53-1.54,4.37-1.96,6.25-1.25-.02-1.5,2.78-2.74,3.75-1.25Z" style="fill: #eeedf8;"/>
  <path d="M376,200.36c.39.83,1.04,1.95,1.25,2.5,3.24,2.25,6.28,1.98,6.4-2.58,5.82-2.14,6.18,13.81,1.1,16.33-.76,2.76-7.33,4.07-10,5,.41,1.18-2.27,2.1-2.59,1.81-1.51.6-1.52-38.72,3.84-23.06Z" style="fill: #140e57;"/>
  <path d="M159.75,244.11l2.18,1.8c-2.99,15.26-1.88,33.22,18.29,31.38,3.19-4.01,6.37-6.32,9.53-6.93,1.76-1.66,2.4-.96,1.25,1.25,2.63,1.72,1.67,5.49-1.25,6.25-4.37.48-6.29,3.38-7.17,3.68-2.14.72-16.14.88-17.58-.16-.79-.57-1.22-3.55-1.51-4.76-3.42-.55,1.92,5.08-4.99,1.24,1.82-8.31-2.78-5.28-4.4-7.45-1.19-1.6-1.26-6.53-1.85-8.8l3.74,8.74c2.43-8.2.87-17.03,1.2-25.51.22-1.52,2.17-.43,2.56-.73Z" style="fill: #1c1a49;"/>
  <path d="M303.5,235.36c.52,8.26,1.61,16.29,1.62,24.69,3.17,2.97.08,10.35-4.12,10.31.17-6.17,2.16-12.15-5.42-9.76-5.4,9.59-4.03-7.86-3.43-13.16-1.82-.58-1.37-1.27,1.36-2.07,7.42,17.7,8.56-3.65,7.5-10,.71-2.39,1.79-2.39,2.5,0Z" style="fill: #1e1b53;"/>
  <path d="M239.75,296.61l.81-3.68c2.86-1.08,1.61-5.09,5.05-6.1,2.07-.61,16.27-.6,17.59.15.34.2.21,1.89,1.13,2.12,2.5.6,12.21-.62,12.92,0,.12.11-.53,2.19.8,2.53,3.55.9,9.92-2.16,11.7,2.47-11.27-2.39-24.14-2.49-35.63-5.11-6.04.14-7.25,2.24-10.62,6.36,2.14,4.65-1.45,3.64-3.75,1.25Z" style="fill: #1c194d;"/>
  <path d="M304.75,241.61c4.45-.46,4.99,28.49,1.25,27.5l-1.23-1.24c.21,2.01-.41,2.98-2.52,2.49l3.75-6.26c.45-1.94-1.72-.91-2.54-2.06-1.38-1.93-2.01-22.42.05-25.43,1.33,1.47.83,3.55,1.25,5Z" style="fill: #1d185b;"/>
  <path d="M194.75,279.11c-1.23,4.52,6.59,2.26,7.26,2.82.21.17,2.95,4.5,2.74,4.68-4.16,1.07-5.45-3.2-8.13-2.52-1.49,5.69-9.97.45-14.37,2.52-1.76-6.15,5.13-3.58,7.2-5.36.64-.55.18-2.04.3-2.14.52-1.21,3.98-1.11,5,0Z" style="fill: #150e58;"/>
  <path d="M388.5,220.36c-1.54.9-2.08.44-1.25-1.25-.41-1.8,1.01-3.04-2.5-2.5-1.19-9.24,5.12-.28,1.89-13.77-1.24-3.67-1.49-.29-2,.22-1.49,1.51-3.35,3.19-5.51,3.57-3.3.59-1.33-2.3-1.89-3.78,11.11,1.52-1.82-5.76,11.24-8.75-1.05,7.69,1.47,19.12.01,26.25Z" style="fill: #181646;"/>
  <path d="M374.75,224.11c4.37.49,5.21,4.11,8.74,5.02-4.33,4.42-3.94,6.62-11.24,4.98-.3,1.13-.72,1.1-1.25,0-2.4-.89-5.23-2.89-2.5-5-1.26-1.15-.43-1.99,2.5-2.5,1.02-5.21,2.27-6.04,3.75-2.5Z" style="fill: #140e57;"/>
  <path d="M179.75,315.36c8.22,2.44,12.9,8.11,21.25,10,9.26,8.67-22.8-7.86-25-7.52-2.12-2.53,2.91-2.65,3.75-2.48Z" style="fill: #bbb7e0;"/>
  <path d="M218.5,284.11c6.19.03,12.51-.18,18.75.01-3.25,5.21-8.73,4.58-13.75,4.99l-1.27-3.76c-1.19.34-2.52,1.25-3.73,1.26-2.4-.86-2.81-1.69-1.25-2.5.23.11.83,0,1.25,0Z" style="fill: #130e4a;"/>
  <path d="M341,316.61c-8.68,4.84-21.66,6.26-27.5,13.75-1-.37-1.83-1.2-2.5-2.5-4.71,2.59-1.79-5.64,1.25-1.25,5.58-6.43,17.72-10.8,26.25-11.25,1.73-3.05,3.19-2.07,2.5,1.25Z" style="fill: #3b3a5f;"/>
  <path d="M309.75,299.11c3.61.35,7.58-.27,11.24.01l-2.49,2.48,11.24.02-3.74,2.48c4.74,1.02,20.47-3.07,18.76,5.01l3.74-2.48c.26.26-1.25,2.45-1.25,3.74-.98,3.03-5.86,2.93-5-1.25-10.86-3-22.25-5.32-32.5-10Z" style="fill: #1d194c;"/>
  <path d="M329.75,277.86l-.66-3.77-4.33.03c.41-6.29-2.62-10.22,4.98-11.26l2.51,7.5c1.85.7,1.83,1.73,0,2.5-.57.48-.81,6.98-2.5,5Z" style="fill: #f8f8f2;"/>
  <path d="M336,256.61c3.03-1.03,3.5,15.21-1.25,15-.2,2.04.14,4.2,0,6.25-1.53-1.71-.96-3.6-2.5-5-.05-5.6,2.53-10.86,3.75-16.25Z" style="fill: #1d1858;"/>
  <path d="M381,231.61c.23.24-.54,2.52.62,2.53,2.28.35,3.26-3.18,4.96-3.36,3.82-.41,6.86,3.14,5.66,7.08l-3.13-4.98c-3.69-.36-.69,1.26-.61,2.49-4.74-.45-10.43.64-15,0-2.06,1.61-2.66.93-1.25-1.25.27-.47-.31-2.04,0-2.5.51-.74,2.82,3.19,4.36,2.51l-.63-2.5c1.17.18,4.74-.3,5.01,0Z" style="fill: #1d1851;"/>
  <path d="M404.75,195.36c-6.44,6.81,1.09,15.95-2.55,23.05-.04.78,3.61.6,2.55,3.2-1.02,1.68-2.39,1.24-3.75,0-.91-4.35.16-12.98,0-18.12-.12-4.04-4-8.37,3.74-8.13Z" style="fill: #17153d;"/>
  <path d="M319.75,267.86c1.8-4.03,1.98,10.56,2.55,9.95.95.47,6.8-.2,8.7.05-.3,2.11-3.9,1.12-5.62,1.24-1.32.15.92,2.09.63,2.5-2.09,3-2.3-3.28-3.75-2.49l-.63,2.49c-2.89-5.56-1.95-2.64-6.21-2.47-3.97.16-7.97-.14-11.93-.03-.06-.83.06-1.67,0-2.5,4.57,2.36,10.08.88,15.01,1.26.19-2.03-.27-4.27,0-6.26-2.76-2.03-2.97-9.79,1.25-3.75Z" style="fill: #1e1b53;"/>
  <path d="M373.5,196.61c-.81,2.21-4.39,27.39,1.25,25,.23.24-.15,1.8,0,2.5-3.06-.34-2.39,1.4-3.75,2.5,1.04-1.04-.74-24.81,0-29.41.45-2.75,2.07-2.46,2.5-3.09,1.96-.17,1.83,1.94,0,2.5Z" style="fill: #16143b;"/>
  <path d="M304.75,241.61c4.09-.1,3.63-.9,3.75,3.07-.53,2.16,1.92,37.62-2.5,26.93.34-5.09,2.92-22.96.89-27.21-.33-.6-1.11.76-2.14-2.79Z" style="fill: #1e1b53;"/>
  <path d="M136,271.61v7.51c-17.71-1.07-17.33,5.36-16.24-12.5l3.74,3.74c-1.49,2.22-3.9,2.02-2.51,7.5l13.04.02c.27-.34.33-9.88,1.96-6.27Z" style="fill: #2a275b;"/>
  <path d="M301,277.86l-.68,1.15c-6.02.28-12.04.06-18.07.1-.7,1.68-20.05,3.11-16.25-1.25h35Z" style="fill: #1e1b53;"/>
  <path d="M347.25,310.36c0,1.4.91,2.47,1.25,3.74-4.05-1.93-3.35.31-7.5,2.51l-2.5-1.25c-6.74-.87,3.69-3.03,3.75-6.25,1.55.43,3.05,1.62,5,1.25Z" style="fill: #c1c0dd;"/>
  <path d="M228.5,271.61c3.49.44,3.62,5.63,0,6.25.31,1.58-2.67,1.23-3.75,1.25-3.6-.62-14.97,1.92-16.25-1.25l3.32-2.59c6.35,1.25,11.08.03,14.18-3.66.48-3.3,1.41-3.1,2.5,0Z" style="fill: #484d5f;"/>
  <path d="M132.25,266.61c3.2-3.21,10.31-2.73,6.25,2.5,2.22,3.96-5.5,2.1-7.5,2.49-.32-.3.93-4.07,1.25-4.99Z" style="fill: #0f0c44;"/>
  <path d="M282.25,337.86l1.25,2.49c-5.03-.12-8.77,4.65-13.75,3.76,0-.71-.32-1.93.13-2.34.48-.44,10.18-3.09,12.37-3.91Z" style="fill: #7975a6;"/>
  <path d="M361,271.61l.71,6.27,19.29-.02c-1.57,3.27-16.25.27-20.48,1.31-1.52-.27-.51-2.13-.77-2.56-1.27-2.31-1.27-3.98,0-5,.24-1.12.67-1.08,1.25,0Z" style="fill: #26255a;"/>
  <path d="M303.5,320.36c6.17.62,6.08,9.41,8.75,1.25,5.45.34,1.32,6.13-2.51,5.02.08.65,1.26,1.09,1.26,1.23,1.94,1.16,1.11,2-2.5,2.5-.7-.05-1.9-1.23-2.5-1.25,7.02-3.9-2.76-4.45-2.5-8.75Z" style="fill: #797a88;"/>
  <path d="M353.5,271.61c-.43,1.62.54,6.98-.04,7.46-4.11.29-16.59,1.17-18.71-1.21h17.51c.18-1.06-.71-9.29,1.24-6.25Z" style="fill: #26255a;"/>
  <path d="M353.5,271.61c-.11-12.59,11.42-12.47,10,0-1.28.05-2.51-.06-3.75,0-.55,2.68-1.39,3.1-2.5,1.25-1.67-1.78-1.89-.95-3.75-1.25Z" style="fill: #110c48;"/>
  <path d="M207.25,327.86l-.77.78c-2.04-.79,8.16,2.28,3.27,4.22-.35,1.09-.77,1.08-1.25,0-2.16-2.03-6.03-3.64-8.75-5l1.25-2.5c2.48.89,3.81,1.37,6.25,2.5Z" style="fill: #dfdafe;"/>
  <path d="M387.25,219.11c.13.58.66,1.1,1.25,1.25-.51,2.49-7.13-1.19-5.01,6.25l11.26,1.25c-1.86,1.99-10.69.5-12.43-.06-1.57-2.31.78-9.2,4.93-8.69Z" style="fill: #1d1851;"/>
  <path d="M227.25,339.11c2.63-.92,7.07-1.34,6.25,2.5,1.09.35,1.08.77,0,1.25-.23,1.12-.65,1.08-1.25,0-3.16,1.64-11.05-6.49-5-3.75Z" style="fill: #d5d3f4;"/>
  <path d="M261,346.61c2.96,1.15-4.34,2.44-4.73,2.92.12,3.97-8.68,1.26-5.27-1.67.82,0,1.69.07,2.5,0,.31-1.1.73-1.07,1.25,0,2.05-.3,4.16-.88,6.25-1.25Z" style="fill: #60627c;"/>
  <path d="M222.25,371.61c1.66-.06,3.34.09,5,0-3.96,2.58-10.51,1.76-15,2.5-1.11-1.18-2.92-.92-2.49-2.49,4.7,1.47,8.31.13,12.49-.01Z" style="fill: #26224f;"/>
  <path d="M158.5,277.86c-3.76,2.2-16.76,2.19-20,0h20Z" style="fill: #27235e;"/>
  <path d="M222.25,291.61c4.99.09,10.01-.07,15,.01l-1.25,2.49c-4.77-1.67-9.03-1.56-13.75,0v-2.5Z" style="fill: #1c194d;"/>
  <path d="M241,344.11c2.72,1.43-2.6,1.5-5,1.25-2.43-.12-2.68-1.88-2.5-3.75,3.74-1.18,5.5,1.61,7.5,2.5Z" style="fill: #484856;"/>
  <path d="M306,271.61c.65-.06,2.13-.15,2.5,0,.29.12,5.08,3.86,3.74,4.99-4.98.71-5.36-.57-8.74-3.74.5-1.62,1.14-1.13,2.5-1.25Z" style="fill: #f5fbe4;"/>
  <path d="M142.25,266.61c.28,4.23.61,5.08-3.75,6.25-1.28-1.03-1.41-1.36-1.24-3.12.23-.53.81-.46,1.24-.63.04-4.18,1.55-6.52,3.75-2.5Z" style="fill: #1c1a49;"/>
  <path d="M233.5,342.86c2.67-.13,2.77-.39,2.5,2.5-2.89,2.16-7.58-1.19-11.24-.01.89-.25,7.93-2.87,8.74-2.49Z" style="fill: #211d55;"/>
  <path d="M212.25,284.11c-.89.3-2.62-.21-3.76,0l1.27,2.48h-3.77c3.33-2.89-3.57-2.47-1.23-4.99.26-.29,5.14,2.13,7.48,0-.05.81.14,1.73,0,2.5,1.39-.47,2.44-2.23,3.13-2.5.86-.33.82,2.02,1.87,2.5l1.25,2.5c-2.06.02-4.66-1.61-7.5,0-.45-.39,1.11-1.68,1.25-2.49Z" style="fill: #150e58;"/>
  <path d="M209.75,271.61c7.67,9.06-15.46,6.83-20,7.5v-1.25l1.97-2.64c5.64,1.06,9.99.27,13.03-2.36-1.14-3.61,3.25-4.3,5-1.25Z" style="fill: #252356;"/>
  <path d="M404.75,221.61c.44.03,1.01-.12,1.25,0,2.74,7.97-4.92,6.9-3.75,5,1.09-1.2,2.92-.91,2.5-2.48-1.59-.13-3.39-.81-3.75-2.52,1.24.06,2.51-.09,3.75,0Z" style="fill: #ebeefc;"/>
  <path d="M251,347.86l2.5,3.75c-2.72,0-7.16-.52-6.25-3.75,1.09.17,2.55,0,3.75,0Z" style="fill: #b7b8d9;"/>
  <path d="M212.25,332.86c1.61-.62,3.43.79,2.5,2.5-5.98,2.7-5.53-1.83-6.25-2.5h1.25c-.34-3.11,1.98-2.5,2.5,0Z" style="fill: #211d55;"/>
  <path d="M227.25,339.11c-.54.19-.97.74-1.25,1.25-1.79-.85-3.26-1.61-5-2.5-.63-1.79.2-2.21,2.5-1.25.87.59,3.43.15,3.75,2.5Z" style="fill: #a5a3cd;"/>
  <path d="M337.25,374.11c0-.83-.03-1.67,0-2.5h7.5s0,1.23,0,1.23c-.89-.01-2.5.34-2.49,1.27.06,1.99-4.35,1.87-5,0Z" style="fill: #180c71;"/>
  <path d="M402.25,226.61c.62.1,1.16.6,1.25,1.25-4.37.72-4.56-.08-7.5,0l.86-1.02c1.74-.28,3.64-.5,5.39-.23Z" style="fill: #1d1851;"/>
  <path d="M177.24,371.61c.18.18-.07,1.71,0,2.49-2.4.2-4.74.25-6.24-1.87.66-1.04,6.02-.84,6.24-.61Z" style="fill: #130f68;"/>
  <path d="M342.25,374.11c0,.54,1.76,2.06,1.25,2.49h-6.26c-.03-.82,0-1.66,0-2.49h5Z" style="fill: #121140;"/>
  <path d="M414.75,189.11l1.61,2.51h-1.61c-.29,1.59.2,1.34,1.8,1.23l-3.06,1.26c.09-2.08-.81-3.99,1.25-5Z" style="fill: #130f54;"/>
  <path d="M207.25,347.86c-2.24-.35-7.7-.31-10,0l.82-1.01c2.75-.49,5.61-.49,8.36,0l.82,1.01Z" style="fill: #151039;"/>
  <path d="M213.5,352.86c-2.21,4.95-7.12,2.5-5,1.25,1.68-.97,2.99-1.87,3.75-3.75,1.03.9,1.32.79,1.25,2.5Z" style="fill: #4f4e61;"/>
  <path d="M209.75,357.86c-.23-.5-1.16-.96-1.25-1.25-3.21-.68,4.68-3.23,5-3.75-.13,3.26-1.73,3.41-3.75,5Z" style="fill: #aca9cc;"/>
  <path d="M217.25,334.11c2.35.13,6.41,2.27,3.75,3.75-.56.22-8.55-3-3.75-3.75Z" style="fill: #bebcd9;"/>
  <path d="M216,332.86l1.25,1.25v2.5c-3.89-1.28-10.17-8.84-1.25-3.75Z" style="fill: #d1d0f3;"/>
  <path d="M264.75,345.36c.81,4.11-2.03,1.86-3.75,2.5v-1.25c.23-.04,2.23-.89,3.75-1.25Z" style="fill: #79789b;"/>
  <path d="M311,327.86c2.66-.29,2.79-.16,2.5,2.5-.87.27-3.77.08-5,0,.61-.62,2.54-1.84,2.5-2.5Z" style="fill: #cac8ee;"/>
  <path d="M406,221.61c1.82.91,1.6,5.91,1.25,6.25-.25.24-1.75-.14-2.5,0l1.25-6.25Z" style="fill: #1d1851;"/>
  <path d="M241,344.11c2.28,1.02,5.84.11,5,3.75-1.44-.23-3.84-2.46-5-2.5v-1.25Z" style="fill: #57576d;"/>
  <path d="M359.75,276.61c-.41-.67-2.23-3.47-2.5-3.75.81-.27,1.77-1.13,2.5-1.25v5Z" style="fill: #161159;"/>
  <path d="M374.75,387.86c-2.11,2.95.05,4.39-5,6.25-.73-1.87-.84-4.48,1.25-5-.36-2.99,2.53-4.45,0-8.75,2.36-2.2,1.93,6.84,3.75,7.5Z" style="fill: #58596c;"/>
  <path d="M397.25,389.11c-.36,1.07-.77,1.05-1.25,0-.35-.74-1.49-1.36-1.26-2.49h-1.23c.69,2.22-.8,3.56-1.26,4.99-.08-2.96-.4-6.14,1.25-8.75,1.88,2.28,2.45,3.81,3.75,6.25Z" style="fill: #56546b;"/>
  <path d="M372.25,380.36h-1.25c-2.66-1.8-5.95-4.09-6.25-7.5,1.92.69,6.59,5.57,7.5,7.5Z" style="fill: #757582;"/>
  <path d="M332.25,361.61c1.09.35,1.08.77,0,1.25-3.69-.95-8.63-.52-11.25-3.75,3.84.69,7.47,1.65,11.25,2.5Z" style="fill: #5b5c64;"/>
  <path d="M317.25,359.11c-4.41-.64-4.64-.45-8.75-2.5l.59-1.12,8.16,3.62Z" style="fill: #56566b;"/>
  <path d="M356,369.11l-.68,1.22c-2.24-.39-4.57-1.47-5.57-3.72,2.46.83,4.14,1.69,6.25,2.5Z" style="fill: #837f92;"/>
  <path d="M394.75,377.85c-1.71.54-8.6-2.79-7.5-3.73,1.71-.54,8.6,2.79,7.5,3.73Z" style="fill: #52525f;"/>
  <path d="M344.75,365.36l-.56.93c-2.03.06-4.24-1.82-5.69-2.18-1.09-.35-1.08-.77,0-1.25,2.17.58,4.44,1.94,6.25,2.5Z" style="fill: #666271;"/>
  <path d="M398.5,391.61c.63,1.35.79,2.58,1.25,3.75h-1.25c-.84-1.98-1.69-4.56-2.5-6.25h1.25c.44.82.86,1.66,1.25,2.5Z" style="fill: #6e6d79;"/>
  <path d="M338.5,362.86v1.25c-1.88-.47-3.94-.66-6.25-1.25v-1.25c2.04.46,4.39.76,6.25,1.25Z" style="fill: #595867;"/>
  <path d="M363.5,372.86c-1.03-.18-4.59,1.86-3.75-2.5,1.5.57,3.23.13,3.75,2.5Z" style="fill: #555467;"/>
  <path d="M124.75,380.36c3.88-4.23,6.21.6,6.56.76,4.73-.68,5.71,5.53,8.44,7.99,1.77-1.77,2.54-.97,1.25,1.25l1.37-.43c.07,3.19,11.04,19.57,3.63,17.93-2.45-.79-7.09-1.46-10-1.25-4.62-.63-3.03-1.27-5-2.5.13-1.54-1.12-2.37-3.75-2.5-4.3-5.02-5.05-11.53-7.5-17.5,1.7-.51,2.51-3.25,3.75-3.75,2.6.99,3.02.99,1.25,0Z" style="fill: #150f56;"/>
  <path d="M192.25,359.11c3.17,1.41-7.47,3.08-8.75,3.75-1.08.02-1.57-.08-1.25-1.25,3.29-.77,6.62-1.9,10-2.5Z" style="fill: #777781;"/>
  <path d="M143.5,382.86c-.86,4.08,2.6,13.64-3.75,6.25-1.09-.35-1.08-.77,0-1.25,2.18-2.32-.15-5.96,3.75-5Z" style="fill: #8b8c9c;"/>
  <path d="M149.75,375.36c-2.41,2.01-4.4,3.62-6.25,6.25.72-5.11,1.27-4.55,5-7.5,1.76-1.66,2.4-.96,1.25,1.25Z" style="fill: #77797f;"/>
  <path d="M121,377.86c.39-.12.9.14,1.25,0l1.03,1.01c-2.33.32-2.89,1.95-3.53,3.99-.29-.65-3.73-1.03-1.25-3.75.15-.03,1.48-.93,2.5-1.25Z" style="fill: #fbfdfe;"/>
  <path d="M176,362.86c2.86.95-4.46,2.92-6.25,3.75-2.82-.98,4.48-2.97,6.25-3.75Z" style="fill: #706c86;"/>
  <path d="M154.75,370.36c.7,3.02-2.93,3.27-5,5l-1.25-1.25c2.15-1.7,2.79-2.94,6.25-3.75Z" style="fill: #6a6a77;"/>
  <path d="M203.5,356.61c1.78-.52,2.13-.49,1.25,1.25-2.14.63-4.05.96-6.25,1.25.61-3.05,3.57-1.92,5-2.5Z" style="fill: #555567;"/>
  <path d="M182.25,361.61l1.25,1.25c-2.51.62-5.54.72-7.5,1.25v-1.25c1.82-.5,4.21-.77,6.25-1.25Z" style="fill: #4a4c4f;"/>
  <path d="M163.5,367.86c-.69.21-2.55,1.74-5,2.5-.9-2.92,2.36-2.86,5-3.75,1.09.35,1.08.77,0,1.25Z" style="fill: #868494;"/>
  <path d="M208.5,355.36c.08.4-.11.87,0,1.25-1.4-.02-2.59.91-3.75,1.25l-1.25-1.25c1.21-.49,3.82-1.82,5-2.5v1.25Z" style="fill: #737280;"/>
  <path d="M169.75,365.36v1.25c-2.07.58-4.5.72-6.25,1.25v-1.25c2.08-.7,4.45-.7,6.25-1.25Z" style="fill: #686671;"/>
  <path d="M139.75,387.86v1.25c-.74-.52-3.51,1.41-2.5-3.75.61.68,2.23,1.05,2.5,2.5Z" style="fill: #161444;"/>
  <path d="M124.75,380.36c1.18-.17,2.53.09,3.74.01v1.23s-4.98,1.26-4.98,1.26v-2.5c.29-.12.8.06,1.24,0Z" style="fill: #0f0d36;"/>
  <path d="M197.25,359.11c-.94,1.95-3.58.97-5,1.25v-1.25c2.02-.36,4.29.1,5,0Z" style="fill: #575766;"/>
  <path d="M127.25,401.61c2.05-1.74,3.95-.49,6.24.01.44,1.58-1.4,1.29-2.49,2.49-1.6-1-1.64-.04-3.75-2.5Z" style="fill: #1f1853;"/>
  <path d="M119.75,387.86c-.42,2.74-.72,5.91-3.74,4.99.42-2.74.72-5.91,3.74-4.99Z" style="fill: #84848c;"/>
  <path d="M292.24,395.35c-4.72-.16-10.04,1.94-9.86-4.38.24-8.5,7.98-3.73,8.61-4.37l.02-6.24c5.5,3.07.37,10.17,1.23,14.99Z" style="fill: #322e59;"/>
  <path d="M268.5,385.37c-2.75,4.85,2.84,9.33-5.65,8.84-4.16-.24-4.69-1.68-4.46-5.74.41-7.21,5.29-2.91,10.1-3.1Z" style="fill: #3b375a;"/>
  <path d="M349.75,410.36c-6.71-1.15-7.86-.39-4.83-8.58h7.16c.77,1.87,1.56,4.02,1.42,6.08-1.37,2.02-3.87,1.6-7.5-1.24-.3-.15,6.41,2.08,3.75,3.74Z" style="fill: #3b375f;"/>
  <path d="M253.5,389.11c-.06.92-.15,1.64-.34,1.67-4.26.66-6.59-2.69-2.75-.47,2.89,4.34-2.78,4.84-5.35,2.25-7.09-7.07,7.75-14.22,8.45-3.45Z" style="fill: #3c3761;"/>
  <path d="M174.75,405.36c.29,1.37,1.18,2.14,2.5,2.5l1.24,3.75c-3.31-1.9-6.72-.84-9.98-1.71-4.56,2.56-4.6-2.92-1.26-4.54-2.29-1.49,1.51-4.37,3.75-5,4.55,1.35,5.8,3.02,3.75,5Z" style="fill: #e7e4f4;"/>
  <path d="M335.99,396.61l-1.24,7.49c6.49,1.72,2.16-6.57,8.74-4.99-1.09,9.72-13.34,12.36-10.15.42.58-2.15-.94-3.51,2.65-2.92Z" style="fill: #15142a;"/>
  <path d="M208.5,387.86l-1.43,1c1.28,4.22,1.34,7.63.18,10.25-.59.2-1.16.99-2.5,1.25-2.6-2.08-4.7-10.88-2.5-13.75,2.1-1.59,3.38-6.15,6.94-1.28.77,1.05-.71,2.19-.69,2.53Z" style="fill: #e6e4f5;"/>
  <path d="M232.25,390.36c.9,2.99.8,6.07-2.5,3.75-.19-1.1.06-2.53,0-3.75l-1.68-.62c-1.99,11.28-9.63,5.38-4.57-3.13,4.88-1.56,7.18-.15,8.75,3.75Z" style="fill: #333051;"/>
  <path d="M188.5,397.86c-.2,1.11-1.28,4.5-2.12,3.94-3.4-2.26,8.98-2.25,2.12,3.56-9.01.58-8.77-8.51-3.82-9.52,3.36-.69,2.54.75,3.82,2.02Z" style="fill: #36354d;"/>
  <path d="M328.5,394.11c1.05.38,1.04.8,0,1.25-7.25-2.2-5.15,6.71-10,6.25-1.75-1.99-1.28-6.79,1.25-7.5,1.32-3.98,5.6-.89,8.75,0Z" style="fill: #4d4a68;"/>
  <path d="M202.25,386.61l2.5,13.75c-.75.15-1.7-.11-2.5,0-2.27-1.19-3.1-4.11-2.5-8.75.29-2.8-1.46-5.88,2.5-5Z" style="fill: #343057;"/>
  <path d="M216,391.61c.78,1.27,1.61,2.52,2.5,3.75.31-1.1.73-1.07,1.25,0v2.5c-2.49.02-5.01.02-7.51,0v-2.5c-2.35,1.01-3.24-5.83,0-5,1.14-2.4,6.17-1.64,3.75,1.25Z" style="fill: #3b3664;"/>
  <path d="M197.25,394.11c1.96,1.4.05,3.57-1.25,5,1.58,2.63-1.78,3.3-3.75,2.5-2.23,2.45-6.62-1.41-2.5-3.75,1.04-4.83,3.06-3.94,7.5-3.75Z" style="fill: #36315c;"/>
  <path d="M208.5,387.86c2.01,3.29,3.21,7.36,1.25,11.25-.56.25-1.82-.23-2.5,0l-2.49-13.75c.2-.25,3.03,1.95,3.74,2.5Z" style="fill: #3c385f;"/>
  <path d="M163.5,401.61c.81,2.26-1.31,3.88,3.75,1.25,2,1.58.16,2,0,2.5l-1.63.94c1.44,12.4-7.42-3.6-4.62-5.94,2.43-1.51,4.19-1.45,2.5,1.25Z" style="fill: #2a2551;"/>
  <path d="M188.5,397.86c2.58-.76.69,3.08,3.75,3.75,1.09.35,1.08.77,0,1.25-.74.19-.44,2.29-3.75,2.5l1.25-2.49-5.01-.02v-4.99s3.76,0,3.76,0Z" style="fill: #e4e1f7;"/>
  <path d="M307.25,394.11c1.02-3.74,2.36-9.69,7.5-8.74-.29,1.55-9.94,16.47-7.5,8.74Z" style="fill: #363354;"/>
  <path d="M167.25,405.36c-.38,1.17-1.81,1.9-1.24,3.75,4.42-2.34,5.75,1.11,6.24,1.25l-8.08,2.53c-1.36.07-.39-1.83-.67-2.53l.97-.92c.44-2.85-.62-4.8,2.78-4.08Z" style="fill: #413c69;"/>
  <path d="M238.5,386.61c-.05.76-1.9,2.35-.73,3.8l4.47,3.7c-5.88,1.38-10.95-5.25-4.99-8.74,1.67-.47,2.19-.3,1.25,1.25Z" style="fill: #322f53;"/>
  <path d="M317.25,390.36c1.25,2.98,1.46,8.51-1.25,10-.62-.19-1.69.22-2.47,0l1.23-10c.78.11,2-.2,2.49,0Z" style="fill: #4e4971;"/>
  <path d="M303.5,395.36c-.36-4.2-1.6-8.23-1.24-12.49,3.75-.59,2.04.89,2.51,3.09-.08,2.81,4.47,11.08-1.27,9.41Z" style="fill: #3d3961;"/>
  <path d="M171,400.36c1.57-.15,3.12.37,4.45,1.17l.55-2.4,2.49-.02c.3,1.29-.4,4.32,0,5-2.82,5.44-5.48-1.72-7.5-3.75Z" style="fill: #342c6a;"/>
  <path d="M223.5,395.36c1.09.35,1.08.77,0,1.25-1.11-.87-10.74-1.65-5-3.75.39-1.34,1.23-2.18,2.5-2.5.55-1,1.75-3.51,2.5-3.75v8.75Z" style="fill: #dfdcf3;"/>
  <path d="M178.5,404.11c.11.18,3.24.46,3.73,1.87-2.32,3.27-2.26.6-4.97-.63,1.48,5.32-7.24,4.99-2.51,0,.8-.78,2.61-1.02,3.75-1.25Z" style="fill: #1c183d;"/>
  <path d="M273.5,385.36c2.35.52,1.92,1.26,0,2.5-.15,12.62-3.71,5.27-2.5-2.51.83-.05,1.67.05,2.5,0Z" style="fill: #2c2a46;"/>
  <path d="M319.75,394.11c-.67,2.03-.76,5.27-1.25,7.5-.68-.06-1.7-1.01-2.5-1.25l1.25-10c1.35.56,1.35,2.77,2.5,3.75Z" style="fill: #e5e3f6;"/>
  <path d="M202.25,400.36c-1.01.14-3.47-.25-3.75,0-1.65,1.23-2.33.51-1.25-1.25-.36-2.14.05-3.81,1.25-5,.01-.14,1.06-1.26,1.25-2.5l2.5,8.75Z" style="fill: #d6d2f1;"/>
  <path d="M279.75,394.11c-.72.15-1.68-.07-2.5,0v-7.51c-1.49-.8,1.68-1.49,2.5-1.25,1.03,2.38,1.09,6.16,0,8.75Z" style="fill: #241d56;"/>
  <path d="M223.5,395.36h2.49c-.15-3.52-.57-7.83,3.75-7.49.05.82-.04,1.66,0,2.49-2.81.73-2.56,3.83-2.52,6.25-1.22-.05-2.51.14-3.73,0v-1.25Z" style="fill: #dad7ec;"/>
  <path d="M208.5,387.86c1.11.86,1.28,3.22,3.75,2.5-2.58,5.18,2.6,3.15-2.5,8.75.21-3.88-.99-7.37-1.25-11.25Z" style="fill: #dddbf0;"/>
  <path d="M221,390.36c-.46.84,1.14,3.26-2.5,2.5-1.09-.38-1.93-.8-2.5-1.25-.24-.02-1.86-2.05-2.5-2.5,3.35-2,4.68-1.09,7.5,1.25Z" style="fill: #26214c;"/>
  <path d="M197.25,399.11c.73.12,1.18.48,1.25,1.25,1.08,4.08-4.08,2.06-6.25,2.5v-1.25c1.24-.57,2.57-2.17,3.75-2.5.32-1.16.74-1.14,1.25,0Z" style="fill: #3f3b5f;"/>
  <path d="M146,397.86c-3.13-1.12-3.29-5.47-5-7.5l2.5-1.25c.4,2.38,1.73,6.09,2.5,8.75Z" style="fill: #1f1853;"/>
  <path d="M353.5,407.86c-.06.83-1.58,2.41-1.27,3.76-.94-.03-1.82-1.15-2.48-1.26l-3.75-3.74,7.5,1.24Z" style="fill: #c1bde1;"/>
  <path d="M307.25,394.11c.33.49.79.88,1.25,1.25-1.51,1.72-1.53,3.16-4.99,2.49-.07-.82.06-1.67,0-2.49l2.5-3.75c.42,1.49.53,1.42,1.25,2.5Z" style="fill: #3d376b;"/>
  <path d="M359.74,411.6c-3.7.52-2.84-2.4-3.74-4.98,4.69-.35,5.27.96,3.74,4.98Z" style="fill: #f7f8ea;"/>
  <path d="M253.5,389.11c.08,1.24-.04,2.52,0,3.76-1.86-1.57-5.73-.87-6.24-3.75h6.25Z" style="fill: #d9d5fa;"/>
  <path d="M161,400.36c1.97-2.53,4.41-2.67,7.5-2.49l-5,3.74c-.16-.45-.35-.85-.73-1.14l-1.77-.11Z" style="fill: #3c3668;"/>
  <path d="M304.75,376.61v3.74s-5-1.26-5-1.26c-.79-3.73,1.78-2.37,5-2.49Z" style="fill: #f6fbe2;"/>
  <path d="M198.5,394.11c-.11,1.46,3.38,3.11-1.25,5-.32-.05-.95-.08-1.25,0-1.77-1.97.02-3.21,1.25-5h1.25Z" style="fill: #413e5e;"/>
  <path d="M331,391.61c3.9-.02-2.69,9.64-1.26,11.26-4.53.53-2.41-2.81-1.24-5.01l2.5-6.25Z" style="fill: #393652;"/>
  <path d="M182.25,417.86c-2.52.86-6.9,5.36-6.25.01,1.8.88,6.89-3.36,6.25-.01Z" style="fill: #8c8ba0;"/>
  <path d="M279.75,394.11v-8.75c.36.17,1.01-.16,1.12.71.04,2.08,1.11,7.58-1.12,8.04Z" style="fill: #84839b;"/>
  <path d="M328.5,397.86c-.05-2.25-.43-5.77,2.5-6.25.76,3.15-1.56,4.48-2.5,6.25Z" style="fill: #120d38;"/>
  <path d="M166,425.35l-6.25,1.25c.53-2.66,3.87-2.1,5.64-3.73l.61,2.47Z" style="fill: #595869;"/>
  <path d="M371,389.11c-.47,1.65-.82,3.34-1.25,5-.34.13-.76.99-1.25,1.25.33-1.87-.25-4.27,0-6.26h2.5Z" style="fill: #ededf7;"/>
  <path d="M237.25,385.36c2.42-1.42,3.85-1.86,5,1.24h-3.75c0-.08-1.08-.71-1.25-1.24Z" style="fill: #232330;"/>
  <path d="M232.25,390.36c3.12,7.73-2.19,5.55-2.5,3.75,3.35.58,2.55-.79,2.5-3.75Z" style="fill: #4a4765;"/>
  <path d="M172.25,422.85l-4.99,1.26c-1.86-2.24,4.29-5.42,4.99-1.26Z" style="fill: #818190;"/>
  <path d="M186,416.61c-1.11.34-2.6.86-3.75,1.25l-1.25-1.25c1.37-.43,3.3-.77,5-1.25v1.25Z" style="fill: #5b596d;"/>
  <path d="M278.5,385.36c-.91,2.01-3.4,1.27-5,2.5,0-.83,0-1.67,0-2.5,1.61-.09,3.39-.1,5,0Z" style="fill: #17162e;"/>
  <path d="M318.49,385.36l-.61,3.74c-1.32-1.14-2.28-1.89-1.87-3.74h2.49Z" style="fill: #292934;"/>
  <path d="M388.5,425.36h-1.25c-.21-1.32-1.73-3.14-1.25-5h1.25c.57,1.52.75,3.39,1.25,5Z" style="fill: #4c4b5b;"/>
  <path d="M162.25,196.61c11.72,34.68-19.82,33.19-8.75,1.25l3.3.09c.83-3.27,3.92-4.53,5.45-1.34Z" style="fill: #171358;"/>
  <path d="M216,226.61c2.2-.09,2.62.74,1.25,2.5,6.51,6.82-14.34,5.36-15,2.5-.03-.16-1.37-.3-1.24-1.14l3.74-2.6c-4.21.6-10.35-.9-14.18,0-.5.12-5.71,4.83-8.93,3.79l.6-2.54-4.38-1.23-.61,3.71c-.49.46-12.33-2.51-12.5,1.25l2.49,1.24-4.98,2.51c2.79-7.72-3.25-6.79-8.75-8.74,1.73.35,8.12-.49,8.75,0,.38.29-.71,2.62.64,2.52,3.79-1.55,5.42.15,7.81-3.67,3.8-1.32,16.52-4.89,16.57,1.15h1.22c-.3-4.47.99-1.41,2.51-1.25,2.62.28,9.34.48,11.6-.03,1.09-.24,1.62-2.31,2.15-2.47.96-3.72,10.84-4.9,9.28,1l1.97,1.5Z" style="fill: #151059;"/>
  <path d="M143.5,191.61c-5.58,10.97-5.32,9.92-5,22.5-1.24.41-1.66,0-1.25-1.25-2.98-1.2-3.02-9.68-1.16-7.42,1.43,1.73-1.13,2.33-1.34-1.33v-7.5c4.33.4,3.43-6.4,8.75-5Z" style="fill: #1b194a;"/>
  <path d="M153.5,197.86c1.07-2.2.75-4.24,4.58-4.7,4.31-.51,3.51,2.2,4.17,3.45-3.67-1.36-3.04,4.46-3.81,4.97-3.04,2.02-3.87-1.8-4.94-3.72Z" style="fill: #1c1a4c;"/>
  <path d="M137.25,212.86c.37.47.76.9,1.25,1.25.27,1.73-.84,2.89-1.25,5-.36,4.61-2.68,1.62-2.5-1.25-3.74-.09-3.45-5.58,0-6.25-.88-4.47,1.99-2.91,2.5,1.25Z" style="fill: #0f0d44;"/>
  <path d="M356,222.86c.44,4.23,4.31,5.91,11.62,5.06.75.68,2.88,5.24,3.38,6.19-.77.94-1.66.92-2.5,0-9.45-2.98-19.04,2.83-28.75,0-2.1-1.27-2.93-1.27-2.5,0-1.59.41-3.26.82-5,1.25-1.29,4.03-1.95,8.33-1.25,12.5l-3.74,9.99-4.93-21.95c-1.78-1.25-15.24-.5-18.84-.54-6.98-.58-13.27-3-21.81-2.17l-.69-1.58c-5.38-1.28-6.63-2.95-3.75-5,.3-1.13.72-1.1,1.25,0,2.16.43,4.25.85,6.25,1.25.11.02-.39,1.02,1.93,1.19,7.18.95,6.51-3.73,9.32-7.44.27,1.45-.39,3.83,0,5,5.18,2,13.61,1.97,16.77-2.22l1.98,2.22c11.3-.33,23.57.18,35.01,0,1.94-6.66-3.57-4.33-3.83-5.68l.71-19.31c1.07,4.64,9.61,17.71,9.37,21.24Z" style="fill: #181255;"/>
  <path d="M371,226.61c-.72.57-2.02,2.37-2.5,2.5-2.44.63-12.54-.96-13.75-2.53-.64-.82,1.2-3.03,1.25-3.72,3.16,5.91,9.28,3.29,15,3.75Z" style="fill: #1d1851;"/>
  <path d="M376,189.11c.66,3.09-.46,7.86,0,11.25-.6-1.3-1.62-2.61-2.5-3.75-.58-3.05,2.16-4.17,1.25-7.5,0,0,0-1.25,0-1.25.31.19,1.21,1.07,1.25,1.25Z" style="fill: #110c3f;"/>
  <path d="M277.25,221.61c1.49,2.41,1.49,4.08,0,5-.7,4.37-5.05,8.59-10,7.5-2.59-1.38-3.85.77-1.25,2.5-.34,2.08.79,3.37,1.25,5,7.3,5.65,2,20.85-3.75,7.5-2.32.04-4.12-2.03-5.41-6.23-3.87-2.27-6.03-4.78-6.47-7.52-.12.96-.37,2.36-1.08,2.5-1.83.35-19.82.38-21.55,0l-1.74-2.5c1,2.69,2.82,4.58,5.46,5.68.52,1.37,4.36,42.49-4.21,30.57-.82-.07-1.7.11-2.5,0-5.74,12.94-10.84-33.09-12.11-33.71-5.67.99-9.56.14-11.64-2.54.08-1.07.18-2.79,0-3.75l14.3.06c1.36-.21.54-1.66.7-2.56.37-.52.79-.49,1.25,0,3.49,2.49,8.07,2.49,13.75,0,6.52-.33,13.19-.74,20-1.25.14-.95.44-2.01,1.25-2.5,1.09-2.49,2.14,2.43,2.5,3.75,4.88-5.43,22.33,4.2,13.75-7.5-3.14-1.97-2.33-14.43,2.5-11.25,1.72,4.25,2.52,7.1,5,11.25Z" style="fill: #161151;"/>
  <path d="M256,190.36c-.86,3.69,4.43,3.29,5,5,.13,8.72-.56,17.34-2.06,25.87l-1.69.38c-.73,1.98-1.06,2.76-1.25,5,2.5.29,2.4,1.54,0,2.5-4.52-4.55,1.65-20.51-8.75-18.75-3.44-1.54-3.21-5.64,0-7.5.66-3.41,3.92-3.19,5,0,2.65-.46.59-9.19,1.19-11.73.3-1.53,1.92-.52,2.56-.77Z" style="fill: #181253;"/>
  <path d="M272.25,181.61c.24.14,2.24,4.25,2.52,4.99l3.72-3.74-.6,3.75c1.45.07,2.92-.11,4.36,0-1.34,1.96-1.55,3.96-1.25,6.25,3.48,1.62,4.82,3.63,4.04,6.04.94,1.91,1.14,4.38.96,6.46-2.13,10.97-8.53-13.89-11.25-15,.84-2.07-3.84-3.24-5-3.75l.26-1.18c-2.59-.3-2.34-1.54-1.51-3.82,1.02.05,3.35-.24,3.75,0Z" style="fill: #1a1555;"/>
  <path d="M272.25,210.36c-3.57,1.77-4.06,7.88-2.5,11.25-3.79.69-2.4-1.92-2.5-4.33-.21-5.21.14-10.47.01-15.67,3.38,1.46,3.83,5.89,4.99,8.75Z" style="fill: #1d1950;"/>
  <path d="M261,195.36c.84,2.49.13,19,0,23.18s.34,3.17-3.75,3.07c3.09-8.38,2.82-12.88,2.42-23.05-.08-2.17-3.11-3.61,1.33-3.2Z" style="fill: #1a1739;"/>
  <path d="M267.25,226.61c3.12,1.94-5.17,1.06-5.58,1.27-2.32.24-3.24,3.17-5.67,1.23.05-.83-.07-1.68,0-2.5h11.25Z" style="fill: #1d1950;"/>
  <path d="M281,192.86c7,1.38,4.79,2.65,5,8.75-2.51-1.57-2.54-3.78-1.23-6.24-1.97-1-3.43,2.17-3.77-2.51Z" style="fill: #231c58;"/>
  <path d="M277.24,201.61c.27.26.27,7.23,0,7.49-3.6,3.54-3.6-11.03,0-7.49Z" style="fill: #f8fce8;"/>
  <path d="M274.75,190.36l3.74-1.24-1.24,6.24c-.84-1.76-1.54-2.52-2.5-5Z" style="fill: #262250;"/>
  <path d="M286,205.36c-.05,2.49.05,5-.01,7.49-2.11.4-1.64-3.29-2.49-4.99l2.5-2.5Z" style="fill: #231c58;"/>
  <path d="M287.25,226.61c-.38.06-1.5,1.43-2.5,1.25-1.91-.36-4.99.98-6.25-1.25.23-1.13.65-1.08,1.25,0,2.5-.05,5,.03,7.5,0Z" style="fill: #19115d;"/>
  <path d="M279.75,226.61c-.83.01-1.68-.04-2.5,0-.2-1.59.14-3.37,0-5,.87,1.45,2.81,2.47,2.5,5Z" style="fill: #1d1950;"/>
  <path d="M272.25,226.61c.03.08,1.52.02,1.25,1.24-2.07.11-4.18-.11-6.25.01v-1.25h5Z" style="fill: #19115d;"/>
  <path d="M116,219.11c-3.41-6.37-4.81-24.58,4.37-25.11,8.47-.49,6.16,8.48,8.3,9.95.92.64,4.45.08,6.09.16.44.02,1.31,1,2.49-.01v8.76c-3.06-3.95-1.28-1.36-2.49-1.25-1.86,2.24-4.83,4.79-7.5,6.25-.39,1.66-1.19,2.48-2.5,1.25-2.85.25-4.52-.58-5-2.5h-1.25c3.35,2.31.81,3.62-2.5,2.5Z" style="fill: #171255;"/>
  <path d="M134.75,211.61v6.25c-.86.79-1.75,1.59-2.5,2.5-2.14-.27-9.53,1.19-5-2.5,2.03-6.47,2.1-5.77,7.5-6.25Z" style="fill: #ebeff7;"/>
  <path d="M119.75,216.61c.66-.18,1.71.17,2.5.01v-5.02c4.28-1.06,2.03,4.07,2.5,7.51,2.33,1.23-1.67,2.42-2.5,3.75-2.22-.42-4.69-1.89-6.25-3.75,1.29-.09,2.22-2.37,2.5-2.5.38-1.1.8-1.09,1.25,0Z" style="fill: #140c67;"/>
  <path d="M133.5,187.86l-5.6,2.51c-4.94-4.09-12.4-2.81-18.15-1.26.3-.39-.79-2.34.73-2.56,7.67.68,15.87-1.3,23.02,1.31Z" style="fill: #1e1c42;"/>
  <path d="M124.75,226.61c-5.04,2.03-8.51,1.94-13.75,0h13.75Z" style="fill: #ebeff7;"/>
  <path d="M122.25,222.86c-3.15,2.08-3.26-.39-5-2.5,2.18-.23,4.37.19,5,2.5Z" style="fill: #2d2d56;"/>
  <path d="M134.75,189.11c.4.24,1.92-.33,2.42.11.22.19-.68,5.19-2.42,4.89v-5Z" style="fill: #0f0a3a;"/>
  <path d="M127.25,220.36c-.97.14-2.43,1.35-3.75,1.25,1.09-2.34,1.15-2.75,3.75-3.75-.2.64.13,1.72,0,2.5Z" style="fill: #2d2d56;"/>
  <path d="M221,194.11c1.88-.02,2.29.64,2.85,1.92.5,1.15.21,23.98-.4,25.07-1.88,3.4-3.56,4.37-4.95.51-5.11-3.04-6.35-8.1-3.72-15.18l-2.53-1.07c-2.23-.55.54-6.39,1.04-5.47.08.14-1.62,2.48-2.29.47-.16-5.01,4.42-10.47,10-6.25Z" style="fill: #1a174f;"/>
  <path d="M212.25,209.11c1.04,1.53,1.03,4.21-.04,8.04,4.74,1.3,6,3.2,3.79,5.71,5.27,1.82.9,3.31-1.87,4.81-2.28-1.14-1.9-3.78-1.89-6.05l-1.25,3.76c-1.83-.75-4.25-1.86-6.24-1.26-.14-6.14,3.33-11.81,5-17.5.9-1.91,1.73-1.08,2.5,2.5Z" style="fill: #14124e;"/>
  <path d="M207.25,189.11c1.1,1.19,2.93.92,2.49,2.48-2.56-.53-3.92,4.85-4.99,7.52l-.13-4.92c-4.7.45-3.76-.89-3.62-5.08h6.25Z" style="fill: #f2f4f1;"/>
  <path d="M212.25,205.36c3.17,1.36,3.17,2.36,0,3.75l-2.5-2.5c.51-1.73.81-4.27,1.25-6.25l2.49-1.25c-.24,2.17-.98,4.02-1.24,6.25Z" style="fill: #17163a;"/>
  <path d="M217.25,189.11c3.07.57,5.39,1.7,3.75,5h-7.5c1.43-1.59,3.46-1.42,2.5-5h1.25Z" style="fill: #f2f4f1;"/>
  <path d="M312.25,215.36c3.79.92,6.81-2.4,7.49,4.4.3,2.94-1.01,1.64-3.06,1.84-3.64.36-1.46,2.61-1.93,5.01-3.35.21-17.06,5.16-18.75,0h15.01c-.23-1.34.43-4.19-.15-4.89-.77-.94-3.77,1.57-3.59-1.95.15-3.06,1.4-5.31,4.98-4.4Z" style="fill: #23204c;"/>
  <path d="M316,209.1h-4.99s1.26-7.49,1.26-7.49c2.16.07,4.22,7.03,3.73,7.49Z" style="fill: #252240;"/>
  <path d="M304.75,209.11c4.41-1.24,2.03,4.65,2.49,7.49-3.07,2.88-2.72-5.07-2.49-7.49Z" style="fill: #f7fde3;"/>
  <path d="M317.25,199.1c-2.45,2.33-3.04-2.65-2.48-4.99,1.4-.91,2.91,4.59,2.48,4.99Z" style="fill: #f6fbe9;"/>
  <path d="M241,161.61c-2.03.32-2.56.1-3.75-1.25h2.5c-.09-2.89.16-5.85,0-8.75,2,1.81,1.53,7.2,1.25,10Z" style="fill: #eef0f9;"/>
  <path d="M288.5,162.86v3.74s-6.24,0-6.24,0c1.25-3.97,1.96-4.28,6.24-3.73Z" style="fill: #272150;"/>
  <path d="M283.5,180.36l-.83,1.01c-6.61,1.25-4.29.13-5.42-2.26,2.16-.17,4.28,1.06,6.25,1.25Z" style="fill: #181444;"/>
  <path d="M256,162.86c6.28-.51,6.06,6.95,5,11.69-.21.94-3.96.92-2.5,4.56h13.75c-.45,3.7-10.33-1.02-12.5,2.51-.92,3.2-4.34,1.52-5-1.25,6.44-3.12-3.49-3.47,1.25-17.5Z" style="fill: #262060;"/>
  <path d="M254.75,180.36c5.2,1.57,8.63,1.37,13.75,1.25,1.89,1.09,2.51,3.89,4.99,3.76.6,2.37-3.27.84-4.99,1.24-2.78-.19-6.88,1.46-6.26-2.49-2.26-.63-.43,2.48-1.88,2.51-1.74.03-7.63-4.68-11.85-2.53l3.74-3.74c.82.08,1.68-.07,2.5,0Z" style="fill: #19125e;"/>
  <rect x="377.25" y="186.61" width="35" height="1.25" style="fill: #191449;"/>
  <path d="M217.25,189.11c11.65,0,23.35,0,35.01,0v13.76c-.99.17-4.19.22-5.01,0-1.94-3.45-4.16-4.67-5,0,3.05,2.65,3.17,8.24,2.36,12.09-.96,4.55-9.62,3.81-9.85-1.8-.32,3.3-.74,6.12-1.25,8.46,3.25-1.19,7-2.02,11.25-2.5-1.07-2.59-.65-6.75,2.5-7.5,7.61-6.71,6.32,15.26,5.25,15.39-12.19.55-24.36.42-36.5-.39.43-2.51-1.7-9.68,2.5-5,.76-.22,2.39.73,2.56-.73-2.28-5.65,4.84-30.22-3.81-28.03v-1.23s2.51-.64,2.51-.64l-2.51-1.87Z" style="fill: #f7f8fb;"/>
  <path d="M217.25,186.61v-2.5s8.76,0,8.76,0v3.75c-2.91.01-6.91-1.25-8.76-1.25Z" style="fill: #130f54;"/>
  <path d="M289.74,171.61c3.4,3.44-8.39,3.44-4.99,0,.18-.18,4.81-.18,4.99,0Z" style="fill: #1b0c78;"/>
  <path d="M257.25,340.36l-2.5,7.5c-.41.06-.84-.04-1.25,0,1.49-7.21-2.84-3.7-6.25-7.5,2.97-3.01,3.87,1.87,10,0Z" style="fill: #818195;"/>
  <path d="M213.5,325.36l.59-1.13c2.45,1.84,7.76,1.05,6.91,4.88-2.83-1.23-5.38-2.85-7.5-3.75Z" style="fill: #6f7077;"/>
  <path d="M243.5,295.36c-1.68,3.72,6.21,2.95,3.75,5-2.42-.84-.97,1.37-6.25-2.5.87-.79,1.75-1.59,2.5-2.5Z" style="fill: #484955;"/>
  <path d="M262.25,305.36c-.54-.61-11.91-2.18-8.75-3.75,2.9,1.05,6.75.98,8.75,3.75Z" style="fill: #61626b;"/>
  <path d="M237.25,335.36c2.91.29,9.41,1.38,8.75,5-2.62-.44-6.42-3.65-8.75-5Z" style="fill: #6f6d84;"/>
  <path d="M196,316.61c.93.96,7.63,2.58,5,3.75-1.52-1.07-10.43-4.04-7.5-5,1.17-1.22,2.07-.41,2.5,1.25Z" style="fill: #7c7a88;"/>
  <path d="M267.25,334.11c-1.44,3.4-3.45,3.77-6.25,5-.7-3.53,4.03-3.73,6.25-5Z" style="fill: #7f8089;"/>
  <path d="M192.25,314.11c2.15-.05,1.06,1.3,1.25,2.5-2.34-1.09-6.22-.49-7.5-3.75,2.13.56,4.09.88,6.25,1.25Z" style="fill: #6f6e7f;"/>
  <path d="M276,309.11c2.64.89,5.9.83,5,3.75-1.77.39-10.53-4.11-5-3.75Z" style="fill: #898a92;"/>
  <path d="M207.25,322.86c-2.05-.87-4.17-1.61-6.25-2.5v-1.25c2.06.97,5.25.61,6.25,3.75Z" style="fill: #75737f;"/>
  <path d="M269.75,307.86c1.09.35,1.08.77,0,1.25-2.3-.87-5.37-1.35-6.25-3.75,2.53.72,4.71,2.07,6.25,2.5Z" style="fill: #5a5b64;"/>
  <path d="M253.5,301.61v1.25c-2.64-.77-4.29-1.81-6.25-2.5v-1.25c1.99.94,4.17,1.75,6.25,2.5Z" style="fill: #50515b;"/>
  <path d="M276,309.11l-1.25,1.25c-1.6-.51-3.48-.68-5-1.25v-1.25c1.88.53,4.15.54,6.25,1.25Z" style="fill: #585962;"/>
  <path d="M234.75,334.11l-.61,1.22c-1.33-1.07-2.92-1.67-4.39-2.47l.66-1.25c2.12-.22,3.14,1.81,4.34,2.5Z" style="fill: #767781;"/>
  <path d="M192.25,314.11c1.13.19,4.57-1.85,3.75,2.5-1.35-.66-2.9-1.17-3.75-2.5Z" style="fill: #eeeff6;"/>
  <path d="M338.5,312.86v2.5c-8.43,3.74-17.5,8.47-26.25,11.25-.8-6.3,2.76-13.78,10-11.25,3.67-3.31,11.34.01,16.25-2.5Z" style="fill: #f2f1f8;"/>
  <path d="M297.25,317.86c2.66,1.28,1.15,1.98-1.25,2.5-3.77-.44-1.98-1.63-3.84-3.03-1.6-1.21-4.58.2-3.66-3.22,4.23,1.15,5.37,2.13,8.75,3.75Z" style="fill: #898997;"/>
  <path d="M332.25,314.11c-1.86-.11-11.5,2.94-11.25,0,2.41-2.08,8.06-1.21,11.25,0Z" style="fill: #b0b0bc;"/>
  <path d="M321,314.11l1.25,1.25c-2.56.19-4.94,1.1-7.5,1.25,2.39-3.71,3.23-1.87,6.25-2.5Z" style="fill: #75728d;"/>
  <path d="M302.25,320.36c-2.05-.19-4.22.24-6.25,0l1.25-2.5c1.48.71,4.04.27,5,2.5Z" style="fill: #2c2b3c;"/>
  <path d="M318.5,257.86l1.88,1.11c-.53,2.62-.75,5.58-.63,8.89h-2.49c-.4,1.88.77,1.05,2.42,1.32.75,1.41-1.16,2.26-1.18,2.43-4.09.1-3.63.9-3.75-3.07-.23-7.5.18-15.05,0-22.55l3.76,11.87Z" style="fill: #1a174e;"/>
  <path d="M356,234.11c5.3-2.59,10.91.32,16.25,0,.08.66.63,1.16,1.25,1.25-.71,2.46.83,4.39,1.25,6.25-.99,3.55-1.94,2.98-3.75,0l-.71-6.27c-12.26.13-24.53-.16-36.79.02-.23,1.11-.66,1.07-1.25,0l.86-1.02c1.36-.46,2.76-.18,4.14-.23.31-2,1.05-1.34,2.5,0,5.43-.13,10.87.04,16.25,0Z" style="fill: #241d53;"/>
  <path d="M354.75,241.61l.02,2.76c-4.68,4.54-3.4,18.09-.58,24.4l-1.94,2.84c-.96-.09-2.09.26-3.03-.1l-.72-1.15-.07-28c.25-1.45,4.8-1.57,6.32-.75Z" style="fill: #16153c;"/>
  <path d="M347.25,256.61l-4.99,4.99-.02-14.37,2.52.13,2.48,4.24c-.02,1.67,0,3.33,0,5Z" style="fill: #f9fdef;"/>
  <path d="M338.5,271.61l-1.72-1.69c.75-6.83,1.32-13.76,1.72-20.81-.09-1.38-2.11-4.02-1.24-6.25,5.06,1.85,1.84,16.89,2.51,21.89-.03,2.1.82,5.6-1.27,6.86Z" style="fill: #cac9db;"/>
  <path d="M338.5,271.61h-3.75c.35-3.51,1.77-2.12,2.14-2.79.93-1.68,1.03-10.62-.89-12.21.61-2.26-.64-5.85,2.5-7.5.49,7.4-.35,15.08,0,22.5Z" style="fill: #211c41;"/>
  <path d="M332.25,235.36c.41-.03.83,0,1.25,0l-2.5,12.5c-2.66-2.94-.71-8.59-1.25-12.51.83-.06,1.67.06,2.5,0Z" style="fill: #1b1840;"/>
  <path d="M318.5,257.86l3.76.61c-.03,1.54-2.26-.66-2.01,1.86s.5,5.02.75,7.53h-1.25l-1.25-10Z" style="fill: #eaeee5;"/>
  <path d="M266,277.86c1.25,3.15,12.68.68,16.25,1.25.69,3.8-1.91,2.39-4.32,2.5-8.74.38-12.93.38-20.05-5.04-1.17,4.61-4.98,1.74-8.56,2.54-1.31.29-2.22,3.5-10.29,2.6-2.4-.27-1.55-2.34-2.6-2.59-2.34-.55-6.4.06-9.18,0,.11-.63.64-1.17,1.25-1.25.69-2.44,1.79-2.43,2.5,0,8.35,0,16.26-.84,23.75-2.5l.38-2.84c5.65-4.92,7.66-12.2,6.05-21.86l2.32-1.55,6.24,3.75c-.21-2.12.46-4.67,0-6.66-.07-.29-1.42-.81-2.49-4.59,3.4-.03,3.5,1.48,3.81,4.31.36,3.28.31,22.9-.68,24.45-1.34,2.1-5.62,1.17-4.39,7.49Z" style="fill: #19174d;"/>
  <path d="M289.75,241.61c8.37,4.19-1.02,8.36,4.99,13.73-3.1-.73-3.16,3.05-2.51,5.47.36,1.34,2.4.67,2.52.8.62,11.94-4.13,10.04-13.76,10.01v-12.51s5,0,5,0v6.26s5,0,5,0v-18.76s-4.98.03-4.98.03c-.19.8.13,1.76-.01,2.48-3.65,3.72-4.81-2.92-3.75-6.25,2.08.05,4.54-1.49,7.5-1.25Z" style="fill: #1e1a50;"/>
  <path d="M281,231.61c3.58-.09,6.56,1.98,9.4-1.25.9,5.61,5.43-2.38,7.38,3.23.98.69,2.87.73,3.22,1.77-8.99-.08-25.88-1.42-33.75,0-2.28-.84.82-1.49,1.69-1.26,1.39-3.52,2.69-2.35,5.81-2.49.65-2.64,2.73-2.64,6.25,0Z" style="fill: #1d1950;"/>
  <path d="M282.25,242.86c.32,2.51,1.24,5.2,3.75,6.25-.68,3.29-1.05,4.21-4.99,3.75v-11.24c.96-.33,1.1,1.25,1.24,1.25Z" style="fill: #231f53;"/>
  <path d="M266,236.61l-3.74,1.25c-1.63-6.69,6.15-9.26,4.99-2.5-1.08.19-1.08.2-1.25,1.25Z" style="fill: #1a1260;"/>
  <path d="M279.74,271.61c.18.18.18,4.81,0,4.99-3.44,3.4-3.44-8.39,0-4.99Z" style="fill: #f7fde2;"/>
  <path d="M279.74,236.61c.18.18.18,4.81,0,4.99-3.44,3.4-3.44-8.39,0-4.99Z" style="fill: #f9fee3;"/>
  <path d="M293.5,245.36c-.11-.27-3.66-2-3.75-3.75,4.04.33,2.7,1.51,3.75,3.75Z" style="fill: #231f53;"/>
  <path d="M138.5,251.61c.41,1.91-.29,4.15,1.25,6.24h-4.99c-.43-2.57,1.17-14.58,3.74-6.24Z" style="fill: #252b2b;"/>
  <path d="M132.25,266.61c.26-.74-.74-2.53.72-2.55l9.29.05c.07.83-.06,1.67,0,2.5l-2.49-1.25,1.25,3.74c-.77.19-1.95-.21-2.5,0v-3.75s-6.25,1.25-6.25,1.25Z" style="fill: #27235e;"/>
  <path d="M138.5,251.61l-2.5-2.5c.15-.74-.1-1.69.01-2.5,2.83.57,2.08,3.09,2.49,5Z" style="fill: #453f6a;"/>
  <path d="M363.5,271.61l-3.76-7.5c-3.3,1.34-3.55,3.02-2.54,6.13-.51.47-3.28-.23-3.7,1.37-.4-.06-.84.04-1.25,0-.41-3.62-2.18-5-2.57-8.06s-.43-18.87,1.3-20.15l3.77-1.79c5.57,5.28,13.85,22.92,8.75,30Z" style="fill: #161159;"/>
  <path d="M372.24,261.61c-.57,1.98,1.46,13.65-1.23,12.49.34-3.06-3.76-2.8-3.81-5.55-.02-1.06,3.02-9.16,5.04-6.94Z" style="fill: #f9fbea;"/>
  <path d="M371,241.61c1.24-.08,2.51.05,3.75,0,.64,2.83,1.33,2.14,0,6.25-3.17,3.44-10.24-7.19-3.75-6.25Z" style="fill: #1d1851;"/>
  <path d="M374.75,247.86c-1.72,6.61-3.33,2.31-5-1.25,1.97-1.77,3.21.02,5,1.25Z" style="fill: #241d53;"/>
  <path d="M159.75,244.11c2.33-1.76,2.96-4.91,5.08-6.79,4.56-4.05,14.53-4.83,19.32-.7.36.11.19-4.03,6.09-2.56,1.51.38.51,1.91.76,2.55.61,2.97,1.93,15.14-.11,16.32-4.88,2.83-9.42-2.38-8.19-7.75-13.57-13.43-10.09,18.29-8.99,23.78,1.36,2.35,7.33,1.42,9.79.15-4.95-4.7,3.54-13.83,8.94-8.99,2.07,1.86.91,10.71-2.69,10.24-.9,2.27-7.15,9.24-9.32,9.5-1.04.13-8.37-.7-9.79-1.02-14.5-3.27-13.36-23.41-10.9-34.73Z" style="fill: #f7f8fa;"/>
  <path d="M137.25,219.11c-.28,1.99.13,7.36-.64,7.51-3.05.91-1.83-4.56-1.86-7.51h2.5Z" style="fill: #170f68;"/>
  <path d="M289.75,319.11c.69.27,2.54-.64,2.49.62l-7.49,3.12c-.39-.33,1-1.68,1.25-2.49,0-1.45,1.25-1.86,3.75-1.25Z" style="fill: #5f5f70;"/>
  <path d="M280.99,326.59c-.16.23-4.02,1.34-4.98,2.52-.63-3.1,2.56-3.36,4.37-4.99,1.05-.16.76,2.26.61,2.47Z" style="fill: #747286;"/>
  <path d="M289.75,319.11l-.84,1.03-2.91.22c.2-.63-.17-1.71,0-2.5,2.04-.76,2.85.9,3.75,1.25Z" style="fill: #fafcfd;"/>
  <path d="M207.25,327.86c2.4,1.11,4.41,2.84,6.25,3.75l-1.25,1.25c-.87-.66-.62-1.46-2.5,0,.79-3.17-2.4-3.17-4.99-3.76-.39-1.79.8-1.22,2.49-1.24Z" style="fill: #555370;"/>
  <path d="M197.25,324.11c-2.69-.83-5.96-1.21-8.75-2.51l1.25-1.24c2.19,1.11,5.8,1.01,7.5,3.75Z" style="fill: #56536c;"/>
  <path d="M223.5,336.61l-2.5,1.25c.62-3.64-3.69-2.53-5-5,3.04,1.56,3.41.94,7.5,3.75Z" style="fill: #797988;"/>
  <path d="M202.25,235.36l13.7.05c2.29,5.34,4.54,37.46,10.05,36.2l-.71,6.27c-5.57.18-11.23-.31-16.79-.02-.28-1.45.16-5.5,1.25-6.25,2.76-7.61-9.14-6.8-5.1-1.78l.1,3.03c-.4.65.3,3.75,0,5.01-4.83.36-10.28-.53-15.01,0-.13-1.62.02-5.33,1.25-6.25,2.61-7.49,5.03-15.93,7.25-25.34l2.75-.91c.44-2.39,1.06-7.5,1.25-10Z" style="fill: #f8f9fb;"/>
  <path d="M192.25,251.61c.16-.16,2.17.6,2.53-.81.69-2.69-.87-13.14.08-14.13l3.64-.07-2.5-3.74,4.98.59c-1.71,2.99-2.35,9.07.02,11.9-.62,3.38-6.29,24.62-7.52,25.61-.81.65-2.16.39-2.48.64l-1.25-1.25c1.07-2.68,1.39-5.86,1.24-8.75-7.36-1.22-5.31,3.22-7.49,7.5-11.6,9.02-13.48-14-8.75-19.38-5.8,2.47.62-15.05,7.86-4.78-.7,8.2,4.79,10.19,9.64,6.65Z" style="fill: #151059;"/>
  <path d="M263.5,249.11c2.98,30.32-10.34,27.64-35,28.75.28-1.35-.4-5.76,0-6.25,6.86,1.42.27-24.18,2.58-29.31-4.76-.95-5.16-2.26-3.83-6.94h24.38c5.1,1.7,11.09,7.93,11.88,13.75Z" style="fill: #f9fafb;"/>
  <path d="M204.75,272.86c-1.31-1.73-3.89-.16-3.82-3.08.03-1.34.81-5.42,2.13-5.72,5.87-1.33,10.17.14,9.29,6.82-.19,1.44-2.21.46-2.6.73-.89.42-4.86,1.03-5,1.25Z" style="fill: #231c54;"/>
  <path d="M141,402.87h2.49l1.24-3.76c2.16,6.66-6.59,8.17-4.98,0l1.24,3.76Z" style="fill: #1d145c;"/>
  <path d="M289.74,392.85c-2.01,2.01-8.68-1.09-3.1-4.99,2.62-.59,4.01,4.08,3.1,4.99Z" style="fill: #e1ddf2;"/>
  <path d="M262.89,386.61c3.06-.67,4.17,4.34,1.22,4.99s-4.17-4.34-1.22-4.99Z" style="fill: #ded9f6;"/>
  <path d="M251,387.85h-3.74s0-2.48,0-2.48c1.56-.82,4.35,2,3.74,2.48Z" style="fill: #a7a0db;"/>
  <path d="M218.5,392.86c0,.83,0,1.67,0,2.5-3.23-.3-4.33,1.25-3.74-3.12l1.24-.63c1.39.13,2.5-3.55,2.5,1.25Z" style="fill: #605b8a;"/>
  <path d="M253.5,215.36c.53,4.48,1.38,9.26-1.25,12.5-9.44.11-18.61.53-27.5,1.25-.23,1.11-.66,1.07-1.25,0-1.97-.87-4.31-1.07-6.25,0-1.6-.07-1.05-1.46-1.25-2.5,12.07-.13,24.19.09,36.26,0-.22-4.35.29-8.82,0-13.17-.24-3.57-3.09-1.3-5.01-1.83-1.07-.42-1.07-.83,0-1.25,7.51-1.91,5.17-.18,6.25,5Z" style="fill: #232151;"/>
  <path d="M277.25,226.61c.48,3.76,1.88,2.06,3.75,5-2.08.05-4.18-.09-6.25,0-1.52-3.56-.79-4.47,2.5-5Z" style="fill: #19115d;"/>
  <path d="M368.5,234.11c-4.15.11-8.35-.03-12.5,0,3.34-3.33,8.94-2.63,12.5,0Z" style="fill: #1d1851;"/>
  <path d="M353.49,227.87c.99,2.84-13.82.58-16.24,1.23-.99-2.84,13.82-.58,16.24-1.23Z" style="fill: #131239;"/>
  <path d="M339.75,234.11c-1.62.27-3.65-.37-5-1.27,1.52-4.04,3.32-1.64,5,1.27Z" style="fill: #1d1851;"/>
  <path d="M225.23,243.69c4.66,1.37.9,9.09,2.02,12.92h-4.99s-.02-13.75-.02-13.75l-2.48,3.74c-.5-3.28.45-6.24,3.73-7.49-.06,1.86.81,3.1,1.74,4.58Z" style="fill: #140d5c;"/>
  <path d="M223.5,229.11c2.92-.23,5.87-1.54,8.75,0l-9.37,4.76-3.19-.21-1.19-4.55c1.49-1.16,3.42-.79,5,0Z" style="fill: #151059;"/>
  <path d="M252.25,227.86c-5.73,2.98-20.28.69-27.5,1.25,1.26-2.09,4.76-1.24,6.86-1.27,6.88-.08,13.77.09,20.64.02Z" style="fill: #161344;"/>
  <path d="M254.75,225.36h-1.25c.42-3.08-.29-6.8,0-10,.86,4.12.91,5.81,1.25,10Z" style="fill: #100f34;"/>
  <path d="M223.5,229.11c-2.1.04-4.22.08-6.25,0,.35-1.96,5.18-2.04,6.25,0Z" style="fill: #161344;"/>
  <path d="M247.25,202.86c-.24,5.51,1.56,11.78-2.5,16.25-3.84.6-7.59,1.43-11.25,2.5-2.33-.4-1.79-12.41.62-12.48,4.82-.13,1.46,9.34,8.12,7.47.5-4.35-2.24-27.53,5.01-13.75Z" style="fill: #1e1661;"/>
  <path d="M118.5,216.61l-1.04-.8-.2-4.19c3.87-.84,2.28,2.18,2.49,4.99-.42.11-.94-.14-1.25,0Z" style="fill: #14143d;"/>
  <path d="M212.25,205.36l4.99-6.24c.81,6.64-.46,11.39-2.49,17.49l4.98-2.49-1.24,7.49c-.82.24-1.66.94-2.5,1.25-.84-2.97-5.14-3.27-6.17-3.84-.29-.16-.19-6.25-.13-6.58.21-1.2,2.11.29,2.55-3.33.15-1.21-.14-2.54,0-3.75Z" style="fill: #160f5b;"/>
  <path d="M314.74,216.61c2.93,3.07-7.3,4.11-4.98,0,.12-.22,3.55,1.19,4.98,0Z" style="fill: #2c246b;"/>
  <path d="M247.25,202.86c-1.3-.35-3-2.86-3.73-2.5l-1.27,2.5c-.03-1.25.05-2.51,0-3.75h-4.99s0,5.01,0,5.01h-4.99s-.01-10.02-.01-10.02c8.58-.29,13.68-.97,15.01,8.76Z" style="fill: #221d59;"/>
  <path d="M229.61,219.26c.25.22.41,3.7,1.39,4.83h-8.74c-1.59-1.39,4.85-7.01,7.35-4.83Z" style="fill: #f9fced;"/>
  <path d="M244.75,219.11c-2.87,3.26-6.82,3.26-11.25,2.5v-2.5s10.52-1,10.52-1l.73,1Z" style="fill: #181343;"/>
  <path d="M232.24,191.62c-.12,2.81-9.51,2.89-9.99,2.48-3.83-3.26,9.25-2.66,9.99-2.48Z" style="fill: #f7fce7;"/>
  <path d="M254.75,275.36c-5.59,5.19-16.37,1.75-23.75,2.5,7.49-3.77,15.99-.15,23.75-2.5Z" style="fill: #eff3f7;"/>
  <path d="M192.25,251.61c-.16.16.6,2.17-.81,2.53-1.13.28-8.73.16-9.07-.14-.91-3.09-1.1-5.56-.13-8.64l-2.49,1.28-.02-3.79c-3.69,1.03-7.87,2.59-4.99,6.89,0,0,0,19.37,0,19.37,5.17,1.52.87-10,3.14-10.01,3.33-.01,1.79,4.58,1.86,6.94.13,3.97-.34,3.17,3.75,3.07-16.45,21.64-17.61-45.08-.72-24.91,3.03,5.2-.59,8.88,8.23,7.41v-15c1.67,4.24,2.52,10.42,1.25,15Z" style="fill: #1b174d;"/>
  <path d="M208.5,254.11c.96,3.92-3.23,4.27-3.75,1.25.53-2.67.51-5.96,1.26-8.74h1.23c.43,2.47.75,5.04,1.26,7.49Z" style="fill: #363063;"/>
  <path d="M208.5,254.11c.28,1.36.73,2.49,1.25,3.74h-6.25c-.45-.38,1.1-1.71,1.25-2.49l2.47,1.25,1.28-2.5Z" style="fill: #181825;"/>
  <path d="M249.75,244.11c2.4,6.67.91,15.33,1.25,22.5.05,2.37-.03,3.69-2.5,2.5-10.29,5.85-6.55-12.6-6.82-18.35-1.89-10.37,1.05-13.44,8.07-6.65Z" style="fill: #171453;"/>
  <path d="M249.75,244.11l-7.5-2.5c.27,9.13-.39,18.38,0,27.5,3.04,1.88,6.63.23,8.75-2.5.06,1.27.9,2.43,1.18,3.63l-10.58,3.85c-1.8-7.81-.43-16.27-.54-24.41-.05-3.58-2.76-6.79.48-9.42,3.74-3.05,6.89.21,8.21,3.85Z" style="fill: #eff3f7;"/>
  <path d="M197.24,230.37v1.22c-3.18-.29-1.58,3.58-4.99,2.51,1.34-3.19,1.04-4.48,4.99-3.73Z" style="fill: #151059;"/>
  <path d="M248.5,269.11c-1.34,1.09-.51,2.47-4.35,2.55-2.66.05-1.8-.13-1.9-2.55l5.67-.85.58.85Z" style="fill: #18193f;"/>
</svg>