<?xml version="1.0" encoding="UTF-8"?>
<svg id="Layer_1" data-name="Layer 1" xmlns="http://www.w3.org/2000/svg" viewBox="0 0 512 512">
  <path d="M366.03,223.98h-34.79c-1.94,10.5,2.75,30.04-.3,39.34-1.94,5.93-14.29,8.78-17.42,1.85-8.1-30.93-11.37-63.01-17.09-94.43-2.51.36-2.52,2.59-3.28,4.19-7.47,15.6-11.02,35.49-17.71,51.65l-2.16,1.29c-3.69-6.08-15.86-47.39-21.75-45.44-3.14,14.36-5.04,29.27-8.73,43.51-.52,1.99.99,2.27-2.85,1.94l-32.65-68.81-26.96,58.27-17.23.14c12.03-112.28,200.99-107.02,202.92,6.5Z" style="fill: #ed1d23;"/>
  <path d="M189.91,225.28c1.95-.57,13.49-29.41,15.89-33.83.66-1.21.27-2.91,2.21-2.52l39.14,85.69,10.18-51.93c26.89,64.53,11.09,39.28,34.76-6.5,3.72,19.34.73,41.62,11.59,59.09,10.78,11.6,35.48,7.68,39.92-7.12,2.23-7.41-1.24-31.75,1.31-35.18,1.95-2.62,16.89-.59,21.11-1.21-10.01,114.9-202.58,109.33-202.93-6.5h26.82Z" style="fill: #ed1d23;"/>
  <path d="M152.97,364.21c3.87-.2,8.4-22.26,10.33-23.19.75-.46,6.6-.41,6.97-.11l5.87,33.68c-11.71,1.93-6.11-14.46-10.86-20.78-1.69-.03-6.69,19.71-8.17,20.61-.79.48-6.33.47-6.9.05-1.38-1.03-4.02-18.99-8.83-20.64l-3.73,20.83-6.45-.72,5.82-33.1c2.01.12,4.45-.38,6.33.19,3.65,1.1,7.97,19.07,9.63,23.19Z" style="fill: #fff;"/>
  <path d="M390.67,340.84v26.62c0,2.72,11.6,2.72,11.6,0v-26.62h7.25v26.62c0,3.84-9.03,8.71-13.74,8.53-5.09-.2-12.35-5.53-12.35-9.83v-25.32h7.25Z" style="fill: #fff;"/>
  <path d="M295,374.61h-7.25c-.95-4.98,3.29-20.36-5.07-20.32-8.62.05-6.39,15.18-6.52,20.32h-5.79v-24.68c8.61,2.98,13.68-4.47,21.05,1.28.83.65,3.59,4.07,3.59,4.57v18.83Z" style="fill: #fff;"/>
  <path d="M363.13,339.55c1.49,4.87-3.62,3.43-4.4,7.09-1.18,5.5,4,2.19,4.41,3.95,1.01,4.34-3.91,3.69-4.39,5.44-.84,3.05.92,17.8.04,18.58h-7.26c-.69-.61.6-14.4-.05-17.48-.49-2.31-3.29-3.97-2.92-6.48,8.9-3.47-3.4-12.88,14.58-11.1Z" style="fill: #fff;"/>
  <path d="M424.02,355.14c.05,4.78,7.57,4.67,10.23,8.34,5.98,8.27-4.52,14.94-13.51,10.82-4.37-2-4.57-5.18-.13-5.99,1.89-.35,8.19,4.76,9.2.43.83-3.58-20.99-9.45-8.67-18.13,10.1-7.11,23.43,8.55,2.88,4.52Z" style="fill: #fff;"/>
  <path d="M202.24,374.61h-7.25v-35.06c1.9-.42,7.25.24,7.25,1.95v33.11Z" style="fill: #fff;"/>
  <rect x="208.03" y="339.55" width="5.8" height="35.06" style="fill: #fff;"/>
  <rect x="181.94" y="349.93" width="7.25" height="24.67" style="fill: #fff;"/>
  <rect x="221.08" y="349.93" width="5.8" height="24.67" style="fill: #fff;"/>
  <path d="M221.96,339.66c5.56-1.53,8.7,3.66,4.97,5.77-6.09,3.45-10.37-4.28-4.97-5.77Z" style="fill: #fff;"/>
  <rect x="181.94" y="339.54" width="7.26" height="6.5" style="fill: #fff;"/>
  <path d="M97.71,341c1.51,1.16,11.27,29.4,13.2,33.6-9.68,3.13-6.85-5.94-9.64-6.54-1.58-.34-15.57-.17-16.23.25-1.85,4.26-1.99,7.22-8.9,6.29-1.68-1.44,12.79-28.86,13.2-33.6.56-.43,7.82-.43,8.38,0ZM91.95,351.78c-.74,1.54-4.72,9.4-4.21,9.84h11.59s-4.36-11.68-4.36-11.68c-3.72-.5-2.25.26-3.01,1.85Z" style="fill: #fff;"/>
  <path d="M259.77,371.61c-13.8,13.33-37.17-7.94-19.91-19.79,15.19-10.43,30.91,9.17,19.91,19.79ZM255.1,366.78c5.35-6.44-1.41-13.73-9.82-11.41-12.06,3.32.33,22.83,9.82,11.41Z" style="fill: #fff;"/>
  <path d="M342.34,352.98c11.71,10.34-4.16,30.53-19.86,19.74-16.61-11.41,4.77-33.06,19.86-19.74ZM325.42,367.49c8.51,8.57,19.72-4.5,12.72-10.75-6.5-5.81-21.45,1.98-12.72,10.75Z" style="fill: #fff;"/>
</svg>