<?xml version="1.0" encoding="UTF-8"?>
<svg id="Layer_1" data-name="Layer 1" xmlns="http://www.w3.org/2000/svg" viewBox="0 0 512 512">
  <rect x="87.63" y="215.53" width="332.73" height="79.45" style="fill: #fefefe;"/>
  <path d="M87.26,210.45c.63,1.02,1.04,2.38,1.22,4.08,3.04-1.27,6.09-.82,8.29,1.93,1.37-1.36,3.17-1.36,5.41,0,1.07-2.75,2.79-2.61,4.42-.59.38-2.71,2.37-3.31,5.98-1.8,1.89-.27,3.98-.52,2.32,2.15l3.43,1.02c1.78-.62,3.54-.75,5.28-.39-.6-3.07.68-4.85,3.04-2.46,1.75.15,8.95,1.61,9.73,3.24.97,2.04-.7,2.4-2.18,2.64l-2.03,1.22c.82.09,1.26.51,1.31,1.24l-.25,1.22c-6.39,5.01-12.52,11.81-14.75,20.42l-.92.7c-.31.55-.57,1.43-.78,2.63l.55.69c-4.67,14.98,4.41,32.8,19.75,26.72,8.8-3.49,15.4-9.78,21.56-17.62,8.61-8.34,6.39,11.12,3.11,15.46-.94,2.11,1.35,2.04,2.65,1.68,1.38-.39,8.61-5.43,9.64-6.62,2.84-4.51,3.29,2.91.22,2.91-.57.62-.63,2.95,0,3.5,3.01,2.06,5.43.16,8.05-2.17l5.88-5.96c1.35-1.5,2.38-1.62,3.07-.35,1.38,9.91,7.29,6.14,11.87,1.35,2.16-.8,2.89,1.79,2.46,3.83-1.33,3.93-1.57,22.15.23,23.85.24.22,5.92.13,6.17-.12.76-.76,3.41-9.76,3.74-10.93,1.86-10.21,3.95-18.57,11.79-24.54.88-1.59,2.03-3.41,3.52-1.41-.97,2.35-3.63,15.12-2.33,16.91s2.35,1.73,4.11.81c5.64-6.63,11.51-12.82,17.61-18.54,6.29-5.52,3.92,7.11,2.58,10.39-4.15-1.01-4.15.39-3.74,4.62.07.75.98,5.13,1.25,5.3.11.07,2.07-.6,2.31-.79,1.46-1.65,7.62-7.3,9.17-7.22.27.01.53.09.8.17.31.04.77.16.78.41.24,7.12.41,16.09,0,23.14.26,1.49,0,2.4-.78,2.73l.37-.88h97.4l.48.88c-.33-.17-.69-.38-.86-.77-1.77-4.2,5.53-14.01,8.15-17.13-1.85-2.54-3.48-5.24-4.9-8.08.34-1.65-.43-1.4-2.32.77-7.91,6.58-10.94,3.24-14.84-5.44-4.93,4.03-9.76,8.29-14.57,12.63-4.45,3.56-5.27.35-5.97-4.13s-1.2-9.03,4.18-8.14c.37.06,1.13-7.45.76-7.89-.7-.83-12.07,11.49-12.82,12.72-5.41,4.37-13.36,6.16-15.54-2.94-3.44,3.35-7.76,4.94-12.94,4.76l-1.85.57c-3.42,3.03-13.6,9.81-17.46,6.86-4.5-3.44,4.36-8.87,7.44-9.11,5.37-3.15,12.18-11.5,14.6-17.77,3.97-10.29-5.59-17.68-12.91-21.13-2.47,12.06-4.67,24.09-6.61,36.11-.56,2.96-4.51,10.73-6.09,4.77.57-10.94,1.49-22.36,2.96-33.41.67-5.03,1.05-6.89,3.99-10.13-2.18-.74-5.89-2-7.15-4.27-.37-.66-.61-5.56.1-6.11.19-.14,3.93-.23,4.46-.23,4.79-.03,13.35,4.08,17.42,6.83,17.52,11.82,13.53,25.7,2.05,41.45,4.49-.02,7.73-1.73,9.74-5.12l1.51-1.22c-.29-6.44,7.63-22.09,14.22-17.39,5.14,3.66-.47,12.47-3.3,15.87-9.68,8.39,4.31,8.85,7.04,2.26,4.23-3.78,8.14-8.02,11.74-12.7,7.97-7.7,9.51,1.76,7.42,8.76l-2.67,10.32c3.41-3.03,6.63-6.35,9.67-9.98,6.59-10.44,8.88-.15,9.63,7.01,1.35,6.84,8.77-4.26,9.64-7.21.82-5.52,5.46-12.47,9.45-15.69,7.35-5.95,9.19,1.53,4.57,8.28-.96,1.4-2.85,4.14-4.37,4.01-.39,1.1-.87,2.17-1.55,3.07l.35.5c-2,3.08-3.11,6.43-.39,9.72l1.01,3.12c5.37-5.37,10.25-11.29,14.63-17.77,4.03-6.53,12.32-7.03,9.55,3.13l-1.99,7.02c5.06-5.92,13.52-14.06,16.09-1.08l.56,1.16c9.35,3.08.74,12.21-4.65,8.02-1.37-2.37-2.95-4.42-4.74-6.17-3.97,2.45-7.41,5.73-10.32,9.83-2.31,3.24-6.99,5.32-7.46-.53l3.18-12.87c.48-2.18-11.39,13.93-11.15,14.1,2.69,4.33,4.61,9.25,2.8,14.52-.81,2.36-2.52,5.69-4.75,6.29l1.4-.88h48.22l.47.88-.78-.31v-82.36l.78-.54.78.3c.1,28.13.15,56.25.13,84.35l-.52.31c-16.72,1.57-35.33-1.16-52.25-.02-3.76,1.7-8.77,5.36-12.23,1.12-.31-.38-.32-1.09-.37-1.09H86.87l.39-87.15Z" style="fill: #252222;"/>
  <path d="M229.01,210.45c65.36-.01,130.87,0,196.33.02l2.11-.46v87.33c-.06.49-.76.22-1.16.26l-.39-84.96-.38.87c-54.07-.15-108.16-.29-162.25-.44l-.48-.88-.21,5.05c-1.13,1.11-1.94.2-2.42-2.74-1.98,1.61-2.94,2.19-5.5,1.7-.89,1.31-1.95,2.25-3.16,2.83,3.74,2.92,4.05,7.74-1.68,4.42-.65,1.48-1.61,2.02-2.96,2.33.74,2.82.74,3.81-2.12,4.14.37,1.92.16,3.57-.62,4.96.5,2.19.63,4.48.38,6.89,3.35,1.93.31,9.79-2.32,4.13l-1.87,1.17c4.37.98,2.87,3.81-.54,4.78.2,1.16.3,2.1-.46,3.04-.87,1.08-3.39,1.44-2.94-.66l-.67-.61c.62-3.54,1.38-7.04,2.29-10.51,1.25-.55,2.52-1.08,3.82-1.58.27-1.74.34-3.52,0-5.26-.73.86-1.22.06-1.38-.98,2.03-9.01-1.36-6.19-3.43-.45l-1.01.11c-1.07.7-2.24,1.14-3.5,1.31-.28.42-.63.77-1.09.92-1.83.61-6.81-.18-8.62-.92-.85.14-2.28-.93-2.72-1.75-.89-1.5-.55-5.06.78-6.13.32-1.44.27-2.94,0-4.38-.3.12-.65.15-.89-.1-2.6-2.75-3.44-1.16-4.94,2.18-1.36,3.29-2.47,6.69-3.33,10.2l-.93.42c-.64,2.15-1.7,1.64-3.17-1.54-4.1.83-6.14-.66-6.13-4.47-4.33,1.47-5.05-6.18-.4-5.41.46-3.18-1.03-4.16-4.49-2.93-2.02.36-3.55-2.92-1.69-3.9,4.92.45,6,0,.45-.45-1.1-1.57-1.69-1.89-1.75-.95-1.97-.26-3.9.16-5.8,1.27-2.5-.29-4.82-.42-7.32.09-3.04.44-4.63-1.26-4.92-4.61-3.2-1.27-4.74-.29-4.6,2.94l-.9,1.24c4.25,6.65,1.42,9.23-8.49,7.72-2.34,1.24-3.26,1.21-5.28-.76l-3.96-.43c.82,4.21,1.02,8.85-.58,12.78,2.18,2.64,2.24,4.39.17,5.25.91,2.68.93,4.6-2,4.74-1.35.06-2.95.07-2.42-1.81l-.59-.85,1.67-9.59.86-.52c.34-2.62.34-5.11,0-7.45l-.82-.58c0-3.66-1.93-4.6-4.75-5.41l-.25-1.02c-1.36-.47-2.78-.47-4.27,0-.44.85-1.34,1.35-2.7,1.53-1.23,1.17-2.27,1.53-3.13,1.1l-4.27-.88.19-.86c2.23,1.11,3.86-2.36,6.42-1.76.26-1.8-.31-1.04-1.12-1.57-4.31-2.8-4.83-1.26-8.33-2.46-.83-.28-.85-1.62-2.21-.79l.37,3.04c-1.11.67-2.13-.09-3.26,0-1.01.09-1.98.73-2.99.66-.35-.03-4.04-1.15-4.23-1.28-1.44-1.02,1.2-1.25.78-2.42-2.97,2.27-8.15-3.43-7.38,2.63-1.53.39-1.85-1.94-3.29-1.79-1.21.13-.88,2.04-1.53,2.11-1.17.13-3.26-1.2-3.91-1.19-.73.02-1.32,1.15-1.94,1.16-.81,0-1.52-1.39-2.17-1.79-1.92-1.2-4.68-.93-6.57.18-.65-1.78-.99-3.29-.78-5.25,1.03-.02,2.07.02,3.11,0,3.46-.41,7.02-.37,10.49,0,.65,0,1.29,0,1.94,0,1.93-.37,3.89-.37,5.83,0,7.11-.01,14.25,0,21.36,0,1.28-.37,2.59-.37,3.88,0,4.65,0,9.33,0,13.98,0,1.41-.37,2.85-.37,4.27,0,4.52,0,9.07,0,13.59,0,1.28-.37,2.59-.37,3.88,0,6.21,0,12.43,0,18.64,0,5.43-.35,10.88-.35,16.31,0,6.85,0,13.73,0,20.58,0,1.28-.37,2.59-.37,3.88,0Z" style="fill: #232121;"/>
  <path d="M204.54,210.45c-5.43,0-10.88,0-16.31,0,.4-.73,1.48-.44,2.13-.44,4.01-.06,8.04-.05,12.05,0,.65,0,1.73-.28,2.13.44Z" style="fill: #252222;"/>
  <path d="M100.85,210.45c-3.49.02-7-.08-10.49,0,.4-.73,1.48-.44,2.13-.44,2.07-.02,4.15-.03,6.22,0,.66,0,1.73-.28,2.13.44Z" style="fill: #252222;"/>
  <path d="M108.62,210.45c-1.94,0-3.89,0-5.83,0,1.44-.73,4.31-.74,5.83,0Z" style="fill: #252222;"/>
  <path d="M152.12,210.45c-1.42,0-2.85,0-4.27,0,.9-.73,3.29-.75,4.27,0Z" style="fill: #252222;"/>
  <path d="M133.86,210.45c-1.29,0-2.59,0-3.88,0,.78-.73,3.03-.75,3.88,0Z" style="fill: #252222;"/>
  <path d="M169.59,210.45c-1.29,0-2.59,0-3.88,0,.78-.73,3.03-.75,3.88,0Z" style="fill: #252222;"/>
  <path d="M229.01,210.45c-1.29,0-2.59,0-3.88,0,.78-.73,3.03-.75,3.88,0Z" style="fill: #252222;"/>
  <path d="M425.9,212.64v83.21h-50.1c4.67-5.78,6.24-10.15,2.93-17.53-.5-1.11-1.99-2.41-1.71-3.62,2.19-2.87,9.19-14.31,12.18-14.77.68-.1.6,0,.6.67l-3.31,13.29c.01,2.17,1.11,3.15,3,2.58s6.94-7.68,9.03-9.53c1.29-1.15,3.39-2.12,4.75-3.45,4.29,1.37,3.95,9.53,9.8,7.15.6-.24,3.5-2.92,3.47-3.4-.22-3.08-3.11-2.53-4.23-4.02-1.31-1.74-1.48-6.43-3.5-7.44-4.53-2.28-11.15,6.6-13.97,9.84.09-3.4,4.57-13.1,2.74-16.02-.95-1.51-3.06-1.14-4.39-.51-2.56,1.21-6.89,8.22-9.03,10.84-2.52,3.09-5.96,7.73-8.73,10.29s-2.26-1.17-3.19-3.01c-.69-1.36-1.29-.78-1.47-3.58-.32-5.03.78-3.56,2.32-6.78.68-.91,1.16-1.97,1.55-3.07,2.14-2.77,8.13-8.34,5.79-12.44-1.13-1.97-3.48-.88-4.82.17-1.07.85-6.75,7.65-7.57,8.98-1.56,2.55-1.69,5.69-2.78,8.25-.46,1.07-2.84,4.57-3.62,5.55-1.18,1.49-4.58,4.53-6.23,2.64-1.82-2.08-1-16.71-6.59-12.27-1.15.92-1.73,2.5-2.7,3.52-2.06,2.16-3.83,4.21-5.78,6.4-.37.41-5.09,4.83-5.3,4.53.31-4.21,2.13-8.06,2.92-12.25.43-2.24,1.61-8.11,0-9.67-1.36-1.33-3.16-.86-4.5.22-3.06,2.46-7.02,8.26-10.08,11.41-.97,1.01-2.27,1.82-3.32,2.83-.78.76-1.95,2.76-2.4,3.1-1.83,1.36-7.18,2.63-8.84.4-2.09-2.81,1.63-5.02,3.1-6.99,1.81-2.42,5.14-7.12,5.18-10.29s-1.54-5.13-4.31-4.94c-4.05.28-8.72,8.63-9.73,12.67-.34,1.36-.36,4.22-.86,5.16-.25.47-1.14.73-1.56,1.31-2.18,2.97-1.37,3.11-5.14,4.27-2.46.76-5.05.87-7.46,1.87,5.67-7.5,12.33-16.72,11.22-27.32s-14.59-17.93-22.38-20.31c-.98-.3-4.21-1.29-5-1.39-1.82-.23-3.36.97-5.2-.03-.55,1.21.18,1.94.3,2.95.06.56-.24,1.15-.18,1.59.27,2.12,6.51,4.64,8.42,4.66l-4.05,4.84c-1.84,10.42-2.63,21.11-3.33,31.72-.12,1.87-1.36,7.69-.01,8.78.65.53,1.23-.43,1.56-.9,3.91-5.42,3.94-15.49,5.15-22.22s2.7-13.4,4.17-20.04c.34-.27,5.15,2.61,5.94,3.15,6.2,4.2,11.69,11.23,7.99,19.79-2.59,5.99-9.11,14.4-14.35,17.54-2.03,1.21-4.86,1.35-6.38,2.88-.25.25-2.45,3.14-2.49,3.35-.14.73,1.46,2.08,2.09,2.15,3.37.36,8.4-2.27,11.35-4.1,1.32-.82,3.15-2.76,4.11-3.25,3.5-1.78,8.64-.39,12.68-3.22.97-.68,2.42-3.51,3.49-1.67.59,1.02.7,2.61,1.59,3.78,2.28,3.02,5.39,2.26,8.37,1.23,4.97-1.72,6.04-4.94,9.5-8.56,1.1-1.15,7.42-7.28,8.36-7.21,1.24.1.15,9.07-.4,10.05-.81,1.45-1.01-.39-1.21-.45-1.14-.33-3.06.57-3.26,2.01.61,3.61-.19,7.61,2.13,10.61,3.16-.77,5.36-3.96,7.79-6.02.93-.79,2.04-1.3,2.87-2.02,1.33-1.15,6.37-6.61,7.54-6.27,1.54.44,2.9,6.01,4.32,7.43,3.28,3.27,7.8-.04,10.67-2.47.54-.45,3.09-3.79,3.53-3.24.66,1.69-.76,2.33-.79,2.47-.53,2.95,5.14,7.62,4.98,9.5-.07.89-3.86,5.07-4.74,6.46-2.16,3.42-3.9,6.99-3.34,11.35h-98.25v-26.28c-3.08,1.84-5.78,4.4-8.64,6.56-.36.27-.42.9-.93,1.23-.38.25-2.97,1.15-3.22.95-1.42-3.85-3.96-14.91,2.7-11.37.27-2.3,1.63-8.08.88-9.96-.18-.45.06-.7-.67-.55-1.16.23-5.65,4.73-6.81,5.91-4.38,4.46-8.47,9.49-12.83,14-2.94,1.85-5.68.38-5.77-3.53-.03-1.45,1.78-13.02,2.28-13.91.14-.26.53-.32.79-.29-1.19-1.97-1.76.55-2.51,1.34-3.71,3.93-6.66,5.67-8.48,11.46-1.68,5.36-2.46,11.2-4.26,16.66-.41,1.23-2.32,6.66-2.81,7.34-.73,1-5.88.14-7.32.45-1.25-3.85-1.46-8.35-1.44-12.52,0-1.75.01-4.52.09-6.11.11-2.23,1.15-6.06,1.06-7.92-.03-.55-.58-1.38-.99-1.48-.81-.19-4.78,5.48-8.44,5.2-3.99-.31-4.25-3.89-5.1-7.41-4.24,2.56-9.44,11.75-14.68,10.41-1.44-.37-1.05-1.12-1.44-1.66-.65-.53-.66-2.96,0-3.5.21-.28,1.47-2.63,1.54-2.87.2-.79-.49-.87-.75-.63-.05.05-.09.89-.56,1.33-1.23,1.15-8.31,6.15-9.64,6.65s-4.12.56-4.09-1.55c.02-1.34,2.45-6.05,2.86-8.17.56-2.9,1.05-12.35-3.33-8.57-3.49,3.02-6.77,8.21-10.5,11.37-2.92,2.47-11.96,7.92-15.41,8.46-13.64,2.11-20.66-11.18-18.63-24.95.11-.74.75-3.94,1.06-4.28.17-1.05.43-1.93.78-2.63,1.37-8.55,9.6-17.92,15.92-22.34,2.31-1.62,2.86-2.38,5.83-2.63,1.48-.47,2.9-.47,4.27,0,4.11,1.58,5.45,1.42,5.83,7.01.31,2.38.31,4.87,0,7.45-.41,3.02-1.18,8.14-1.94,10.95l.58.79c-.23.65-3,6.49-3.26,6.74-.65.64-4.67,1.6-5.08.36-1.17.28-.93-6.3-.78-6.61.16-.33.47-.51.78-.62-.29-.13-.75-.36-.73-.6.25-2.67,1.54-7.16,2.44-9.71,2.56-4.14,4.02-8.11-2.07-8.24-9.86-.21-14.35,13.65-15.76,22.76-1.16,7.49.14,14.62,5.84,19.07,8.44,6.6,22.88-7.82,27.32-15.75-.27-3.03.81-4.64,3.25-5.76,6.76-3.12,11.96,7.59,9.95,14.01-3.3,8-2.25,7,3.31,1.61,3.78-3.67,7.47-7.54,11.09-11.45,2.32-2.28,9.29-9.11,12.53-7.42,2.02,1.06,1.86,3.87.19,5.27-5.2,4.44-9.69,10.15-13.93,15.77l8.4-8.15c2.22-2.17,5.26-2.36,5.61,1.54-.91,13.54,6.78,3.66,8.33-2.9,1.56-6.07,2.96-12.19,4.19-18.36.47-.23.84-.61,1.11-1.12.91-3.18,2.21-8.27,3.59-11.06.22-.43,2.14-3.62,2.31-3.74,1.59-1.04,3.57.19,4.2,2.1.27,1.43.33,2.94,0,4.38-.25,2.01-.37,4.16-.78,6.13.47,1.74.28,3.59-.56,5.55-5.06,13.19-8.64,23.81-9.6,38.2-.09,1.3-.46,10.5,0,10.48.26-.01,2.02-4.47,2.33-5.35,1.35-5.57,2.97-11.01,4.87-16.33,5.36-6.48,10.11-14.34,14.29-21.93.27-1.27.76-2.04,1.48-2.3-.08.46-.2.7-.55.88-.41.2-7.65.02-7.94-.29-.13-.14-.2-.35-.25-.58-.27,1.47-2.56-.13-2.91-1.12-.4-1.12.26-5.24,1.56-5.45,1.47-.87,2.66-.03,4.06.02,1.81.07,3.85.07,5.65-.02,1.16-.52,2.32-.96,3.5-1.31,1.09-1.55,2.19-5.83,3.7-6.13,3.92-.77,1.43,4.5,1.5,6.37.02.64.52.82.62,1.07.34,1.72.28,3.52,0,5.26-.81,2.65-2.44,1.24-3.06,1.8-.39.36-2.07,9.47-2.38,10.9l.51,1.3c-.5.97-2.8,12.57-1.97,12.44,5.79-4.96,11.1-10.68,15.93-17.14,2.97-3.84,9.23-9.03,11.02-1.45l.13-32.11.6-.35.2-4.74,163.11.44Z" style="fill: #fefefe;"/>
  <path d="M364.54,295.86c-.03-.77-.04-1.54.09-2.31.3-1.68,4.93-10.12,6.12-11.49.31-.35,1.58-1.52,1.94-1.35,5.93,6.4-1.34,16.29-8.16,15.14Z" style="fill: #fdfdfd;"/>
  <path d="M307.85,257.31c-.06-2.57,1.38-5.16,3.49-6.13l-.43,2.79-3.06,3.34Z" style="fill: #f3f2f2;"/>
  <path d="M174.25,270.89v3.5c-.04-.05-.54.13-.69-.07s-.19-2.72-.1-3.16c.11-.51.75-.21.79-.27Z" style="fill: #cccbcc;"/>
  <path d="M117.55,245.05c-.33,2.06.5,1.18-.78,2.63.12-1.04-.54-2.89.78-2.63Z" style="fill: #595855;"/>
  <path d="M373.09,256.88c.59-1.22.41-1.59,1.55-3.07.04,1.2-.67,2.41-1.55,3.07Z" style="fill: #888786;"/>
  <path d="M147.46,245.49c.63,1.5,2.68.79,3.83.82.88-1.56-.1-2.76-.33-4.31l1.94-1.12c.15-.78-1.9-1.97-1.95-3.53-.03-1.01.73-1.45.79-2.16.13-1.58.14-1.91.36-3.52.43-3.13-.75-6.14-.71-9.21,0-.76.48-4.05.83-4.45,1.25-1.43,4.01.05,5.29.1,3.45.11,7.6-2.19,6.7,3.72l1.13.68c-.32,1.4-3.55-1.36-3.77-1.44-.4-.13-4.66-.99-4.93-.96-1.1.12-2.34,1.39-3.35,1.98-.84.49-1.42-.35-1.16,1.52,1.32.39,3.18.19,4.38.54.81.24,1.57,1.58,2.45,1.67.75.07,1.35-.78,2.28-.92,2.52-.39,6.86.61,8.88-.06,3.12-1.03-.91-5.93-.91-6.7s.86-1.13,1.09-1.86c.39-1.22-.02-3.29,1.45-3.62.6-.13,4.19.23,4.42.5.31.36.14,3.88,2.19,4.32s4.27-.29,6.21-.34c.91-.03,1.91.53,3.12.38,1.71-.21,3.15-2.48,5.61-.9v-1.93c1.71-1.28.96,1.85,2.33,2.59.78.42,5.73-.3,4.48,1.54-.88,1.3-3.97.77-5.25.43-.32,3.85,3.32,1.66,5.19,1.87,2.01.23,1.9,3.46,1.8,5.14-1.7.02-3.36-.62-3.1,1.93.33,3.3,2.58,1.3,3.11,1.75.86.72.5,3.34,1.01,3.81,1.76,1.6,3.51-.15,5.1.72.95.52,1.42,2.07,1.65,3.18l1.16-.87c-2.24,7.87-3.48,21.29-8,27.11-1.03,1.33-3.52,3.83-5.04,2.7-2.98-2.22.57-10.03-3.44-9.65-2.74.26-11.97,12.35-13.43,10.93.8-1.31,1.59-2.73,2.52-3.94,3.15-4.13,7.4-8.95,10.88-12.69,1.04-1.12,4.14-2.53,3.12-4.81-1.62-3.66-8.85,2.9-10.49,4.38-4.02,3.65-7.34,8.18-11.48,11.57-1.79,2.46-4.63,4.17-6.86,6.29-.63.31-1.25-.17-1.27-.98-.04-1.71,2.05-5.46,2.29-7.51.65-5.48-3.67-13.93-9.05-11.52-.45.2-2.37,1.54-2.59,1.89-.67,1.05-.19,2.3-.45,3.43-.38,1.65-8.75,11.33-10.33,12.44-2.96,2.07-7.57,5.01-11.13,5.4-4.59.51-6.57-.6-9.5-4.18-.28-.35-.85-.46-1.07-.75s-2.68-6.4-2.75-6.77c-.15-.87-.13-6.11-.08-7.34.28-8.22,4.74-21.76,12.05-24.96,3.41-1.49,10.56-2.23,9.68,3.91-.19,1.31-1.62,2.92-2.21,4.51s-2.42,8.63-2.42,9.97v7.23c.92-.34,4.03-.54,4.57-.97.26-.21.55-1.65.87-2.21.73-1.26,1.91-3.17,2.32-4.7Z" style="fill: #252222;"/>
  <path d="M262.8,212.2l-.2,52.55c-1.53,1.88-3.44,3.62-5.62,4.39-.18-.22.96-5.12,1.19-5.79.14-.42.7-.39.86-.88.99-2.99,2.77-10.97,1.91-13.79-.94-3.08-3.7-2.67-5.71-.99-4.72,3.92-10.05,11.85-14.7,16.49-.79.79-5.33,4.99-5.89,4.96-.91-.83-.63-2.47-.53-3.66.3-3.72,1.51-7.64,2.28-11.22.46.79.7.74,1.43.54,2.39-.66.74-2.57,1.35-3.54.13-.2,2.53-1.21,3.03-1.4.47-2.83-3.14-.62-2.69-3.46.86.03,2.2-1.42,2.85-1.28.79.17,1.5,3.28,2.39,1.7.14-.25.61-2.97.54-3.23-.17-.66-1.23-.71-1.46-1.44-.39-1.29.15-3.25.11-4.6-.02-.87-.65-1.87-.56-2.77.07-.67.72-1.12.78-1.78.17-1.95-1.49-4.51,2.33-4.15.3-.95-.68-2.85-.23-3.52.59-.88,3.17-.35,2.56-3.05,1.87.16,2.88,1.97,5.05,1.31l-2.11-3.53-2.93-1.06c.79-1.03,1.95-.5,3.01-.99s1.87-2.39,2.7-2.66c1.09-.36,2.04.42,2.85.18.92-.28,2.63-3.19,3.67-1.13.44.86-.19,2.78,1.36,2.63l.39-4.82Z" style="fill: #252222;"/>
  <path d="M222.8,236.29c.12,1.05-1.25,3.31-.79,5.41.28.31,2.03,1.16,2.15,1.16h8.74c-.09,1.72-1.2,3.53-2.01,4.98-3.1,5.59-7.24,11.63-10.65,16.92-.39.6-1.35.95-2.03,2.04-2.12,3.37-3.79,13.03-5.43,17.52-.32.88-1.81,4.47-2.21,4.95-.47.55-.71.51-1.35.45-.64-6.7,0-13.64.82-20.31.72-5.77,1.74-10.13,3.77-15.46,2.45-6.42,4.86-12.46,6.28-19.41.93-.37,2.6.77,2.72,1.75Z" style="fill: #252222;"/>
  <path d="M227.9,225.72c.38.28,4.63-.3,5.01-.58s.4-1.29.76-1.77c.44-.59,1.8-1.73,1.89-2.25.2-1.14-1.93-2.55-1.49-3.22,3.3-2.13,7.42-2.6,10.48.22.18.48-3.41,1.24-3.78,1.43-1.28.63-1.16,1.74-1.71,2.89-.25.53-.96.97-1.07,1.46-.22.96.92,1.48.7,2.45-.12.54-1.26,1.46-1.69,2.09s-.65,1.76-1.16,2.2c-1.17.99-6.43-.92-7.74-.43-1.39.52-.17,2.59-.29,3.21-.22,1.18-4.28.29-4.97-.89-1.08-1.86.22-2.48.24-3.8.04-2.58-1.48-6.66-1.52-9.43-1.04-.15-2.1-1.62-2.93-1.78s-1.17.72-1.85.8c-1.69.19-2.47-2.79-.7-3.39.75-.25,2.55-.2,3.34,0,1.37.35,1.43,1.79,2.09,2.04,1.25.48,2.14-.85,3.45.49,1.07,1.1-.49,1.6-.19,2.81.23.9,2.05.47,2.52,1.56.44,1.03-.03,2.77.63,3.89Z" style="fill: #252222;"/>
  <path d="M211.11,224.94c.24.19.96,3.44.83,4.04-.1.47-1.09.54-1.39,1.17-.51,1.06.55,2.8-.39,3.07-2.44.69-1.79-3.19-2.72-3.49-1.08-.35-1.59,1.47-2.27,1.28-.36-.1-.65-.88-1.03-1.06-1.38-.64-2.8.27-2.32-2.63.42-2.6,2.45.07,2.91.07.23,0,.92-.72,1.43-.88.75-.24,1.56-.24,2.27-.5.67-.25,1.85-1.72,2.68-1.07Z" style="fill: #252222;"/>
  <path d="M149.77,218.75l-4.64.9c.21-2.13.09-2.15-1.55-2.84,1.51-1.91,2.32-.75,3.78-.32s2.77-.5,2.41,2.27Z" style="fill: #252222;"/>
  <path d="M214.64,218.33v3.06c-1.98-.53-2.81-.28-4.66.44.05-2.8,2.63-3.31,4.66-3.5Z" style="fill: #252222;"/>
  <path d="M236,234.98c-1.32,1.87-1.54,1.22-3.5,1.31l1.55-.65-.38-1.54,2.33.88Z" style="fill: #252222;"/>
  <path d="M149.4,234.54c-.12-2.44.16-5.02,0-7.45.97.38.47.87.46,1.56-.03,2.19-.18,3.83-.46,5.89Z" style="fill: #252222;"/>
  <path d="M143.57,220.09c-1.41.08-2.87-.12-4.27,0,.69-.45,2.55-.75,3.33-.69.6.05.77.62.94.69Z" style="fill: #252222;"/>
  <path d="M241.83,241.55v-5.26c.68,1.77.57,3.41,0,5.26Z" style="fill: #252222;"/>
  <path d="M220.85,228.41v-4.38c.37,1.12.51,1.52.42,2.9-.06.84-.39,1.29-.42,1.48Z" style="fill: #252222;"/>
  <path d="M355.47,232.05c.42-.03,1.81.28,2.09.51,1.19.99-1.18,7.4-2.14,8.55-4.33,5.18-9.37.3-4.87-5.05.82-.98,3.89-3.93,4.92-4Z" style="fill: #252321;"/>
  <path d="M217.36,236.73c-.63,1.18-1.48,6.25-1.99,6.96-.04.05-.72-.36-1.11.05-.17-.3,1.72-6.46,1.9-6.75.33-.51.76-.21,1.2-.26Z" style="fill: #3c3739;"/>
</svg>