<?xml version="1.0" encoding="UTF-8"?>
<svg id="Layer_1" data-name="Layer 1" xmlns="http://www.w3.org/2000/svg" viewBox="0 0 512 512">
  <path d="M403.8,295.06c1.95-.28,2.06,3-.25,2.31-.95-.28-.99-2.13.25-2.31Z" style="fill: #262424;"/>
  <path d="M436,295.11h-.22c-.64-.01-.59-.9,0-1h.22v1Z" style="fill: #e1efd0;"/>
  <path d="M186.75,272.45c-.03.27-.07.54-.14.81s-.14.51-.27.74c-3.59,6.05-8.12,11.88-12.66,17.34-.17.2-.38.36-.61.53s-.47.31-.72.45c-.75.65-1.65,1.1-2.69,1.34.82-.23,1.36-.15,1.61.26.3-.28.51-.43.65,0,87.88.39,175.93.12,263.87.2v1c-91.54.83-183.22-1.2-274.72.21-15.63.24-30.54-8.7-30.64-24.4,0-.73.39-1.66.2-2.49.06-.22.12-.44.22-.65.84-1.87,5.85-5.8,7.79-7.3,7.08-5.48,15.61-9.72,23.75-13.69.19-.09.42-.13.65-.17s.47-.05.72-.05c.13.44.57.36.93.44,12.3,2.6,21.81,11.55,22.09,23.74.01.56-.52,1.24,0,1.7Z" style="fill: #8ec64c;"/>
  <path d="M190.62,186.2c.24,1.07-.48,1.53-.9,2.26-.18.31-.21.72-.41,1.02-.61.91-9.13,5.12-10.8,5.98-23.64,12.09-45.33,21.66-63.7,40.88-8.07,8.45-13.24,17.13-18.57,27.21-1.59,3.01-3.31,7.59-5.15,10.24-2.72,3.92-11.22,2.34-14.64-.17-.12-.16.02-.4.07-.57.76-2.39,2.57-5.81,3.73-8.16,9.09-18.29,21.45-34.13,39.11-45.96,17.44-11.68,38-18.1,57.42-26.28l13.83-6.45Z" style="fill: #fff;"/>
  <path d="M296.97,253.19l12.37,19.05v-19.05h7.63s.32.28.32.3v35.8h-6.56l-11.9-18.39-.47-.47v18.85h-7.96v-36.1h6.56Z" style="fill: #fff;"/>
  <path d="M130.62,268.44c-5.9,6.6-10.11,14.33-11.84,22.86-1.14.14-1.55.08-1.51-1.08.14-3.68.97-8.75,1.8-12.38,7.86-34.37,54.52-36.66,77.89-57.52.6-.44,3.42-3.96,3.69-4.02.33-.07.78.04,1.14,0,0,.35.04.71-.05,1.06-.62,2.52-5.76,8.59-7.8,10.58-8.84,8.59-19.2,13.16-30.22,18.65-12.4,6.18-23.93,11.58-33.12,21.86Z" style="fill: #fff;"/>
  <polygon points="234.71 253.19 234.71 266.83 245.46 266.83 245.46 253.19 253.42 253.19 253.42 289.3 245.46 289.3 245.46 275.26 234.71 275.26 234.71 289.3 226.75 289.3 226.75 253.19 234.71 253.19" style="fill: #fff;"/>
  <path d="M409.33,253.19v7.82h-13.87s-.32.28-.32.3v5.62s.3.3.32.3h12.15v7.62h-12.47v6.32s.3.3.32.3h14.52v7.82h-22.58v-36.1h21.94Z" style="fill: #fff;"/>
  <path d="M219.44,263.22c-2.24-2.22-11.25-4.72-12.21-.46-.64,2.84,1.82,3.5,4.14,4.27,5.27,1.77,10.22,2.39,11.46,8.57,2.22,11.07-7.65,16.75-18.34,13.49-1-.31-5.71-2.29-5.66-3.27l2.65-7.16c1.36.9,2.7,1.85,4.26,2.44,2.34.89,8.95,2.11,9.4-1.33.34-2.6-1.37-3.13-3.55-3.92-6.42-2.34-11.84-2.75-12.37-10.73-.69-10.47,9.4-15.12,19.13-11.43.73.28,3.41,1.47,3.44,2.19l-2.36,7.33Z" style="fill: #fff;"/>
  <polygon points="422.24 253.19 422.24 281.27 435.57 281.27 435.57 289.3 414.28 289.3 414.28 253.19 422.24 253.19" style="fill: #fff;"/>
  <path d="M171.91,293.91c-.2,0-.46,0-.65,0-.32-.58.04-1.11,1.08-1.6,5.29-6.5,10.23-12.6,14.41-19.86,5.74-9.97,8.18-20.27,8.61-31.58.1-2.7-.1-5.43,0-8.13l.82,3.74c1.64,10.1,2.6,20.44-1.04,30.26-3.08,8.31-9.66,15.62-16.45,21.56-2.2,1.92-4.67,3.63-6.78,5.61Z" style="fill: #fff;"/>
  <path d="M165.25,224.91c-.06.27-.36.42-.58.56-3.07,2.08-7.45,4-10.8,5.97-12.05,7.07-22.44,14.04-31.29,24.57-4.12,4.9-7.4,10.54-11.35,15.29-.16.2-.32.48-.61.54,3.01-6.75,6.81-13.5,11.09-19.64,3.82-5.48,7.88-10.6,13.87-14.14,4.27-2.52,9.31-4.86,13.88-6.91,5.12-2.3,10.41-4.54,15.78-6.24Z" style="fill: #fff;"/>
  <path d="M363.2,301.13c.68.17,4.48,6.22,5.39,7.2.17.19.31.46.63.42l5.38-7.62h3.55l.22,13.44h-4.3v-6.82l-3.91,5.37-2.32-.06-3.87-5.11v6.62h-4.3v-13.14s.3-.3.32-.3c.76,0,2.67-.14,3.23,0Z" style="fill: #f48634;"/>
  <path d="M299.66,308.15v-7.02h4.3v13.44h-3.55c-.52,0-6.05-6.45-7.2-7.02v7.02h-4.3v-13.44h3.55c.52,0,5.97,6.5,7.2,7.02Z" style="fill: #f48534;"/>
  <path d="M210.41,301.13v3.01h-7.96v2.21h7.1v2.81h-7.1v2.41h8.06c.55,0,.25,2.54.32,3.01h-12.9v-13.44h12.47Z" style="fill: #f48634;"/>
  <path d="M241.16,301.13v3.01h-7.96v2.21h7.1v2.81h-7.1v2.41h8.06c.55,0,.25,2.54.32,3.01h-12.9v-13.14s.3-.3.32-.3h12.15Z" style="fill: #f48634;"/>
  <path d="M416,301.13v3.01h-7.96v2.21h6.77c.54,0,.26,2.34.32,2.81h-7.1v2.41h8.17v3.01h-12.69v-13.44h12.47Z" style="fill: #f48634;"/>
  <path d="M265.22,303.71l-2.66,1.84c-1.48-1.16-2.76-1.62-4.73-1.41-3.49.36-4.8,4.54-2.14,6.61,2.04,1.59,5.09,1.13,6.88-.58.38.49,2.58,1.7,2.67,2.12s-1.56,1.37-1.94,1.56c-4.89,2.36-13.12.5-13.53-5.39-.46-6.53,8.04-9.16,13.49-6.56.48.23,2.34,1.3,1.98,1.82Z" style="fill: #f48634;"/>
  <path d="M329.55,303.73c-.79.1-2.08,1.73-2.72,1.78-.33.03-.82-.61-1.21-.82-2.55-1.35-6.6-.46-7.02,2.57-.49,3.56,3.42,5.39,6.65,4,.41-.18,1.46-1.12,1.71-1.02l2.57,2.04c.14.61-2.71,1.91-3.31,2.1-4.74,1.44-11.63-.45-12.16-5.73-.67-6.63,7.96-9.42,13.48-6.75.4.2,2.3,1.45,2,1.84Z" style="fill: #f48634;"/>
  <polygon points="227.61 301.13 221.59 309.65 221.59 314.57 217.08 314.57 217.08 309.65 211.05 301.13 215.68 301.13 219.55 306.34 223.42 301.13 227.61 301.13" style="fill: #f48634;"/>
  <path d="M401.81,301.13v3.01h-4.73v10.43h-4.52v-10.13s-.3-.3-.32-.3h-4.62v-3.01h14.19Z" style="fill: #f48634;"/>
  <path d="M342.67,301.13v10.43h7.74v3.01h-12.26v-13.14s.3-.3.32-.3h4.19Z" style="fill: #f48634;"/>
  <path d="M271.91,311.56h7.53v3.01h-12.04v-13.44h4.19s.32.28.32.3v10.13Z" style="fill: #f48634;"/>
  <rect x="281.16" y="301.13" width="4.52" height="13.44" style="fill: #f48634;"/>
  <path d="M385.89,301.13v13.44h-4.52v-13.14s.3-.3.32-.3h4.19Z" style="fill: #f48634;"/>
  <path d="M311.7,314.57h-4.52v-13.44h4.19s.32.28.32.3v13.14Z" style="fill: #f48634;"/>
  <path d="M356.65,314.57h-4.52v-13.44h4.19s.32.28.32.3v13.14Z" style="fill: #f48634;"/>
  <path d="M402.67,318.38h-4.09l-.22,2.01c8.82-.31,4.12,8.31-2.27,4.41l.34-1.2c.21-.14,2.81,1.49,4.41.4,1.03-.7.42-2.21-.43-2.21h-3.76l.43-4.81h5.27c.38,0,.36,1.12.32,1.4Z" style="fill: #fff;"/>
  <path d="M391.05,324.19h4.3v1.4h-7.1c-.03-.42-.05-.73.2-1.11.92-1.35,4.67-3.21,4.73-4.82.05-1.33-1.55-1.45-2.63-1.24-1.14.23-1.27,1.38-2.52-.15,2.29-2.65,8.89-1.23,6.37,2.74-.83,1.31-2.43,1.97-3.36,3.18Z" style="fill: #fff;"/>
  <path d="M378.98,324.02c.62.88-2.65,1.74-3.34,1.77-7.21.26-7.08-9.83.84-8.76,1.52.2,3.59,1.16,1.56,2.35-2.17-2.15-6.22-.86-5.92,2.31.21,2.18,2.85,3.25,4.89,2.35.33-.15.66-.59.84-.63.06-.01,1.09.56,1.12.61Z" style="fill: #fff;"/>
  <path d="M406.75,324.19h3.98c.38,0,.36,1.12.32,1.4h-7.1c-.03-.42-.05-.73.2-1.11.92-1.36,4.63-3.26,4.74-4.82.1-1.4-1.75-1.44-2.81-1.2-.52.12-1.16.75-1.35.7-.25-.05-.55-.64-1-.59-.23-.31.68-.9.92-1.04,1.69-.94,5.3-.92,5.86,1.23.67,2.56-2.48,3.7-3.78,5.43Z" style="fill: #fff;"/>
  <path d="M428.47,325.6c0-.4-.08-.81.11-1.2.33-.68,3.42-2.67,4.19-3.71,1.34-1.79-.31-2.64-2.21-2.26-1.15.23-1.27,1.38-2.52-.15,2.08-2.1,7.48-1.93,6.86,1.79-.26,1.56-2.86,2.94-3.86,4.12h4.3v1.4h-6.88Z" style="fill: #fff;"/>
  <path d="M411.7,323.59l.2-1.32c1.11-.89,3.47-4.75,4.54-5.2.45-.19.93-.09,1.39-.1l.08.47-4.06,4.94h3.01v-1.81s1.72,0,1.72,0v1.81s1.72,0,1.72,0v1.09s-1.72.11-1.72.11v2.01s-1.72,0-1.72,0v-2.01s-5.16,0-5.16,0Z" style="fill: #fff;"/>
  <path d="M427.4,316.97l-.02,1.09c-.53,1-3.08,7.13-3.63,7.44-.26.15-1.88.31-1.72-.2.7-2.19,2.62-4.7,3.43-6.93h-3.66v1.41s-1.72,0-1.72,0c.06-.47-.22-2.81.32-2.81h6.99Z" style="fill: #fff;"/>
  <polygon points="386.54 316.97 386.54 325.6 384.82 325.6 384.82 318.38 382.88 318.38 382.88 316.97 386.54 316.97" style="fill: #fff;"/>
  <path d="M381.97,320.74c-.51.47-1.73.36-1.88-.46-.43-2.37,3.37-.92,1.88.46Z" style="fill: #fff;"/>
  <path d="M144.82,269.24c-.24-1.26.56-3.1,1.17-4.22,4.48-8.14,17.35-9.63,23.73-2.67,9.2,10.04-.99,23.87-14.41,21.07-3.59-.75-7.55-3.34-8.99-6.56l.13-.49c3.34-1.55,2.41-6.38-1.32-6.72l-.31-.42Z" style="fill: #201e1e;"/>
  <path d="M144.82,269.24c4.6.07,5.7,6.08,1.51,7.62-1.3.48-2.01.5-3.31-.02-4.21-1.7-2.85-7.67,1.8-7.6Z" style="fill: #fdfdfd;"/>
  <path d="M172.34,292.3c-.36.44-.75,1.12-1.08,1.6-.8,0-1.87.24-2.91.2-.26,0-.8.15-.75-.2l4.73-1.61Z" style="fill: #f3f7ee;"/>
  <path d="M354.28,289.3v-36.1h14.73c2.43,0,6.46,1.81,8.28,3.31,7.95,6.51,8,23,0,29.49-1.72,1.39-5.58,3.31-7.85,3.31h-15.16ZM369.01,281.07c.08,0,1.34-.47,1.54-.56,6.05-2.82,6.19-14.63.79-18.06-.37-.23-2.21-1.04-2.55-1.04h-6.56v19.66h6.77Z" style="fill: #fff;"/>
  <path d="M319.44,289.3l12.28-36.08,7.62-.03,12.57,36.12h-8.17l-2.13-6.9-11.86-.03-2.14,6.93h-8.17ZM335.68,263.42l-3.55,11.43h7.1l-3.55-11.43Z" style="fill: #fff;"/>
  <path d="M288.26,289.3h-8.39l-2.14-6.93-11.86.02-2.13,6.9h-8.17l12.36-35.91c.16-.22.4-.18.64-.21.76-.09,6.92-.09,7.23.1l12.46,36.01ZM271.81,263.42l-3.55,11.43h7.1l-3.55-11.43Z" style="fill: #fff;"/>
  <path d="M418.8,314.57v-13.44h7.85c.65,0,2.59.35,3.29.54,6.59,1.78,7.22,9.69.83,12.13-.6.23-2.28.77-2.83.77h-9.14ZM427.29,311.56c.19,0,1.5-.59,1.77-.75,1.68-1.01,1.99-2.96,1.17-4.6-1.17-2.32-4.59-2.04-6.92-2.07v7.42h3.98Z" style="fill: #f48634;"/>
  <path d="M361.16,316.97c2.07.08,6.06-.4,7.41,1.41,1.21,1.62.36,3.62-1.38,4.5l1.92,2.71c-.48-.08-1.55.15-1.89-.04-.12-.06-1.1-1.76-1.53-2.08-.74-.55-1.89-.19-2.81-.29v2.41s-1.72,0-1.72,0v-8.62ZM366,321.79c.63,0,1.37-1.17,1.3-1.81-.2-2-2.88-1.58-4.42-1.6v3.41h3.12Z" style="fill: #fff;"/>
</svg>